# 3ds Max Wavefront OBJ Exporter v0.97b - (c)2007 guruware
# File Created: 15.03.2020 20:31:13

mtllib Banco.mtl

#
# object Base_Mesa
#

v  -1.1618 2.0669 -52.4540
v  -1.1618 2.0669 -42.5206
v  -1.1618 2.5897 -42.5206
v  -1.1618 2.5897 -52.4540
v  1.6846 2.0669 -52.4540
v  1.6846 2.5897 -52.4540
v  1.6846 2.5897 -42.5206
v  1.6846 2.0669 -42.5206
v  -0.0407 1.4971 -51.5436
v  -0.0407 1.4971 -43.4013
v  -0.0407 1.7722 -43.4013
v  -0.0407 1.7722 -51.5436
v  0.5095 1.4971 -51.5436
v  0.5095 1.7722 -51.5436
v  0.5095 1.7722 -43.4013
v  0.5095 1.4971 -43.4013
v  -0.9859 0.0248 -43.6264
v  -0.9859 1.0524 -43.6264
v  1.3950 1.0524 -43.6264
v  1.3950 0.0248 -43.6264
v  -0.9859 0.0248 -42.9786
v  1.3950 0.0248 -42.9786
v  1.3950 1.0524 -42.9786
v  -0.9859 1.0524 -42.9786
v  -0.4977 1.0045 -43.6095
v  -0.4977 2.1949 -43.6095
v  0.9903 2.1949 -43.6095
v  0.9903 1.0045 -43.6095
v  -0.4977 1.0045 -43.0143
v  0.9903 1.0045 -43.0143
v  0.9903 2.1949 -43.0143
v  -0.4977 2.1949 -43.0143
v  -0.9859 0.0248 -51.9553
v  -0.9859 1.0524 -51.9553
v  1.3950 1.0524 -51.9553
v  1.3950 0.0248 -51.9553
v  -0.9859 0.0248 -51.3075
v  1.3950 0.0248 -51.3075
v  1.3950 1.0524 -51.3075
v  -0.9859 1.0524 -51.3075
v  -0.4977 1.0045 -51.9384
v  -0.4977 2.1949 -51.9384
v  0.9903 2.1949 -51.9384
v  0.9903 1.0045 -51.9384
v  -0.4977 1.0045 -51.3432
v  0.9903 1.0045 -51.3432
v  0.9903 2.1949 -51.3432
v  -0.4977 2.1949 -51.3432
v  -0.8211 1.0506 -43.5161
v  -0.4749 1.3969 -43.5161
v  -0.4749 1.0506 -43.5161
v  -0.8211 1.0506 -43.0995
v  -0.4749 1.0506 -43.0995
v  -0.4749 1.3969 -43.0995
v  0.9735 1.0638 -43.5328
v  0.9735 1.3614 -43.5328
v  1.2711 1.0638 -43.5328
v  0.9735 1.0638 -43.1162
v  1.2711 1.0638 -43.1162
v  0.9735 1.3614 -43.1162
v  -0.8211 1.0506 -51.8450
v  -0.4749 1.3969 -51.8450
v  -0.4749 1.0506 -51.8450
v  -0.8211 1.0506 -51.4284
v  -0.4749 1.0506 -51.4284
v  -0.4749 1.3969 -51.4284
v  0.9735 1.0638 -51.8617
v  0.9735 1.3614 -51.8617
v  1.2711 1.0638 -51.8617
v  0.9735 1.0638 -51.4451
v  1.2711 1.0638 -51.4451
v  0.9735 1.3614 -51.4451
# 72 vertices

vn -0.5774 -0.5774 -0.5774
vn -0.5774 -0.5774 0.5774
vn -0.5774 0.5774 0.5774
vn -0.5774 0.5774 -0.5774
vn 0.5774 -0.5774 -0.5774
vn 0.5774 0.5774 -0.5774
vn 0.5774 0.5774 0.5774
vn 0.5774 -0.5774 0.5774
vn -0.7733 -0.3206 -0.5470
vn 0.3202 0.7736 -0.5469
vn -0.7735 -0.3204 0.5469
vn 0.3204 0.7735 0.5469
vn -0.3206 0.7733 -0.5470
vn 0.7733 -0.3206 -0.5470
vn 0.7735 -0.3204 0.5469
vn -0.3204 0.7735 0.5469
# 16 vertex normals

vt 0.2545 0.9473 0.0000
vt 0.2545 0.1459 0.0000
vt 0.2967 0.1459 0.0000
vt 0.2967 0.9473 0.0000
vt 0.5685 0.9473 0.0000
vt 0.5264 0.9473 0.0000
vt 0.5264 0.1459 0.0000
vt 0.5685 0.1459 0.0000
vt 0.0249 0.9473 0.0000
vt 0.0249 0.1459 0.0000
vt 0.2967 0.1037 0.0000
vt 0.5264 0.1037 0.0000
vt 0.5264 0.9895 0.0000
vt 0.2967 0.9895 0.0000
vt 0.4515 0.0656 0.0000
vt 0.0300 0.0661 0.0000
vt 0.0300 0.0519 0.0000
vt 0.4515 0.0514 0.0000
vt 0.4514 0.0086 0.0000
vt 0.4514 0.0229 0.0000
vt 0.0300 0.0234 0.0000
vt 0.0300 0.0092 0.0000
vt 0.4515 0.0941 0.0000
vt 0.0301 0.0946 0.0000
vt 0.0158 0.0519 0.0000
vt 0.0157 0.0234 0.0000
vt 0.4657 0.0229 0.0000
vt 0.4657 0.0513 0.0000
vt 0.9085 0.2482 0.0000
vt 0.9096 0.3591 0.0000
vt 0.6528 0.3617 0.0000
vt 0.6516 0.2508 0.0000
vt 0.9115 0.5398 0.0000
vt 0.6546 0.5424 0.0000
vt 0.6535 0.4316 0.0000
vt 0.9103 0.4289 0.0000
vt 0.9122 0.6097 0.0000
vt 0.6553 0.6123 0.0000
vt 0.5847 0.5432 0.0000
vt 0.5836 0.4323 0.0000
vt 0.9802 0.4282 0.0000
vt 0.9814 0.5391 0.0000
vt 0.7845 0.1480 0.0000
vt 0.7852 0.2329 0.0000
vt 0.6791 0.2338 0.0000
vt 0.6784 0.1490 0.0000
vt 0.8269 0.1477 0.0000
vt 0.9330 0.1468 0.0000
vt 0.9337 0.2316 0.0000
vt 0.8276 0.2325 0.0000
vt 0.9745 0.0403 0.0000
vt 0.9754 0.1464 0.0000
vt 0.9321 0.0407 0.0000
vt 0.9762 0.2313 0.0000
vt 0.9771 0.3374 0.0000
vt 0.9346 0.3377 0.0000
vt 0.6547 0.9133 0.0000
vt 0.6547 0.8068 0.0000
vt 0.9016 0.8068 0.0000
vt 0.9016 0.9133 0.0000
vt 0.6547 0.6331 0.0000
vt 0.9016 0.6331 0.0000
vt 0.9016 0.7396 0.0000
vt 0.6547 0.7396 0.0000
vt 0.9016 0.9805 0.0000
vt 0.6547 0.9805 0.0000
vt 0.9688 0.8068 0.0000
vt 0.9688 0.9133 0.0000
vt 0.5876 0.9133 0.0000
vt 0.5876 0.8068 0.0000
vt 0.8273 0.2318 0.0000
vt 0.8274 0.1465 0.0000
vt 0.9341 0.1466 0.0000
vt 0.9340 0.2319 0.0000
vt 0.7847 0.2318 0.0000
vt 0.6780 0.2317 0.0000
vt 0.6781 0.1464 0.0000
vt 0.7847 0.1464 0.0000
vt 0.9339 0.3386 0.0000
vt 0.9767 0.2319 0.0000
vt 0.9766 0.3386 0.0000
vt 0.9768 0.1466 0.0000
vt 0.9342 0.0399 0.0000
vt 0.9769 0.0399 0.0000
vt 0.5988 0.1051 0.0000
vt 0.6628 0.1051 0.0000
vt 0.6308 0.1371 0.0000
vt 0.5988 0.0506 0.0000
vt 0.6308 0.0185 0.0000
vt 0.6628 0.0506 0.0000
vt 0.5535 0.1051 0.0000
vt 0.5535 0.0506 0.0000
vt 0.7081 0.1051 0.0000
vt 0.7081 0.0506 0.0000
vt 0.8092 0.1119 0.0000
vt 0.7848 0.0874 0.0000
vt 0.8337 0.0874 0.0000
vt 0.8092 0.0145 0.0000
vt 0.8337 0.0389 0.0000
vt 0.7848 0.0389 0.0000
vt 0.8683 0.0874 0.0000
vt 0.8683 0.0389 0.0000
vt 0.7501 0.0874 0.0000
vt 0.7501 0.0389 0.0000
vt 0.5986 0.1051 0.0000
vt 0.6627 0.1051 0.0000
vt 0.6306 0.1371 0.0000
vt 0.5986 0.0506 0.0000
vt 0.6306 0.0185 0.0000
vt 0.6627 0.0506 0.0000
vt 0.5533 0.1051 0.0000
vt 0.5533 0.0506 0.0000
vt 0.7080 0.1051 0.0000
vt 0.7080 0.0506 0.0000
vt 0.8092 0.1118 0.0000
vt 0.7847 0.0873 0.0000
vt 0.8336 0.0873 0.0000
vt 0.8092 0.0144 0.0000
vt 0.8336 0.0389 0.0000
vt 0.7847 0.0389 0.0000
vt 0.8683 0.0873 0.0000
vt 0.7501 0.0873 0.0000
# 122 texture coords

o Base_Mesa
g Base_Mesa
usemtl wire_047024006
s 2
f 1/1/1 2/2/2 3/3/3 4/4/4 
s 4
f 5/5/5 6/6/6 7/7/7 8/8/8 
s 8
f 1/1/1 5/9/5 8/10/8 2/2/2 
s 16
f 2/11/2 8/12/8 7/7/7 3/3/3 
s 32
f 3/3/3 7/7/7 6/6/6 4/4/4 
s 64
f 4/4/4 6/6/6 5/13/5 1/14/1 
s 2
f 9/15/1 10/16/2 11/17/3 12/18/4 
s 4
f 13/19/5 14/20/6 15/21/7 16/22/8 
s 8
f 9/15/1 13/23/5 16/24/8 10/16/2 
s 16
f 10/25/2 16/26/8 15/21/7 11/17/3 
s 32
f 11/17/3 15/21/7 14/20/6 12/18/4 
s 64
f 12/18/4 14/20/6 13/27/5 9/28/1 
s 2
f 17/29/1 18/30/4 19/31/6 20/32/5 
s 4
f 21/33/2 22/34/8 23/35/7 24/36/3 
s 8
f 17/37/1 20/38/5 22/34/8 21/33/2 
s 16
f 20/39/5 19/40/6 23/35/7 22/34/8 
s 32
f 19/31/6 18/30/4 24/36/3 23/35/7 
s 64
f 18/41/4 17/42/1 21/33/2 24/36/3 
s 2
f 25/43/1 26/44/4 27/45/6 28/46/5 
s 4
f 29/47/2 30/48/8 31/49/7 32/50/3 
s 8
f 25/51/1 28/52/5 30/48/8 29/53/2 
s 16
f 28/52/5 27/54/6 31/49/7 30/48/8 
s 32
f 27/54/6 26/55/4 32/56/3 31/49/7 
s 64
f 26/44/4 25/43/1 29/47/2 32/50/3 
s 2
f 33/57/1 34/58/4 35/59/6 36/60/5 
s 4
f 37/61/2 38/62/8 39/63/7 40/64/3 
s 8
f 33/57/1 36/60/5 38/65/8 37/66/2 
s 16
f 36/60/5 35/59/6 39/67/7 38/68/8 
s 32
f 35/59/6 34/58/4 40/64/3 39/63/7 
s 64
f 34/58/4 33/57/1 37/69/2 40/70/3 
s 2
f 41/71/1 42/72/4 43/73/6 44/74/5 
s 4
f 45/75/2 46/76/8 47/77/7 48/78/3 
s 8
f 41/79/1 44/74/5 46/80/8 45/81/2 
s 16
f 44/74/5 43/73/6 47/82/7 46/80/8 
s 32
f 43/73/6 42/83/4 48/84/3 47/82/7 
s 64
f 42/72/4 41/71/1 45/75/2 48/78/3 
s 2
f 49/85/9 50/86/10 51/87/5 
s 4
f 52/88/11 53/89/8 54/90/12 
s 8
f 49/85/9 51/91/5 53/92/8 52/88/11 
s 16
f 51/93/5 50/86/10 54/90/12 53/94/8 
s 64
f 50/86/10 49/85/9 52/88/11 54/90/12 
s 2
f 55/95/1 56/96/13 57/97/14 
s 4
f 58/98/2 59/99/15 60/100/16 
s 8
f 55/101/1 57/97/14 59/99/15 58/102/2 
s 16
f 57/97/14 56/96/13 60/100/16 59/99/15 
s 64
f 56/96/13 55/103/1 58/104/2 60/100/16 
s 2
f 61/105/9 62/106/10 63/107/5 
s 4
f 64/108/11 65/109/8 66/110/12 
s 8
f 61/105/9 63/111/5 65/112/8 64/108/11 
s 16
f 63/113/5 62/106/10 66/110/12 65/114/8 
s 64
f 62/106/10 61/105/9 64/108/11 66/110/12 
s 2
f 67/115/1 68/116/13 69/117/14 
s 4
f 70/118/2 71/119/15 72/120/16 
s 8
f 67/121/1 69/117/14 71/119/15 70/102/2 
s 16
f 69/117/14 68/116/13 72/120/16 71/119/15 
s 64
f 68/116/13 67/122/1 70/104/2 72/120/16 
# 48 polygons - 8 triangles

