# 3ds Max Wavefront OBJ Exporter v0.97b - (c)2007 guruware
# File Created: 15.03.2020 12:08:39

mtllib Bandera.mtl

#
# object Palo_Vertical_Bandera
#

v  1.2114 -0.0300 -46.4594
v  1.1805 -0.0300 -46.4059
v  1.1332 -0.0300 -46.3662
v  1.0751 -0.0300 -46.3450
v  1.0132 -0.0300 -46.3450
v  0.9551 -0.0300 -46.3662
v  0.9078 -0.0300 -46.4059
v  0.8769 -0.0300 -46.4594
v  0.8661 -0.0300 -46.5203
v  0.8769 -0.0300 -46.5812
v  0.9078 -0.0300 -46.6348
v  0.9551 -0.0300 -46.6745
v  1.0132 -0.0300 -46.6956
v  1.0751 -0.0300 -46.6956
v  1.1332 -0.0300 -46.6745
v  1.1805 -0.0300 -46.6348
v  1.2114 -0.0300 -46.5812
v  1.2222 -0.0300 -46.5203
v  1.2114 6.2558 -46.5812
v  1.2222 6.2558 -46.5203
v  1.1805 6.2558 -46.6348
v  1.1332 6.2558 -46.6745
v  1.0751 6.2558 -46.6956
v  1.0132 6.2558 -46.6956
v  0.9551 6.2558 -46.6745
v  0.9078 6.2558 -46.6348
v  0.8769 6.2558 -46.5812
v  0.8661 6.2558 -46.5203
v  0.8769 6.2558 -46.4594
v  0.9078 6.2558 -46.4059
v  0.9551 6.2558 -46.3662
v  1.0132 6.2558 -46.3450
v  1.0751 6.2558 -46.3450
v  1.1332 6.2558 -46.3662
v  1.1805 6.2558 -46.4059
v  1.2114 6.2558 -46.4594
# 36 vertices

vn 0.6975 -0.6701 0.2539
vn 0.5687 -0.6700 0.4772
vn 0.3712 -0.6700 0.6429
vn 0.1289 -0.6700 0.7311
vn -0.1289 -0.6700 0.7311
vn -0.3711 -0.6701 0.6429
vn -0.5686 -0.6701 0.4771
vn -0.6975 -0.6701 0.2539
vn -0.7423 -0.6701 0.0000
vn -0.6975 -0.6701 -0.2539
vn -0.5687 -0.6700 -0.4772
vn -0.3712 -0.6701 -0.6428
vn -0.1289 -0.6701 -0.7310
vn 0.1289 -0.6700 -0.7311
vn 0.3711 -0.6701 -0.6429
vn 0.5686 -0.6701 -0.4771
vn 0.6975 -0.6701 -0.2539
vn 0.7423 -0.6701 0.0000
vn 0.6975 0.6701 -0.2539
vn 0.7423 0.6701 0.0000
vn 0.5686 0.6701 -0.4771
vn 0.3711 0.6701 -0.6429
vn 0.1289 0.6700 -0.7311
vn -0.1289 0.6701 -0.7310
vn -0.3712 0.6701 -0.6428
vn -0.5687 0.6700 -0.4772
vn -0.6975 0.6701 -0.2539
vn -0.7423 0.6701 0.0000
vn -0.6975 0.6701 0.2539
vn -0.5686 0.6701 0.4771
vn -0.3711 0.6701 0.6429
vn -0.1289 0.6700 0.7311
vn 0.1289 0.6700 0.7311
vn 0.3712 0.6700 0.6429
vn 0.5687 0.6700 0.4772
vn 0.6975 0.6701 0.2539
# 36 vertex normals

vt 0.3400 0.0000 0.0000
vt 0.1953 0.0000 -0.3473
vt 0.0874 0.0000 -0.6527
vt 0.0292 0.0000 -0.8794
vt 0.0278 0.0000 -1.0000
vt 0.0833 0.0000 -1.0000
vt 0.1891 0.0000 -0.8794
vt 0.3325 0.0000 -0.6527
vt 0.4960 0.0000 -0.3473
vt 0.6600 0.0000 0.0000
vt 0.8047 0.0000 0.3473
vt 0.9126 0.0000 0.6527
vt 0.9708 0.0000 0.8794
vt 0.9722 0.0000 1.0000
vt 0.9167 0.0000 1.0000
vt 0.8611 0.0000 1.0000
vt 0.8056 0.0000 1.0000
vt 0.7500 0.0000 1.0000
vt 0.8056 1.0000 1.0000
vt 0.7500 1.0000 1.0000
vt 0.8611 1.0000 1.0000
vt 0.9167 1.0000 1.0000
vt 0.9722 1.0000 1.0000
vt -0.0278 0.0000 1.0000
vt 0.0278 0.0000 1.0000
vt 0.0278 1.0000 1.0000
vt -0.0278 1.0000 1.0000
vt 0.0833 0.0000 1.0000
vt 0.0833 1.0000 1.0000
vt 0.1389 0.0000 1.0000
vt 0.1389 1.0000 1.0000
vt 0.1944 0.0000 1.0000
vt 0.1944 1.0000 1.0000
vt 0.2500 0.0000 1.0000
vt 0.2500 1.0000 1.0000
vt 0.3056 0.0000 1.0000
vt 0.3056 1.0000 1.0000
vt 0.3611 0.0000 1.0000
vt 0.3611 1.0000 1.0000
vt 0.4167 0.0000 1.0000
vt 0.4167 1.0000 1.0000
vt 0.4722 0.0000 1.0000
vt 0.4722 1.0000 1.0000
vt 0.5278 0.0000 1.0000
vt 0.5278 1.0000 1.0000
vt 0.5833 0.0000 1.0000
vt 0.5833 1.0000 1.0000
vt 0.6389 0.0000 1.0000
vt 0.6389 1.0000 1.0000
vt 0.6944 0.0000 1.0000
vt 0.6944 1.0000 1.0000
vt 0.9708 1.0000 0.8794
vt 0.9126 1.0000 0.6527
vt 0.8047 1.0000 0.3473
vt 0.6600 1.0000 0.0000
vt 0.4960 1.0000 -0.3473
vt 0.3325 1.0000 -0.6527
vt 0.1891 1.0000 -0.8794
vt 0.0833 1.0000 -1.0000
vt 0.0278 1.0000 -1.0000
vt 0.0292 1.0000 -0.8794
vt 0.0874 1.0000 -0.6527
vt 0.1953 1.0000 -0.3473
# 63 texture coords

o Palo_Vertical_Bandera
g Palo_Vertical_Bandera
usemtl wire_135059008
s 1
f 1/1/1 2/2/2 3/3/3 4/4/4 5/5/5 6/6/6 7/7/7 8/8/8 9/9/9 10/10/10 11/11/11 12/12/12 13/13/13 14/14/14 15/15/15 16/16/16 17/17/17 18/18/18 
s 8
f 18/18/18 17/17/17 19/19/19 20/20/20 
f 17/17/17 16/16/16 21/21/21 19/19/19 
f 16/16/16 15/15/15 22/22/22 21/21/21 
f 15/15/15 14/14/14 23/23/23 22/22/22 
f 14/24/14 13/25/13 24/26/24 23/27/23 
f 13/25/13 12/28/12 25/29/25 24/26/24 
f 12/28/12 11/30/11 26/31/26 25/29/25 
f 11/30/11 10/32/10 27/33/27 26/31/26 
f 10/32/10 9/34/9 28/35/28 27/33/27 
f 9/34/9 8/36/8 29/37/29 28/35/28 
f 8/36/8 7/38/7 30/39/30 29/37/29 
f 7/38/7 6/40/6 31/41/31 30/39/30 
f 6/40/6 5/42/5 32/43/32 31/41/31 
f 5/42/5 4/44/4 33/45/33 32/43/32 
f 4/44/4 3/46/3 34/47/34 33/45/33 
f 3/46/3 2/48/2 35/49/35 34/47/34 
f 2/48/2 1/50/1 36/51/36 35/49/35 
f 1/50/1 18/18/18 20/20/20 36/51/36 
s 1
f 36/51/36 20/20/20 19/19/19 21/21/21 22/22/22 23/23/23 24/52/24 25/53/25 26/54/26 27/55/27 28/56/28 29/57/29 30/58/30 31/59/31 32/60/32 33/61/33 34/62/34 35/63/35 
# 20 polygons

#
# object Palo_Horizontal_Bandera
#

v  1.1453 5.7381 -47.5004
v  1.1239 5.7010 -47.5005
v  1.0911 5.6735 -47.5005
v  1.0509 5.6588 -47.5005
v  1.0081 5.6588 -47.5005
v  0.9678 5.6735 -47.5005
v  0.9350 5.7010 -47.5005
v  0.9136 5.7381 -47.5004
v  0.9062 5.7803 -47.5004
v  0.9136 5.8225 -47.5003
v  0.9350 5.8595 -47.5003
v  0.9678 5.8871 -47.5003
v  1.0081 5.9017 -47.5003
v  1.0509 5.9017 -47.5003
v  1.0911 5.8871 -47.5003
v  1.1239 5.8595 -47.5003
v  1.1453 5.8225 -47.5003
v  1.1528 5.7803 -47.5004
v  1.1453 5.8203 -45.5583
v  1.1528 5.7781 -45.5584
v  1.1239 5.8574 -45.5583
v  1.0911 5.8849 -45.5582
v  1.0509 5.8996 -45.5582
v  1.0081 5.8996 -45.5582
v  0.9678 5.8849 -45.5582
v  0.9350 5.8574 -45.5583
v  0.9136 5.8203 -45.5583
v  0.9062 5.7781 -45.5584
v  0.9136 5.7360 -45.5584
v  0.9350 5.6989 -45.5584
v  0.9678 5.6713 -45.5585
v  1.0081 5.6567 -45.5585
v  1.0509 5.6567 -45.5585
v  1.0911 5.6713 -45.5585
v  1.1239 5.6989 -45.5584
v  1.1453 5.7360 -45.5584
# 36 vertices

vn 0.6976 -0.2532 -0.6703
vn 0.5687 -0.4764 -0.6706
vn 0.3712 -0.6421 -0.6707
vn 0.1289 -0.7303 -0.6708
vn -0.1289 -0.7303 -0.6708
vn -0.3711 -0.6421 -0.6708
vn -0.5686 -0.4764 -0.6706
vn -0.6975 -0.2531 -0.6704
vn -0.7423 0.0007 -0.6700
vn -0.6976 0.2546 -0.6698
vn -0.5687 0.4779 -0.6695
vn -0.3712 0.6436 -0.6693
vn -0.1289 0.7318 -0.6692
vn 0.1289 0.7318 -0.6693
vn 0.3712 0.6436 -0.6694
vn 0.5687 0.4779 -0.6695
vn 0.6975 0.2546 -0.6698
vn 0.7423 0.0007 -0.6701
vn 0.6975 0.2532 0.6704
vn 0.7423 -0.0008 0.6701
vn 0.5687 0.4764 0.6706
vn 0.3712 0.6421 0.6708
vn 0.1289 0.7303 0.6709
vn -0.1289 0.7303 0.6708
vn -0.3712 0.6421 0.6707
vn -0.5687 0.4764 0.6706
vn -0.6976 0.2532 0.6703
vn -0.7423 -0.0007 0.6700
vn -0.6975 -0.2546 0.6698
vn -0.5686 -0.4779 0.6696
vn -0.3711 -0.6436 0.6694
vn -0.1289 -0.7318 0.6692
vn 0.1289 -0.7318 0.6692
vn 0.3712 -0.6436 0.6693
vn 0.5687 -0.4779 0.6695
vn 0.6976 -0.2546 0.6698
# 36 vertex normals

vt 0.3400 0.0000 -0.0000
vt 0.1953 0.0000 -0.3473
vt 0.0874 0.0000 -0.6527
vt 0.0292 0.0000 -0.8794
vt 0.0278 0.0000 -1.0000
vt 0.0833 0.0000 -1.0000
vt 0.1891 0.0000 -0.8794
vt 0.3325 0.0000 -0.6527
vt 0.4960 0.0000 -0.3473
vt 0.6600 0.0000 -0.0000
vt 0.8047 0.0000 0.3473
vt 0.9126 0.0000 0.6527
vt 0.9708 0.0000 0.8794
vt 0.9722 0.0000 1.0000
vt 0.9167 0.0000 1.0000
vt 0.8611 0.0000 1.0000
vt 0.8056 0.0000 1.0000
vt 0.7500 0.0000 1.0000
vt 0.8056 1.0000 1.0000
vt 0.7500 1.0000 1.0000
vt 0.8611 1.0000 1.0000
vt 0.9167 1.0000 1.0000
vt 0.9722 1.0000 1.0000
vt -0.0278 0.0000 1.0000
vt 0.0278 0.0000 1.0000
vt 0.0278 1.0000 1.0000
vt -0.0278 1.0000 1.0000
vt 0.0833 0.0000 1.0000
vt 0.0833 1.0000 1.0000
vt 0.1389 0.0000 1.0000
vt 0.1389 1.0000 1.0000
vt 0.1944 0.0000 1.0000
vt 0.1944 1.0000 1.0000
vt 0.2500 0.0000 1.0000
vt 0.2500 1.0000 1.0000
vt 0.3056 0.0000 1.0000
vt 0.3056 1.0000 1.0000
vt 0.3611 0.0000 1.0000
vt 0.3611 1.0000 1.0000
vt 0.4167 0.0000 1.0000
vt 0.4167 1.0000 1.0000
vt 0.4722 0.0000 1.0000
vt 0.4722 1.0000 1.0000
vt 0.5278 0.0000 1.0000
vt 0.5278 1.0000 1.0000
vt 0.5833 0.0000 1.0000
vt 0.5833 1.0000 1.0000
vt 0.6389 0.0000 1.0000
vt 0.6389 1.0000 1.0000
vt 0.6944 0.0000 1.0000
vt 0.6944 1.0000 1.0000
vt 0.9708 1.0000 0.8794
vt 0.9126 1.0000 0.6527
vt 0.8047 1.0000 0.3473
vt 0.6600 1.0000 0.0000
vt 0.4960 1.0000 -0.3473
vt 0.3325 1.0000 -0.6527
vt 0.1891 1.0000 -0.8794
vt 0.0833 1.0000 -1.0000
vt 0.0278 1.0000 -1.0000
vt 0.0292 1.0000 -0.8794
vt 0.0874 1.0000 -0.6527
vt 0.1953 1.0000 -0.3473
# 63 texture coords

o Palo_Horizontal_Bandera
g Palo_Horizontal_Bandera
usemtl wire_135059008
s 1
f 37/64/37 38/65/38 39/66/39 40/67/40 41/68/41 42/69/42 43/70/43 44/71/44 45/72/45 46/73/46 47/74/47 48/75/48 49/76/49 50/77/50 51/78/51 52/79/52 53/80/53 54/81/54 
s 8
f 54/81/54 53/80/53 55/82/55 56/83/56 
f 53/80/53 52/79/52 57/84/57 55/82/55 
f 52/79/52 51/78/51 58/85/58 57/84/57 
f 51/78/51 50/77/50 59/86/59 58/85/58 
f 50/87/50 49/88/49 60/89/60 59/90/59 
f 49/88/49 48/91/48 61/92/61 60/89/60 
f 48/91/48 47/93/47 62/94/62 61/92/61 
f 47/93/47 46/95/46 63/96/63 62/94/62 
f 46/95/46 45/97/45 64/98/64 63/96/63 
f 45/97/45 44/99/44 65/100/65 64/98/64 
f 44/99/44 43/101/43 66/102/66 65/100/65 
f 43/101/43 42/103/42 67/104/67 66/102/66 
f 42/103/42 41/105/41 68/106/68 67/104/67 
f 41/105/41 40/107/40 69/108/69 68/106/68 
f 40/107/40 39/109/39 70/110/70 69/108/69 
f 39/109/39 38/111/38 71/112/71 70/110/70 
f 38/111/38 37/113/37 72/114/72 71/112/71 
f 37/113/37 54/81/54 56/83/56 72/114/72 
s 1
f 72/114/72 56/83/56 55/82/55 57/84/57 58/85/58 59/86/59 60/115/60 61/116/61 62/117/62 63/118/63 64/119/64 65/120/65 66/121/66 67/122/67 68/123/68 69/124/69 70/125/70 71/126/71 
# 20 polygons

#
# object Tapiz
#

v  0.9106 2.5551 -47.4638
v  0.9106 5.7919 -47.4638
v  0.9106 5.7919 -46.5410
v  0.9106 3.6696 -46.5410
v  0.9106 5.7919 -45.6182
v  0.9106 2.5551 -45.6182
v  0.8522 2.5551 -47.4638
v  0.8522 3.6696 -46.5410
v  0.8522 5.7919 -46.5410
v  0.8522 5.7919 -47.4638
v  0.8522 2.5551 -45.6182
v  0.8522 5.7919 -45.6182
# 12 vertices

vn 0.5447 -0.7890 -0.2843
vn 0.5774 0.5774 -0.5774
vn 0.7071 0.7071 0.0000
vn 0.9256 -0.3785 0.0000
vn 0.5774 0.5774 0.5774
vn 0.5447 -0.7890 0.2843
vn -0.5447 -0.7890 -0.2843
vn -0.9256 -0.3785 -0.0000
vn -0.7071 0.7071 -0.0000
vn -0.5774 0.5774 -0.5774
vn -0.5447 -0.7890 0.2843
vn -0.5774 0.5774 0.5774
# 12 vertex normals

vt 0.4637 0.3070 0.0000
vt 0.4568 0.9765 0.0000
vt 0.2659 0.9745 0.0000
vt 0.2704 0.5355 0.0000
vt 0.0750 0.9725 0.0000
vt 0.0820 0.3030 0.0000
vt 0.4758 0.3071 0.0000
vt 0.6643 0.5396 0.0000
vt 0.6597 0.9786 0.0000
vt 0.4689 0.9766 0.0000
vt 0.8575 0.3111 0.0000
vt 0.8506 0.9806 0.0000
vt 0.4683 0.0077 0.0000
vt 0.4804 0.0079 0.0000
vt 0.8707 0.0119 0.0000
vt 0.8696 0.3112 0.0000
vt 0.8586 0.0118 0.0000
vt 0.8627 0.9807 0.0000
vt 0.8505 0.9927 0.0000
vt 0.6596 0.9907 0.0000
vt 0.4687 0.9887 0.0000
# 21 texture coords

o Tapiz
g Tapiz
usemtl wire_135006006
s 2
f 73/127/73 74/128/74 75/129/75 76/130/76 
f 76/130/76 75/129/75 77/131/77 78/132/78 
s 4
f 79/133/79 80/134/80 81/135/81 82/136/82 
f 80/134/80 83/137/83 84/138/84 81/135/81 
s 8
f 73/127/73 76/139/76 80/140/80 79/133/79 
f 76/141/76 78/142/78 83/137/83 80/143/80 
s 16
f 78/142/78 77/144/77 84/138/84 83/137/83 
s 32
f 77/145/77 75/146/75 81/135/81 84/138/84 
f 75/146/75 74/147/74 82/136/82 81/135/81 
s 64
f 74/128/74 73/127/73 79/133/79 82/136/82 
# 10 polygons

