# 3ds Max Wavefront OBJ Exporter v0.97b - (c)2007 guruware
# File Created: 15.03.2020 18:58:51

mtllib Carreta.mtl

#
# object Carreta
#

v  -0.7699 0.3671 -48.8258
v  -0.7699 0.3671 -50.6140
v  2.0889 1.2093 -50.6140
v  2.0889 1.2093 -48.8258
v  1.7520 2.3528 -48.8258
v  -1.1068 1.5107 -48.8258
v  -1.1068 1.5107 -48.9979
v  -0.8544 0.6541 -48.9979
v  -0.8544 0.6541 -50.4284
v  -1.1068 1.5107 -50.4284
v  -1.1068 1.5107 -50.6140
v  1.7520 2.3528 -50.6140
v  1.4579 2.2662 -50.4284
v  1.4579 2.2662 -48.9979
v  1.7102 1.4096 -50.4284
v  1.7102 1.4096 -48.9979
v  -0.6883 0.4206 -49.1446
v  -0.7514 0.6350 -49.1446
v  -0.7514 0.6350 -48.8466
v  -0.6883 0.4206 -48.8466
v  -2.3062 -0.0560 -49.1446
v  -2.3062 -0.0560 -48.8466
v  -2.3694 0.1584 -48.8466
v  -2.3694 0.1584 -49.1446
v  -0.6857 0.4120 -50.5865
v  -0.7489 0.6264 -50.5865
v  -0.7489 0.6264 -50.2885
v  -0.6857 0.4120 -50.2885
v  -2.3037 -0.0646 -50.5865
v  -2.3037 -0.0646 -50.2885
v  -2.3669 0.1498 -50.2885
v  -2.3669 0.1498 -50.5865
v  1.6080 0.4633 -48.8265
v  1.4527 0.1944 -48.8265
v  1.2149 -0.0052 -48.8265
v  0.9231 -0.1114 -48.8265
v  0.6126 -0.1114 -48.8265
v  0.3208 -0.0052 -48.8265
v  0.0829 0.1944 -48.8265
v  -0.0723 0.4633 -48.8265
v  -0.1263 0.7691 -48.8265
v  -0.0723 1.0749 -48.8265
v  0.0829 1.3438 -48.8265
v  0.3208 1.5434 -48.8265
v  0.6126 1.6496 -48.8265
v  0.9231 1.6496 -48.8265
v  1.2149 1.5434 -48.8265
v  1.4527 1.3438 -48.8265
v  1.6080 1.0749 -48.8265
v  1.6619 0.7691 -48.8265
v  1.6080 1.0749 -48.5431
v  1.6619 0.7691 -48.5431
v  1.4527 1.3438 -48.5431
v  1.2149 1.5434 -48.5431
v  0.9231 1.6496 -48.5431
v  0.6126 1.6496 -48.5431
v  0.3208 1.5434 -48.5431
v  0.0829 1.3438 -48.5431
v  -0.0723 1.0749 -48.5431
v  -0.1263 0.7691 -48.5431
v  -0.0723 0.4633 -48.5431
v  0.0829 0.1944 -48.5431
v  0.3208 -0.0052 -48.5431
v  0.6126 -0.1114 -48.5431
v  0.9231 -0.1114 -48.5431
v  1.2149 -0.0052 -48.5431
v  1.4527 0.1944 -48.5431
v  1.6080 0.4633 -48.5431
v  1.6080 0.4633 -50.8758
v  1.4527 0.1944 -50.8758
v  1.2149 -0.0052 -50.8758
v  0.9231 -0.1114 -50.8758
v  0.6126 -0.1114 -50.8758
v  0.3208 -0.0052 -50.8758
v  0.0829 0.1944 -50.8758
v  -0.0723 0.4633 -50.8758
v  -0.1263 0.7691 -50.8758
v  -0.0723 1.0749 -50.8758
v  0.0829 1.3438 -50.8758
v  0.3208 1.5434 -50.8758
v  0.6126 1.6496 -50.8758
v  0.9231 1.6496 -50.8758
v  1.2149 1.5434 -50.8758
v  1.4527 1.3438 -50.8758
v  1.6080 1.0749 -50.8758
v  1.6619 0.7691 -50.8758
v  1.6080 1.0749 -50.5924
v  1.6619 0.7691 -50.5924
v  1.4527 1.3438 -50.5924
v  1.2149 1.5434 -50.5924
v  0.9231 1.6496 -50.5924
v  0.6126 1.6496 -50.5924
v  0.3208 1.5434 -50.5924
v  0.0829 1.3438 -50.5924
v  -0.0723 1.0749 -50.5924
v  -0.1263 0.7691 -50.5924
v  -0.0723 0.4633 -50.5924
v  0.0829 0.1944 -50.5924
v  0.3208 -0.0052 -50.5924
v  0.6126 -0.1114 -50.5924
v  0.9231 -0.1114 -50.5924
v  1.2149 -0.0052 -50.5924
v  1.4527 0.1944 -50.5924
v  1.6080 0.4633 -50.5924
# 104 vertices

vn -0.3907 -0.7170 0.5774
vn -0.3907 -0.7170 -0.5774
vn 0.7170 -0.3907 -0.5774
vn 0.7170 -0.3907 0.5774
vn 0.3907 0.7170 0.5774
vn -0.7170 0.3907 0.5774
vn -0.7170 0.3907 -0.5774
vn 0.3907 0.7170 -0.5774
vn 0.6976 -0.2539 -0.6700
vn 0.5687 -0.4772 -0.6700
vn 0.3712 -0.6429 -0.6700
vn 0.1289 -0.7310 -0.6701
vn -0.1289 -0.7310 -0.6701
vn -0.3712 -0.6429 -0.6700
vn -0.5687 -0.4772 -0.6700
vn -0.6976 -0.2539 -0.6700
vn -0.7423 0.0000 -0.6700
vn -0.6976 0.2539 -0.6700
vn -0.5687 0.4772 -0.6700
vn -0.3712 0.6429 -0.6700
vn -0.1289 0.7310 -0.6701
vn 0.1289 0.7310 -0.6701
vn 0.3712 0.6429 -0.6700
vn 0.5687 0.4772 -0.6700
vn 0.6976 0.2539 -0.6700
vn 0.7423 -0.0000 -0.6700
vn 0.6976 0.2539 0.6700
vn 0.7423 -0.0000 0.6700
vn 0.5687 0.4772 0.6700
vn 0.3712 0.6429 0.6700
vn 0.1289 0.7310 0.6701
vn -0.1289 0.7310 0.6701
vn -0.3712 0.6429 0.6700
vn -0.5687 0.4772 0.6700
vn -0.6976 0.2539 0.6700
vn -0.7423 0.0000 0.6700
vn -0.6976 -0.2539 0.6700
vn -0.5687 -0.4772 0.6700
vn -0.3712 -0.6429 0.6700
vn -0.1289 -0.7310 0.6701
vn 0.1289 -0.7310 0.6701
vn 0.3712 -0.6429 0.6700
vn 0.5687 -0.4772 0.6700
vn 0.6976 -0.2539 0.6700
# 44 vertex normals

vt 0.2996 0.5280 0.0000
vt 0.4681 0.6976 0.0000
vt 0.1853 0.9784 0.0000
vt 0.0168 0.8088 0.0000
vt 0.3003 0.3025 0.0000
vt 0.5831 0.0217 0.0000
vt 0.6954 0.1348 0.0000
vt 0.4127 0.4156 0.0000
vt 0.4289 0.4320 0.0000
vt 0.3442 0.5161 0.0000
vt 0.4790 0.6518 0.0000
vt 0.5637 0.5677 0.0000
vt 0.5812 0.5853 0.0000
vt 0.9763 0.4175 0.0000
vt 0.6935 0.6984 0.0000
vt 0.8639 0.3044 0.0000
vt 0.8085 0.0225 0.0000
vt 0.9770 0.1921 0.0000
vt 0.8174 0.3157 0.0000
vt 0.6825 0.1800 0.0000
vt 0.2365 0.3540 0.0000
vt 0.0982 0.3530 0.0000
vt 0.0988 0.2667 0.0000
vt 0.2371 0.2677 0.0000
vt 0.2389 0.0093 0.0000
vt 0.3252 0.0099 0.0000
vt 0.3234 0.2683 0.0000
vt 0.1006 0.0083 0.0000
vt 0.0125 0.2661 0.0000
vt 0.0143 0.0077 0.0000
vt 0.9697 0.6194 0.0000
vt 0.9518 0.6585 0.0000
vt 0.8998 0.6346 0.0000
vt 0.9177 0.5956 0.0000
vt 0.7989 0.9921 0.0000
vt 0.7468 0.9682 0.0000
vt 0.7647 0.9292 0.0000
vt 0.8168 0.9530 0.0000
vt 0.8087 0.5928 0.0000
vt 0.8607 0.6167 0.0000
vt 0.7257 0.9113 0.0000
vt 0.6736 0.8874 0.0000
vt 0.9909 0.6764 0.0000
vt 0.8558 0.9709 0.0000
vt 0.9697 0.6190 0.0000
vt 0.9518 0.6580 0.0000
vt 0.8997 0.6341 0.0000
vt 0.9176 0.5951 0.0000
vt 0.7988 0.9918 0.0000
vt 0.7467 0.9679 0.0000
vt 0.7646 0.9289 0.0000
vt 0.8167 0.9528 0.0000
vt 0.8086 0.5924 0.0000
vt 0.8607 0.6162 0.0000
vt 0.7255 0.9110 0.0000
vt 0.6735 0.8871 0.0000
vt 0.9909 0.6759 0.0000
vt 0.8557 0.9707 0.0000
vt 0.6599 0.8958 0.0000
vt 0.6353 0.9383 0.0000
vt 0.5978 0.9698 0.0000
vt 0.5517 0.9866 0.0000
vt 0.5026 0.9866 0.0000
vt 0.4565 0.9698 0.0000
vt 0.4189 0.9383 0.0000
vt 0.3944 0.8958 0.0000
vt 0.3859 0.8475 0.0000
vt 0.3944 0.7992 0.0000
vt 0.4189 0.7567 0.0000
vt 0.4565 0.7252 0.0000
vt 0.5026 0.7084 0.0000
vt 0.5517 0.7084 0.0000
vt 0.5978 0.7252 0.0000
vt 0.6353 0.7567 0.0000
vt 0.6599 0.7992 0.0000
vt 0.6684 0.8475 0.0000
vt 0.2552 0.4374 0.0000
vt 0.2392 0.4609 0.0000
vt 0.2178 0.4462 0.0000
vt 0.2339 0.4228 0.0000
vt 0.2231 0.4843 0.0000
vt 0.2017 0.4696 0.0000
vt 0.2071 0.5077 0.0000
vt 0.1857 0.4931 0.0000
vt 0.1910 0.5311 0.0000
vt 0.1696 0.5165 0.0000
vt 0.1749 0.5546 0.0000
vt 0.1536 0.5399 0.0000
vt 0.1589 0.5780 0.0000
vt 0.1375 0.5633 0.0000
vt 0.1428 0.6014 0.0000
vt 0.1214 0.5868 0.0000
vt 0.1268 0.6249 0.0000
vt 0.1054 0.6102 0.0000
vt 0.1107 0.6483 0.0000
vt 0.0893 0.6336 0.0000
vt 0.0946 0.6717 0.0000
vt 0.0732 0.6571 0.0000
vt 0.0786 0.6952 0.0000
vt 0.0572 0.6805 0.0000
vt 0.0625 0.7186 0.0000
vt 0.0411 0.7039 0.0000
vt 0.0464 0.7420 0.0000
vt 0.0251 0.7274 0.0000
vt 0.0304 0.7655 0.0000
vt 0.0090 0.7508 0.0000
vt 0.3195 0.3437 0.0000
vt 0.3034 0.3671 0.0000
vt 0.2820 0.3525 0.0000
vt 0.2981 0.3290 0.0000
vt 0.2874 0.3906 0.0000
vt 0.2660 0.3759 0.0000
vt 0.2713 0.4140 0.0000
vt 0.2499 0.3993 0.0000
vt 0.6597 0.7992 0.0000
vt 0.6682 0.8475 0.0000
vt 0.6597 0.8958 0.0000
vt 0.6352 0.9383 0.0000
vt 0.5976 0.9698 0.0000
vt 0.5515 0.9866 0.0000
vt 0.5025 0.9866 0.0000
vt 0.4564 0.9698 0.0000
vt 0.4188 0.9383 0.0000
vt 0.3943 0.8958 0.0000
vt 0.3858 0.8475 0.0000
vt 0.3943 0.7992 0.0000
vt 0.4188 0.7567 0.0000
vt 0.4564 0.7252 0.0000
vt 0.5025 0.7084 0.0000
vt 0.5515 0.7084 0.0000
vt 0.5976 0.7252 0.0000
vt 0.6352 0.7567 0.0000
vt 0.6596 0.8953 0.0000
vt 0.6351 0.9378 0.0000
vt 0.5975 0.9693 0.0000
vt 0.5514 0.9861 0.0000
vt 0.5024 0.9861 0.0000
vt 0.4563 0.9693 0.0000
vt 0.4187 0.9378 0.0000
vt 0.3942 0.8953 0.0000
vt 0.3857 0.8470 0.0000
vt 0.3942 0.7987 0.0000
vt 0.4187 0.7562 0.0000
vt 0.4563 0.7247 0.0000
vt 0.5024 0.7079 0.0000
vt 0.5514 0.7079 0.0000
vt 0.5975 0.7247 0.0000
vt 0.6351 0.7562 0.0000
vt 0.6596 0.7987 0.0000
vt 0.6681 0.8470 0.0000
vt 0.6597 0.7988 0.0000
vt 0.6683 0.8471 0.0000
vt 0.6597 0.8954 0.0000
vt 0.6352 0.9379 0.0000
vt 0.5976 0.9694 0.0000
vt 0.5516 0.9862 0.0000
vt 0.5025 0.9862 0.0000
vt 0.4564 0.9694 0.0000
vt 0.4188 0.9379 0.0000
vt 0.3943 0.8954 0.0000
vt 0.3858 0.8471 0.0000
vt 0.3943 0.7988 0.0000
vt 0.4188 0.7563 0.0000
vt 0.4564 0.7248 0.0000
vt 0.5025 0.7080 0.0000
vt 0.5516 0.7080 0.0000
vt 0.5976 0.7248 0.0000
vt 0.6352 0.7563 0.0000
# 168 texture coords

o Carreta
g Carreta
usemtl wire_047024006
s 2
f 1/1/1 2/2/2 3/3/3 4/4/4 
s 8
f 1/5/1 4/6/4 5/7/5 6/8/6 
s 64
f 2/2/2 1/1/1 6/8/6 7/9/7 8/10/8 9/11/5 10/12/6 11/13/7 
s 32
f 3/14/3 2/15/2 11/13/7 12/16/8 
s 16
f 4/17/4 3/18/3 12/16/8 5/7/5 
s 4
f 6/8/6 5/7/5 12/16/8 11/13/7 10/12/6 13/19/1 14/20/2 7/9/7 
s 128
f 14/21/2 13/22/1 15/23/6 16/24/7 
s 512
f 8/25/8 7/26/7 14/27/2 16/24/7 
s 256
f 9/28/5 8/25/8 16/24/7 15/23/6 
s 2048
f 13/29/1 10/30/6 9/28/5 15/23/6 
s 2
f 17/31/3 18/32/8 19/33/5 20/34/4 
s 4
f 21/35/2 22/36/1 23/37/6 24/38/7 
s 8
f 17/39/3 20/40/4 22/41/1 21/42/2 
s 16
f 20/40/4 19/33/5 23/37/6 22/41/1 
s 32
f 19/33/5 18/32/8 24/38/7 23/37/6 
s 64
f 18/32/8 17/43/3 21/44/2 24/38/7 
s 2
f 25/45/3 26/46/8 27/47/5 28/48/4 
s 4
f 29/49/2 30/50/1 31/51/6 32/52/7 
s 8
f 25/53/3 28/54/4 30/55/1 29/56/2 
s 16
f 28/54/4 27/47/5 31/51/6 30/55/1 
s 32
f 27/47/5 26/46/8 32/52/7 31/51/6 
s 64
f 26/46/8 25/57/3 29/58/2 32/52/7 
s 1
f 33/59/9 34/60/10 35/61/11 36/62/12 37/63/13 38/64/14 39/65/15 40/66/16 41/67/17 42/68/18 43/69/19 44/70/20 45/71/21 46/72/22 47/73/23 48/74/24 49/75/25 50/76/26 
s 8
f 50/77/26 49/78/25 51/79/27 52/80/28 
f 49/78/25 48/81/24 53/82/29 51/79/27 
f 48/81/24 47/83/23 54/84/30 53/82/29 
f 47/83/23 46/85/22 55/86/31 54/84/30 
f 46/85/22 45/87/21 56/88/32 55/86/31 
f 45/87/21 44/89/20 57/90/33 56/88/32 
f 44/89/20 43/91/19 58/92/34 57/90/33 
f 43/91/19 42/93/18 59/94/35 58/92/34 
f 42/93/18 41/95/17 60/96/36 59/94/35 
f 41/95/17 40/97/16 61/98/37 60/96/36 
f 40/97/16 39/99/15 62/100/38 61/98/37 
f 39/99/15 38/101/14 63/102/39 62/100/38 
f 38/101/14 37/103/13 64/104/40 63/102/39 
f 37/103/13 36/105/12 65/106/41 64/104/40 
f 36/107/12 35/108/11 66/109/42 65/110/41 
f 35/108/11 34/111/10 67/112/43 66/109/42 
f 34/111/10 33/113/9 68/114/44 67/112/43 
f 33/113/9 50/77/26 52/80/28 68/114/44 
s 1
f 68/115/44 52/116/28 51/117/27 53/118/29 54/119/30 55/120/31 56/121/32 57/122/33 58/123/34 59/124/35 60/125/36 61/126/37 62/127/38 63/128/39 64/129/40 65/130/41 66/131/42 67/132/43 
f 69/133/9 70/134/10 71/135/11 72/136/12 73/137/13 74/138/14 75/139/15 76/140/16 77/141/17 78/142/18 79/143/19 80/144/20 81/145/21 82/146/22 83/147/23 84/148/24 85/149/25 86/150/26 
s 8
f 86/77/26 85/78/25 87/79/27 88/80/28 
f 85/78/25 84/81/24 89/82/29 87/79/27 
f 84/81/24 83/83/23 90/84/30 89/82/29 
f 83/83/23 82/85/22 91/86/31 90/84/30 
f 82/85/22 81/87/21 92/88/32 91/86/31 
f 81/87/21 80/89/20 93/90/33 92/88/32 
f 80/89/20 79/91/19 94/92/34 93/90/33 
f 79/91/19 78/93/18 95/94/35 94/92/34 
f 78/93/18 77/95/17 96/96/36 95/94/35 
f 77/95/17 76/97/16 97/98/37 96/96/36 
f 76/97/16 75/99/15 98/100/38 97/98/37 
f 75/99/15 74/101/14 99/102/39 98/100/38 
f 74/101/14 73/103/13 100/104/40 99/102/39 
f 73/103/13 72/105/12 101/106/41 100/104/40 
f 72/107/12 71/108/11 102/109/42 101/110/41 
f 71/108/11 70/111/10 103/112/43 102/109/42 
f 70/111/10 69/113/9 104/114/44 103/112/43 
f 69/113/9 86/77/26 88/80/28 104/114/44 
s 1
f 104/151/44 88/152/28 87/153/27 89/154/29 90/155/30 91/156/31 92/157/32 93/158/33 94/159/34 95/160/35 96/161/36 97/162/37 98/163/38 99/164/39 100/165/40 101/166/41 102/167/42 103/168/43 
# 62 polygons

