# 3ds Max Wavefront OBJ Exporter v0.97b - (c)2007 guruware
# File Created: 15.02.2020 11:56:17

mtllib Columna.mtl

#
# object Box001
#

v  -8.7439 0.9144 3.4028
v  -8.7439 0.9144 3.0091
v  -8.3502 0.9144 3.0091
v  -8.3502 0.9144 3.4028
v  -7.9564 0.9144 3.0091
v  -7.9564 0.9144 3.4028
v  -7.5627 0.9144 3.0091
v  -7.5627 0.9144 3.4028
v  -7.1690 0.9144 3.0091
v  -7.1690 0.9144 3.4028
v  -6.7753 0.9144 3.0091
v  -6.7753 0.9144 3.4028
v  -8.7439 0.9144 2.6154
v  -8.3502 0.9144 2.6154
v  -7.9564 0.9144 2.6154
v  -7.5627 0.9144 2.6154
v  -7.1690 0.9144 2.6154
v  -6.7753 0.9144 2.6154
v  -8.7439 0.9144 2.2217
v  -8.3502 0.9144 2.2217
v  -7.9564 0.9144 2.2217
v  -7.5627 0.9144 2.2217
v  -7.1690 0.9144 2.2217
v  -6.7753 0.9144 2.2217
v  -8.7439 0.9144 1.8280
v  -8.3502 0.9144 1.8280
v  -7.9564 0.9144 1.8280
v  -7.5627 0.9144 1.8280
v  -7.1690 0.9144 1.8280
v  -6.7753 0.9144 1.8280
v  -8.7439 0.9144 1.4343
v  -8.3502 0.9144 1.4343
v  -7.9564 0.9144 1.4343
v  -7.5627 0.9144 1.4343
v  -7.1690 0.9144 1.4343
v  -6.7753 0.9144 1.4343
v  -8.7439 8.7884 3.4028
v  -8.3502 8.7939 3.4028
v  -8.3502 8.7939 3.0091
v  -8.7439 8.7884 3.0091
v  -7.9564 8.7939 3.4028
v  -7.9564 8.7939 3.0091
v  -7.5627 8.7939 3.4028
v  -7.5627 8.7939 3.0091
v  -7.1690 8.7921 3.4028
v  -7.1690 8.7921 3.0091
v  -6.7753 8.7921 3.4028
v  -6.7753 8.7921 3.0091
v  -8.3502 8.7884 2.6154
v  -8.7439 8.7884 2.6154
v  -7.9564 8.7884 2.6154
v  -7.5627 8.7884 2.6154
v  -7.1690 8.7884 2.6154
v  -6.7753 8.7884 2.6154
v  -8.3502 8.7884 2.2217
v  -8.7439 8.7884 2.2217
v  -7.9564 8.7884 2.2217
v  -7.5627 8.7884 2.2217
v  -7.1690 8.7884 2.2217
v  -6.7753 8.7884 2.2217
v  -8.3502 8.7884 1.8280
v  -8.7439 8.7884 1.8280
v  -7.9564 8.7884 1.8280
v  -7.5627 8.7884 1.8280
v  -7.1690 8.7884 1.8280
v  -6.7753 8.7884 1.8280
v  -8.3502 8.7884 1.4343
v  -8.7439 8.7884 1.4343
v  -7.9564 8.7884 1.4343
v  -7.5627 8.7884 1.4343
v  -7.1690 8.7884 1.4343
v  -6.7753 8.7884 1.4343
v  -8.3502 2.0456 3.4028
v  -8.7439 2.0456 3.4028
v  -8.3502 0.9144 3.5351
v  -7.9564 0.9144 3.5351
v  -7.9564 2.0456 3.5351
v  -8.3502 2.0456 3.5351
v  -7.5627 2.0456 3.4028
v  -7.9564 2.0456 3.4028
v  -7.5627 0.9144 3.5351
v  -7.1690 0.9144 3.5351
v  -7.1690 2.0456 3.5351
v  -7.5627 2.0456 3.5351
v  -6.7753 2.0456 3.4028
v  -7.1690 2.0456 3.4028
v  -8.3502 7.7878 3.4028
v  -8.7439 7.7878 3.4028
v  -7.9564 7.7878 3.5351
v  -8.3502 7.7878 3.5351
v  -7.5627 7.7878 3.4028
v  -7.9564 7.7878 3.4028
v  -7.1690 7.7878 3.5351
v  -7.5627 7.7878 3.5351
v  -6.7753 7.7878 3.4028
v  -7.1690 7.7878 3.4028
v  -7.9564 8.7939 3.5351
v  -8.3502 8.7939 3.5351
v  -7.1690 8.7921 3.5351
v  -7.5627 8.7939 3.5351
v  -6.7753 2.0456 3.0091
v  -6.6430 0.9144 3.0091
v  -6.6430 0.9144 2.6154
v  -6.6430 2.0456 2.6154
v  -6.6430 2.0456 3.0091
v  -6.7753 2.0456 2.2217
v  -6.7753 2.0456 2.6154
v  -6.6430 0.9144 2.2217
v  -6.6430 0.9144 1.8280
v  -6.6430 2.0456 1.8280
v  -6.6430 2.0456 2.2217
v  -6.7753 2.0456 1.4343
v  -6.7753 2.0456 1.8280
v  -6.7753 7.7878 3.0091
v  -6.6430 7.7878 2.6154
v  -6.6430 7.7878 3.0091
v  -6.7753 7.7878 2.2217
v  -6.7753 7.7878 2.6154
v  -6.6430 7.7878 1.8280
v  -6.6430 7.7878 2.2217
v  -6.7753 7.7878 1.4343
v  -6.7753 7.7878 1.8280
v  -6.6430 8.7884 2.6154
v  -6.6430 8.7921 3.0091
v  -6.6430 8.7884 1.8280
v  -6.6430 8.7884 2.2217
v  -7.1690 2.0456 1.4343
v  -7.1690 0.9144 1.3020
v  -7.5627 0.9144 1.3020
v  -7.5627 2.0456 1.3020
v  -7.1690 2.0456 1.3020
v  -7.9564 2.0456 1.4343
v  -7.5627 2.0456 1.4343
v  -7.9564 0.9144 1.3020
v  -8.3502 0.9144 1.3020
v  -8.3502 2.0456 1.3020
v  -7.9564 2.0456 1.3020
v  -8.7439 2.0456 1.4343
v  -8.3502 2.0456 1.4343
v  -7.1690 7.7878 1.4343
v  -7.5627 7.7878 1.3020
v  -7.1690 7.7878 1.3020
v  -7.9564 7.7878 1.4343
v  -7.5627 7.7878 1.4343
v  -8.3502 7.7878 1.3020
v  -7.9564 7.7878 1.3020
v  -8.7439 7.7878 1.4343
v  -8.3502 7.7878 1.4343
v  -7.5627 8.7884 1.3020
v  -7.1690 8.7884 1.3020
v  -8.3502 8.7884 1.3020
v  -7.9564 8.7884 1.3020
v  -8.7439 2.0456 1.8280
v  -8.8762 0.9144 1.8280
v  -8.8762 0.9144 2.2217
v  -8.8762 2.0456 2.2217
v  -8.8762 2.0456 1.8280
v  -8.7439 2.0456 2.6154
v  -8.7439 2.0456 2.2217
v  -8.8762 0.9144 2.6154
v  -8.8762 0.9144 3.0091
v  -8.8762 2.0456 3.0091
v  -8.8762 2.0456 2.6154
v  -8.7439 2.0456 3.0091
v  -8.7439 7.7878 1.8280
v  -8.8762 7.7878 2.2217
v  -8.8762 7.7878 1.8280
v  -8.7439 7.7878 2.6154
v  -8.7439 7.7878 2.2217
v  -8.8762 7.7878 3.0091
v  -8.8762 7.7878 2.6154
v  -8.7439 7.7878 3.0091
v  -8.8762 8.7884 2.2217
v  -8.8762 8.7884 1.8280
v  -8.8762 8.7884 3.0091
v  -8.8762 8.7884 2.6154
# 176 vertices

vn -0.5774 -0.5774 0.5774
vn -0.3015 -0.9045 0.3015
vn 0.0000 -1.0000 -0.0000
vn 0.3015 -0.9045 0.3015
vn 0.5774 -0.5774 0.5774
vn -0.3015 -0.9045 -0.3015
vn 0.3015 -0.9045 -0.3015
vn -0.5774 -0.5774 -0.5774
vn 0.5774 -0.5774 -0.5774
vn -0.5810 0.5730 0.5781
vn -0.3056 0.9041 0.2987
vn -0.0069 1.0000 -0.0069
vn -0.3091 0.9022 0.3008
vn 0.3015 0.9045 0.3015
vn 0.0000 1.0000 -0.0069
vn -0.2991 0.9052 0.3018
vn 0.0022 1.0000 -0.0069
vn 0.3040 0.9038 0.3013
vn 0.0022 1.0000 -0.0047
vn 0.5774 0.5774 0.5774
vn 0.3021 0.9060 0.2964
vn -0.3015 0.9045 -0.3015
vn 0.0000 1.0000 -0.0047
vn 0.3010 0.9029 -0.3067
vn 0.0000 1.0000 -0.0000
vn -0.3015 0.9045 0.3015
vn 0.3015 0.9045 -0.3015
vn -0.5774 0.5774 -0.5774
vn 0.5774 0.5774 -0.5774
vn -0.7071 0.0000 0.7071
vn 0.7071 0.0000 0.7071
vn 0.7071 -0.0000 0.7071
vn -0.5774 0.5774 0.5774
vn 0.5786 0.5759 0.5776
vn -0.5762 0.5787 0.5772
vn 0.7071 0.0000 -0.7071
vn 0.7071 -0.0000 -0.7071
vn 0.5779 0.5743 -0.5799
vn 0.5769 0.5802 0.5749
vn -0.7071 -0.0000 -0.7071
vn -0.7071 0.0000 -0.7071
vn -0.7071 -0.0000 0.7071
# 42 vertex normals

vt 1.0000 0.0000 0.0000
vt 1.0000 0.2000 0.0000
vt 0.8000 0.2000 0.0000
vt 0.8000 0.0000 0.0000
vt 0.6000 0.2000 0.0000
vt 0.6000 0.0000 0.0000
vt 0.4000 0.2000 0.0000
vt 0.4000 0.0000 0.0000
vt 0.2000 0.2000 0.0000
vt 0.2000 0.0000 0.0000
vt 0.0000 0.2000 0.0000
vt 0.0000 0.0000 0.0000
vt 1.0000 0.4000 0.0000
vt 0.8000 0.4000 0.0000
vt 0.6000 0.4000 0.0000
vt 0.4000 0.4000 0.0000
vt 0.2000 0.4000 0.0000
vt 0.0000 0.4000 0.0000
vt 1.0000 0.6000 0.0000
vt 0.8000 0.6000 0.0000
vt 0.6000 0.6000 0.0000
vt 0.4000 0.6000 0.0000
vt 0.2000 0.6000 0.0000
vt 0.0000 0.6000 0.0000
vt 1.0000 0.8000 0.0000
vt 0.8000 0.8000 0.0000
vt 0.6000 0.8000 0.0000
vt 0.4000 0.8000 0.0000
vt 0.2000 0.8000 0.0000
vt 0.0000 0.8000 0.0000
vt 1.0000 1.0000 0.0000
vt 0.8000 1.0000 0.0000
vt 0.6000 1.0000 0.0000
vt 0.4000 1.0000 0.0000
vt 0.2000 1.0000 0.0000
vt 0.0000 1.0000 0.0000
vt 0.2000 0.3333 0.0000
vt 0.0000 0.3333 0.0000
vt 0.4000 0.3333 0.0000
vt 0.6000 0.3333 0.0000
vt 0.8000 0.3333 0.0000
vt 1.0000 0.3333 0.0000
vt 0.2000 0.6667 0.0000
vt 0.0000 0.6667 0.0000
vt 0.4000 0.6667 0.0000
vt 0.6000 0.6667 0.0000
vt 0.8000 0.6667 0.0000
vt 1.0000 0.6667 0.0000
# 48 texture coords

o Box001
g Box001
usemtl wire_115115115
s 2
f 1/1/1 2/2/2 3/3/3 4/4/2 
f 4/4/2 3/3/3 5/5/3 6/6/4 
f 6/6/4 5/5/3 7/7/3 8/8/2 
f 8/8/2 7/7/3 9/9/3 10/10/4 
f 10/10/4 9/9/3 11/11/4 12/12/5 
f 2/2/2 13/13/6 14/14/3 3/3/3 
f 3/3/3 14/14/3 15/15/3 5/5/3 
f 5/5/3 15/15/3 16/16/3 7/7/3 
f 7/7/3 16/16/3 17/17/3 9/9/3 
f 9/9/3 17/17/3 18/18/7 11/11/4 
f 13/13/6 19/19/2 20/20/3 14/14/3 
f 14/14/3 20/20/3 21/21/3 15/15/3 
f 15/15/3 21/21/3 22/22/3 16/16/3 
f 16/16/3 22/22/3 23/23/3 17/17/3 
f 17/17/3 23/23/3 24/24/4 18/18/7 
f 19/19/2 25/25/6 26/26/3 20/20/3 
f 20/20/3 26/26/3 27/27/3 21/21/3 
f 21/21/3 27/27/3 28/28/3 22/22/3 
f 22/22/3 28/28/3 29/29/3 23/23/3 
f 23/23/3 29/29/3 30/30/7 24/24/4 
f 25/25/6 31/31/8 32/32/6 26/26/3 
f 26/26/3 32/32/6 33/33/7 27/27/3 
f 27/27/3 33/33/7 34/34/6 28/28/3 
f 28/28/3 34/34/6 35/35/7 29/29/3 
f 29/29/3 35/35/7 36/36/9 30/30/7 
s 4
f 37/12/10 38/10/11 39/9/12 40/11/13 
f 38/10/11 41/8/14 42/7/15 39/9/12 
f 41/8/14 43/6/16 44/5/17 42/7/15 
f 43/6/16 45/4/18 46/3/19 44/5/17 
f 45/4/18 47/1/20 48/2/21 46/3/19 
f 40/11/13 39/9/12 49/17/15 50/18/22 
f 39/9/12 42/7/15 51/16/15 49/17/15 
f 42/7/15 44/5/17 52/15/15 51/16/15 
f 44/5/17 46/3/19 53/14/23 52/15/15 
f 46/3/19 48/2/21 54/13/24 53/14/23 
f 50/18/22 49/17/15 55/23/25 56/24/26 
f 49/17/15 51/16/15 57/22/25 55/23/25 
f 51/16/15 52/15/15 58/21/25 57/22/25 
f 52/15/15 53/14/23 59/20/25 58/21/25 
f 53/14/23 54/13/24 60/19/14 59/20/25 
f 56/24/26 55/23/25 61/29/25 62/30/22 
f 55/23/25 57/22/25 63/28/25 61/29/25 
f 57/22/25 58/21/25 64/27/25 63/28/25 
f 58/21/25 59/20/25 65/26/25 64/27/25 
f 59/20/25 60/19/14 66/25/27 65/26/25 
f 62/30/22 61/29/25 67/35/22 68/36/28 
f 61/29/25 63/28/25 69/34/27 67/35/22 
f 63/28/25 64/27/25 70/33/22 69/34/27 
f 64/27/25 65/26/25 71/32/27 70/33/22 
f 65/26/25 66/25/27 72/31/29 71/32/27 
s 8
f 1/12/1 4/10/2 73/37/30 74/38/30 
f 75/10/1 76/8/5 77/39/31 78/37/30 
f 6/8/4 8/6/2 79/40/30 80/39/31 
f 81/6/1 82/4/5 83/41/31 84/40/30 
f 10/4/4 12/1/5 85/42/32 86/41/31 
f 74/38/30 73/37/30 87/43/30 88/44/30 
f 78/37/30 77/39/31 89/45/31 90/43/30 
f 80/39/31 79/40/30 91/46/30 92/45/31 
f 84/40/30 83/41/31 93/47/31 94/46/30 
f 86/41/31 85/42/32 95/48/31 96/47/31 
f 88/44/30 87/43/30 38/35/11 37/36/10 
f 90/43/30 89/45/31 97/34/20 98/35/33 
f 92/45/31 91/46/30 43/33/16 41/34/14 
f 94/46/30 93/47/31 99/32/34 100/33/35 
f 96/47/31 95/48/31 47/31/20 45/32/18 
s 16
f 12/12/5 11/10/4 101/37/32 85/38/32 
f 102/10/5 103/8/9 104/39/36 105/37/31 
f 18/8/7 24/6/4 106/40/32 107/39/37 
f 108/6/5 109/4/9 110/41/36 111/40/31 
f 30/4/7 36/1/9 112/42/37 113/41/37 
f 85/38/32 101/37/32 114/43/31 95/44/31 
f 105/37/31 104/39/36 115/45/36 116/43/31 
f 107/39/37 106/40/32 117/46/31 118/45/36 
f 111/40/31 110/41/36 119/47/36 120/46/31 
f 113/41/37 112/42/37 121/48/36 122/47/36 
f 95/44/31 114/43/31 48/35/21 47/36/20 
f 116/43/31 115/45/36 123/34/38 124/35/39 
f 118/45/36 117/46/31 60/33/14 54/34/24 
f 120/46/31 119/47/36 125/32/29 126/33/20 
f 122/47/36 121/48/36 72/31/29 66/32/27 
s 32
f 36/12/9 35/10/7 127/37/37 112/38/37 
f 128/10/9 129/8/8 130/39/40 131/37/37 
f 34/8/6 33/6/7 132/40/37 133/39/41 
f 134/6/9 135/4/8 136/41/40 137/40/37 
f 32/4/6 31/1/8 138/42/40 139/41/41 
f 112/38/37 127/37/37 140/43/36 121/44/36 
f 131/37/37 130/39/40 141/45/41 142/43/36 
f 133/39/41 132/40/37 143/46/36 144/45/41 
f 137/40/37 136/41/40 145/47/41 146/46/36 
f 139/41/41 138/42/40 147/48/41 148/47/41 
f 121/44/36 140/43/36 71/35/27 72/36/29 
f 142/43/36 141/45/41 149/34/28 150/35/29 
f 144/45/41 143/46/36 69/33/27 70/34/22 
f 146/46/36 145/47/41 151/32/28 152/33/29 
f 148/47/41 147/48/41 68/31/28 67/32/22 
s 64
f 31/12/8 25/10/6 153/37/40 138/38/40 
f 154/10/8 155/8/1 156/39/30 157/37/40 
f 19/8/2 13/6/6 158/40/40 159/39/30 
f 160/6/8 161/4/1 162/41/30 163/40/40 
f 2/4/2 1/1/1 74/42/30 164/41/30 
f 138/38/40 153/37/40 165/43/41 147/44/41 
f 157/37/40 156/39/30 166/45/42 167/43/41 
f 159/39/30 158/40/40 168/46/41 169/45/42 
f 163/40/40 162/41/30 170/47/42 171/46/41 
f 164/41/30 74/42/30 88/48/30 172/47/42 
f 147/44/41 165/43/41 62/35/22 68/36/28 
f 167/43/41 166/45/42 173/34/33 174/35/28 
f 169/45/42 168/46/41 50/33/22 56/34/26 
f 171/46/41 170/47/42 175/32/33 176/33/28 
f 172/47/42 88/48/30 37/31/10 40/32/13 
s off
f 25/10/6 19/8/2 155/8/1 154/10/8 
f 19/8/2 159/39/30 156/39/30 155/8/1 
f 159/39/30 169/45/42 166/45/42 156/39/30 
f 169/45/42 56/34/26 173/34/33 166/45/42 
f 56/34/26 62/35/22 174/35/28 173/34/33 
f 62/35/22 165/43/41 167/43/41 174/35/28 
f 165/43/41 153/37/40 157/37/40 167/43/41 
f 153/37/40 25/10/6 154/10/8 157/37/40 
f 13/6/6 2/4/2 161/4/1 160/6/8 
f 2/4/2 164/41/30 162/41/30 161/4/1 
f 164/41/30 172/47/42 170/47/42 162/41/30 
f 172/47/42 40/32/13 175/32/33 170/47/42 
f 40/32/13 50/33/22 176/33/28 175/32/33 
f 50/33/22 168/46/41 171/46/41 176/33/28 
f 168/46/41 158/40/40 163/40/40 171/46/41 
f 158/40/40 13/6/6 160/6/8 163/40/40 
f 4/10/2 6/8/4 76/8/5 75/10/1 
f 6/8/4 80/39/31 77/39/31 76/8/5 
f 80/39/31 92/45/31 89/45/31 77/39/31 
f 92/45/31 41/34/14 97/34/20 89/45/31 
f 41/34/14 38/35/11 98/35/33 97/34/20 
f 38/35/11 87/43/30 90/43/30 98/35/33 
f 87/43/30 73/37/30 78/37/30 90/43/30 
f 73/37/30 4/10/2 75/10/1 78/37/30 
f 8/6/2 10/4/4 82/4/5 81/6/1 
f 10/4/4 86/41/31 83/41/31 82/4/5 
f 86/41/31 96/47/31 93/47/31 83/41/31 
f 96/47/31 45/32/18 99/32/34 93/47/31 
f 45/32/18 43/33/16 100/33/35 99/32/34 
f 43/33/16 91/46/30 94/46/30 100/33/35 
f 91/46/30 79/40/30 84/40/30 94/46/30 
f 79/40/30 8/6/2 81/6/1 84/40/30 
f 11/10/4 18/8/7 103/8/9 102/10/5 
f 18/8/7 107/39/37 104/39/36 103/8/9 
f 107/39/37 118/45/36 115/45/36 104/39/36 
f 118/45/36 54/34/24 123/34/38 115/45/36 
f 54/34/24 48/35/21 124/35/39 123/34/38 
f 48/35/21 114/43/31 116/43/31 124/35/39 
f 114/43/31 101/37/32 105/37/31 116/43/31 
f 101/37/32 11/10/4 102/10/5 105/37/31 
f 24/6/4 30/4/7 109/4/9 108/6/5 
f 30/4/7 113/41/37 110/41/36 109/4/9 
f 113/41/37 122/47/36 119/47/36 110/41/36 
f 122/47/36 66/32/27 125/32/29 119/47/36 
f 66/32/27 60/33/14 126/33/20 125/32/29 
f 60/33/14 117/46/31 120/46/31 126/33/20 
f 117/46/31 106/40/32 111/40/31 120/46/31 
f 106/40/32 24/6/4 108/6/5 111/40/31 
f 35/10/7 34/8/6 129/8/8 128/10/9 
f 34/8/6 133/39/41 130/39/40 129/8/8 
f 133/39/41 144/45/41 141/45/41 130/39/40 
f 144/45/41 70/34/22 149/34/28 141/45/41 
f 70/34/22 71/35/27 150/35/29 149/34/28 
f 71/35/27 140/43/36 142/43/36 150/35/29 
f 140/43/36 127/37/37 131/37/37 142/43/36 
f 127/37/37 35/10/7 128/10/9 131/37/37 
f 33/6/7 32/4/6 135/4/8 134/6/9 
f 32/4/6 139/41/41 136/41/40 135/4/8 
f 139/41/41 148/47/41 145/47/41 136/41/40 
f 148/47/41 67/32/22 151/32/28 145/47/41 
f 67/32/22 69/33/27 152/33/29 151/32/28 
f 69/33/27 143/46/36 146/46/36 152/33/29 
f 143/46/36 132/40/37 137/40/37 146/46/36 
f 132/40/37 33/6/7 134/6/9 137/40/37 
# 174 polygons

#
# object Box002
#

v  -8.5765 8.7940 3.5381
v  -8.8725 8.7940 3.2422
v  -8.8725 8.7940 1.5662
v  -8.6078 8.7940 1.3015
v  -6.9318 8.7940 1.3015
v  -6.6358 8.7940 1.5974
v  -6.6358 8.7940 3.2734
v  -6.9005 8.7940 3.5381
v  -8.6297 10.1682 3.2351
v  -8.4516 10.1682 3.4132
v  -7.0255 10.1682 3.4132
v  -6.7608 10.1682 3.1485
v  -6.7608 10.1682 1.7224
v  -7.0567 10.1682 1.4264
v  -8.4828 10.1682 1.4264
v  -8.6297 10.1682 1.5733
v  -7.0255 9.1649 3.4132
v  -8.4516 9.1649 3.4132
v  -6.7175 10.0116 3.7211
v  -8.7596 10.0116 3.7211
v  -6.7608 9.1649 1.7224
v  -6.7608 9.1649 3.1485
v  -6.4528 10.0116 1.4144
v  -6.4528 10.0116 3.4565
v  -8.4828 9.1649 1.4264
v  -7.0567 9.1649 1.4264
v  -8.7908 10.0116 1.1185
v  -6.7487 10.0116 1.1185
v  -8.7475 9.1649 3.1173
v  -8.7475 9.1649 1.6911
v  -9.0555 10.0116 3.4252
v  -9.0555 10.0116 1.3831
v  -8.8584 10.1118 3.2281
v  -8.8584 10.1118 1.5803
# 34 vertices

vn -0.3669 -0.4674 0.8043
vn -0.8043 -0.4675 0.3668
vn -0.8043 -0.4676 -0.3668
vn -0.3669 -0.4674 -0.8043
vn 0.3669 -0.4674 -0.8043
vn 0.8043 -0.4675 -0.3668
vn 0.8043 -0.4676 0.3668
vn 0.3669 -0.4674 0.8043
vn -0.1513 0.9843 0.0914
vn -0.0620 0.9703 0.2339
vn 0.0620 0.9703 0.2339
vn 0.2339 0.9703 0.0620
vn 0.2339 0.9703 -0.0620
vn 0.0620 0.9703 -0.2339
vn -0.0620 0.9703 -0.2339
vn -0.1513 0.9843 -0.0914
vn 0.3371 -0.0157 0.9413
vn -0.3371 -0.0157 0.9413
vn 0.4017 0.3201 0.8580
vn -0.4017 0.3201 0.8580
vn 0.9413 -0.0157 -0.3371
vn 0.9413 -0.0157 0.3372
vn 0.8580 0.3201 -0.4017
vn 0.8580 0.3201 0.4017
vn -0.3371 -0.0157 -0.9413
vn 0.3371 -0.0157 -0.9413
vn -0.4017 0.3201 -0.8580
vn 0.4017 0.3201 -0.8580
vn -0.9413 -0.0157 0.3371
vn -0.9413 -0.0157 -0.3372
vn -0.8580 0.3202 0.4017
vn -0.8580 0.3202 -0.4017
vn -0.3221 0.9423 0.0913
vn -0.3221 0.9423 -0.0913
# 34 vertex normals

vt 0.8677 0.0000 0.0000
vt 1.0000 0.1323 0.0000
vt 1.0000 0.8817 0.0000
vt 0.8817 1.0000 0.0000
vt 0.1323 1.0000 0.0000
vt 0.0000 0.8677 0.0000
vt 0.0000 0.1183 0.0000
vt 0.1183 0.0000 0.0000
vt 0.0593 0.0897 0.0000
vt 0.1489 0.0000 0.0000
vt 0.8668 0.0000 0.0000
vt 1.0000 0.1332 0.0000
vt 1.0000 0.8511 0.0000
vt 0.8511 1.0000 0.0000
vt 0.1332 1.0000 0.0000
vt 0.0593 0.9261 0.0000
vt 0.1323 0.0000 0.0000
vt 0.8817 0.0000 0.0000
vt 0.8668 0.3333 0.0000
vt 0.1489 0.3333 0.0000
vt 0.8983 0.6667 0.0000
vt 0.1137 0.6667 0.0000
vt 0.8668 1.0000 0.0000
vt 0.1489 1.0000 0.0000
vt 0.8511 0.3333 0.0000
vt 0.1332 0.3333 0.0000
vt 0.8863 0.6667 0.0000
vt 0.1017 0.6667 0.0000
vt 0.8637 0.8800 0.0000
vt 0.1219 0.8800 0.0000
vt -0.1742 0.1460 0.0000
vt -0.1576 0.4793 0.0000
vt 0.0187 0.2663 0.0000
vt -0.0166 0.5996 0.0000
vt 0.0117 0.9503 0.0000
vt 0.0470 1.2836 0.0000
vt -0.1597 0.1406 0.0000
vt -0.1429 0.4756 0.0000
vt 0.0293 0.2680 0.0000
vt -0.0096 0.6029 0.0000
vt 0.0171 0.9376 0.0000
vt 0.0991 1.1234 0.0000
vt 0.0566 1.2772 0.0000
vt -0.1603 0.1092 0.0000
vt -0.1475 0.4416 0.0000
vt -0.0008 0.2892 0.0000
vt -0.0261 0.6218 0.0000
vt -0.0218 0.8976 0.0000
vt 0.0034 1.2269 0.0000
vt 1.1641 0.4656 0.0000
vt 1.1807 0.1323 0.0000
vt 1.0229 0.6120 0.0000
vt 0.9877 0.2786 0.0000
vt 0.9799 1.2740 0.0000
vt 0.9023 1.1091 0.0000
vt 1.0151 0.9406 0.0000
# 56 texture coords

o Box002
g Box002
usemtl wire_115115115
s 1
f 177/49/43 178/50/44 179/51/45 180/52/46 181/53/47 182/54/48 183/55/49 184/56/50 
f 185/57/51 186/58/52 187/59/53 188/60/54 189/61/55 190/62/56 191/63/57 192/64/58 
s 2
f 177/65/43 184/66/50 193/67/59 194/68/60 
s 4
f 194/68/60 193/67/59 195/69/61 196/70/62 
s 1
f 196/70/62 195/69/61 187/71/53 186/72/52 
s 2
f 183/56/49 182/49/48 197/73/63 198/74/64 
s 4
f 198/74/64 197/73/63 199/75/65 200/76/66 
s 1
f 200/76/66 199/75/65 189/62/55 188/63/54 
s 2
f 181/65/47 180/66/46 201/67/67 202/68/68 
s 4
f 202/68/68 201/67/67 203/69/69 204/70/70 
s 1
f 204/70/70 203/69/69 191/71/57 190/72/56 
s 2
f 179/56/45 178/49/44 205/73/71 206/74/72 
s 4
f 206/74/72 205/73/71 207/75/73 208/76/74 
s 1
f 208/76/74 207/75/73 209/77/75 210/78/76 
s 8
f 182/79/48 181/65/47 202/68/68 197/80/63 
s 16
f 197/81/63 202/68/68 204/70/70 199/82/65 
s 1
f 199/83/65 204/70/70 190/72/56 189/84/55 
s 8
f 180/85/46 179/56/45 206/74/72 201/86/67 
s 16
f 201/87/67 206/74/72 208/76/74 203/88/69 
s 1
f 203/89/69 208/76/74 210/78/76 192/90/58 191/91/57 
s 8
f 184/92/50 183/56/49 198/74/64 193/93/59 
s 16
f 193/94/59 198/74/64 200/76/66 195/95/61 
s 1
f 195/96/61 200/76/66 188/63/54 187/97/53 
s 8
f 194/98/60 205/73/71 178/49/44 177/99/43 
s 16
f 196/100/62 207/75/73 205/73/71 194/101/60 
s 1
f 186/102/52 185/103/51 209/77/75 207/75/73 196/104/62 
f 192/90/58 210/78/76 209/77/75 185/103/51 
# 27 polygons

#
# object Object001
#

v  -8.7633 -0.6864 3.8088
v  -9.1308 -0.6864 3.4413
v  -9.1308 -0.6864 1.3599
v  -8.8021 -0.6864 1.0312
v  -6.7207 -0.6864 1.0312
v  -6.3532 -0.6864 1.3987
v  -6.3532 -0.6864 3.4801
v  -6.6819 -0.6864 3.8088
v  -8.8294 1.0202 3.4324
v  -8.6082 1.0202 3.6536
v  -6.8371 1.0202 3.6536
v  -6.5084 1.0202 3.3249
v  -6.5084 1.0202 1.5539
v  -6.8759 1.0202 1.1864
v  -8.6470 1.0202 1.1864
v  -8.8294 1.0202 1.3688
v  -6.8371 -0.2258 3.6536
v  -8.6082 -0.2258 3.6536
v  -6.4546 0.8257 4.0361
v  -8.9906 0.8257 4.0361
v  -6.5084 -0.2258 1.5539
v  -6.5084 -0.2258 3.3249
v  -6.1259 0.8257 1.1714
v  -6.1259 0.8257 3.7074
v  -8.6470 -0.2258 1.1864
v  -6.8759 -0.2258 1.1864
v  -9.0294 0.8257 0.8039
v  -6.4934 0.8257 0.8039
v  -8.9757 -0.2258 3.2861
v  -8.9757 -0.2258 1.5151
v  -9.3581 0.8257 3.6686
v  -9.3581 0.8257 1.1326
v  -9.1133 0.9502 3.4238
v  -9.1133 0.9502 1.3774
# 34 vertices

vn -0.3669 -0.4674 0.8043
vn -0.8043 -0.4675 0.3668
vn -0.8043 -0.4675 -0.3668
vn -0.3668 -0.4675 -0.8043
vn 0.3669 -0.4674 -0.8043
vn 0.8043 -0.4676 -0.3668
vn 0.8043 -0.4676 0.3668
vn 0.3668 -0.4675 0.8043
vn -0.1513 0.9843 0.0914
vn -0.0620 0.9703 0.2339
vn 0.0620 0.9703 0.2339
vn 0.2339 0.9703 0.0620
vn 0.2339 0.9703 -0.0620
vn 0.0620 0.9703 -0.2339
vn -0.0620 0.9703 -0.2339
vn -0.1513 0.9843 -0.0914
vn 0.3371 -0.0157 0.9413
vn -0.3371 -0.0157 0.9413
vn 0.4017 0.3201 0.8580
vn -0.4017 0.3201 0.8580
vn 0.9413 -0.0156 -0.3371
vn 0.9413 -0.0157 0.3372
vn 0.8580 0.3202 -0.4017
vn 0.8580 0.3201 0.4017
vn -0.3371 -0.0157 -0.9413
vn 0.3371 -0.0157 -0.9413
vn -0.4017 0.3200 -0.8580
vn 0.4017 0.3201 -0.8580
vn -0.9413 -0.0157 0.3372
vn -0.9413 -0.0157 -0.3371
vn -0.8580 0.3201 0.4017
vn -0.8580 0.3202 -0.4017
vn -0.3221 0.9423 0.0913
vn -0.3221 0.9423 -0.0913
# 34 vertex normals

vt 0.8677 0.0000 0.0000
vt 1.0000 0.1323 0.0000
vt 1.0000 0.8817 0.0000
vt 0.8817 1.0000 0.0000
vt 0.1323 1.0000 0.0000
vt 0.0000 0.8677 0.0000
vt 0.0000 0.1183 0.0000
vt 0.1183 0.0000 0.0000
vt 0.0593 0.0897 0.0000
vt 0.1489 0.0000 0.0000
vt 0.8668 0.0000 0.0000
vt 1.0000 0.1332 0.0000
vt 1.0000 0.8511 0.0000
vt 0.8511 1.0000 0.0000
vt 0.1332 1.0000 0.0000
vt 0.0593 0.9261 0.0000
vt 0.1323 0.0000 0.0000
vt 0.8817 0.0000 0.0000
vt 0.8668 0.3333 0.0000
vt 0.1489 0.3333 0.0000
vt 0.8983 0.6667 0.0000
vt 0.1137 0.6667 0.0000
vt 0.8668 1.0000 0.0000
vt 0.1489 1.0000 0.0000
vt 0.8511 0.3333 0.0000
vt 0.1332 0.3333 0.0000
vt 0.8863 0.6667 0.0000
vt 0.1017 0.6667 0.0000
vt 0.8637 0.8800 0.0000
vt 0.1219 0.8800 0.0000
vt -0.1742 0.1460 0.0000
vt -0.1576 0.4793 0.0000
vt 0.0187 0.2663 0.0000
vt -0.0166 0.5996 0.0000
vt 0.0117 0.9503 0.0000
vt 0.0470 1.2836 0.0000
vt -0.1597 0.1406 0.0000
vt -0.1429 0.4756 0.0000
vt 0.0293 0.2680 0.0000
vt -0.0096 0.6029 0.0000
vt 0.0171 0.9376 0.0000
vt 0.0991 1.1234 0.0000
vt 0.0566 1.2772 0.0000
vt -0.1603 0.1092 0.0000
vt -0.1475 0.4416 0.0000
vt -0.0008 0.2892 0.0000
vt -0.0261 0.6218 0.0000
vt -0.0218 0.8976 0.0000
vt 0.0034 1.2269 0.0000
vt 1.1641 0.4656 0.0000
vt 1.1807 0.1323 0.0000
vt 1.0229 0.6120 0.0000
vt 0.9877 0.2786 0.0000
vt 0.9799 1.2740 0.0000
vt 0.9023 1.1091 0.0000
vt 1.0151 0.9406 0.0000
# 56 texture coords

o Object001
g Object001
usemtl wire_115115115
s 1
f 211/105/77 212/106/78 213/107/79 214/108/80 215/109/81 216/110/82 217/111/83 218/112/84 
f 219/113/85 220/114/86 221/115/87 222/116/88 223/117/89 224/118/90 225/119/91 226/120/92 
s 2
f 211/121/77 218/122/84 227/123/93 228/124/94 
s 4
f 228/124/94 227/123/93 229/125/95 230/126/96 
s 1
f 230/126/96 229/125/95 221/127/87 220/128/86 
s 2
f 217/112/83 216/105/82 231/129/97 232/130/98 
s 4
f 232/130/98 231/129/97 233/131/99 234/132/100 
s 1
f 234/132/100 233/131/99 223/118/89 222/119/88 
s 2
f 215/121/81 214/122/80 235/123/101 236/124/102 
s 4
f 236/124/102 235/123/101 237/125/103 238/126/104 
s 1
f 238/126/104 237/125/103 225/127/91 224/128/90 
s 2
f 213/112/79 212/105/78 239/129/105 240/130/106 
s 4
f 240/130/106 239/129/105 241/131/107 242/132/108 
s 1
f 242/132/108 241/131/107 243/133/109 244/134/110 
s 8
f 216/135/82 215/121/81 236/124/102 231/136/97 
s 16
f 231/137/97 236/124/102 238/126/104 233/138/99 
s 1
f 233/139/99 238/126/104 224/128/90 223/140/89 
s 8
f 214/141/80 213/112/79 240/130/106 235/142/101 
s 16
f 235/143/101 240/130/106 242/132/108 237/144/103 
s 1
f 237/145/103 242/132/108 244/134/110 226/146/92 225/147/91 
s 8
f 218/148/84 217/112/83 232/130/98 227/149/93 
s 16
f 227/150/93 232/130/98 234/132/100 229/151/95 
s 1
f 229/152/95 234/132/100 222/119/88 221/153/87 
s 8
f 228/154/94 239/129/105 212/105/78 211/155/77 
s 16
f 230/156/96 241/131/107 239/129/105 228/157/94 
s 1
f 220/158/86 219/159/85 243/133/109 241/131/107 230/160/96 
f 226/146/92 244/134/110 243/133/109 219/159/85 
# 27 polygons

