# 3ds Max Wavefront OBJ Exporter v0.97b - (c)2007 guruware
# File Created: 15.02.2020 21:14:18

mtllib Escudo.mtl

#
# object PERSONAJE
#

v  0.0841 3.7307 -0.0000
v  0.0841 6.7307 0.0000
v  1.7621 6.7307 0.0000
v  1.7621 3.7307 -0.0000
v  0.0841 3.7307 4.6000
v  1.7621 3.7307 4.6000
v  1.7621 6.7307 4.6000
v  0.0841 6.7307 4.6000
# 8 vertices

vn -0.5774 -0.5774 -0.5774
vn -0.5774 0.5774 -0.5774
vn 0.5774 0.5774 -0.5774
vn 0.5774 -0.5774 -0.5774
vn -0.5774 -0.5774 0.5774
vn 0.5774 -0.5774 0.5774
vn 0.5774 0.5774 0.5774
vn -0.5774 0.5774 0.5774
# 8 vertex normals

vt 1.0000 0.0000 0.0000
vt 1.0000 1.0000 0.0000
vt 0.0000 1.0000 0.0000
vt 0.0000 0.0000 0.0000
# 4 texture coords

o PERSONAJE
g PERSONAJE
usemtl wire_086086086
s 2
f 1/1/1 2/2/2 3/3/3 4/4/4 
s 4
f 5/4/5 6/1/6 7/2/7 8/3/8 
s 8
f 1/4/1 4/1/4 6/2/6 5/3/5 
s 16
f 4/4/4 3/1/3 7/2/7 6/3/6 
s 32
f 3/4/3 2/1/2 8/2/8 7/3/7 
s 64
f 2/4/2 1/1/1 5/2/5 8/3/8 
# 6 polygons

#
# object ESCUDO
#

v  5.6960 3.9945 2.0126
v  5.3585 4.3923 2.0126
v  5.6678 4.3923 2.0126
v  5.7386 3.9945 2.0126
v  5.7490 4.3923 2.0126
v  5.7490 3.9945 2.0126
v  5.8378 4.3923 2.0126
v  5.7620 3.9945 2.0126
v  6.1364 4.3923 2.0126
v  5.8118 3.9945 2.0126
v  5.1084 4.7901 2.0126
v  5.3947 4.7901 2.0126
v  5.7490 4.7901 2.0126
v  6.1033 4.7901 2.0126
v  6.3804 4.7901 2.0126
v  5.0405 5.1878 2.0126
v  5.3947 5.1878 2.0126
v  5.7490 5.1878 2.0126
v  6.1033 5.1878 2.0126
v  6.4575 5.1878 2.0126
v  5.0405 5.5856 2.0126
v  5.3947 5.5856 2.0126
v  5.7490 5.5856 2.0126
v  6.1033 5.5856 2.0126
v  6.4575 5.5856 2.0126
v  5.0405 5.6178 2.0126
v  5.3947 5.7234 2.0126
v  5.7490 5.9834 2.0126
v  6.1033 5.7259 2.0126
v  6.4575 5.6317 2.0126
v  5.6960 3.9945 2.1942
v  5.7386 3.9945 2.1942
v  5.6678 4.3923 2.1942
v  5.3585 4.3923 2.1942
v  5.7490 3.9945 2.1942
v  5.7490 4.3923 2.1942
v  5.7620 3.9945 2.1942
v  5.8378 4.3923 2.1942
v  5.8118 3.9945 2.1942
v  6.1364 4.3923 2.1942
v  5.3947 4.7901 2.1942
v  5.1084 4.7901 2.1942
v  5.7490 4.7901 2.1942
v  6.1033 4.7901 2.1942
v  6.3804 4.7901 2.1942
v  5.3947 5.1878 2.1942
v  5.0405 5.1878 2.1942
v  5.7490 5.1878 2.1942
v  6.1033 5.1878 2.1942
v  6.4575 5.1878 2.1942
v  5.3947 5.5856 2.1942
v  5.0405 5.5856 2.1942
v  5.7490 5.5856 2.1942
v  6.1033 5.5856 2.1942
v  6.4575 5.5856 2.1942
v  5.3947 5.7234 2.1942
v  5.0405 5.6178 2.1942
v  5.7490 5.9834 2.1942
v  6.1033 5.7259 2.1942
v  6.4575 5.6317 2.1942
# 60 vertices

vn -0.3284 -0.7094 -0.6236
vn -0.5827 -0.4270 -0.6914
vn 0.0000 0.0000 -1.0000
vn 0.0000 -0.7071 -0.7071
vn -0.0000 -0.7071 -0.7071
vn 0.5884 -0.4177 -0.6923
vn 0.3357 -0.7073 -0.6221
vn -0.6970 -0.2665 -0.6657
vn 0.6927 -0.2694 -0.6690
vn -0.7225 -0.0612 -0.6886
vn 0.7240 -0.0695 -0.6863
vn -0.7071 0.0000 -0.7071
vn 0.7071 0.0000 -0.7071
vn -0.6449 0.4807 -0.5941
vn -0.2957 0.5947 -0.7476
vn -0.0019 0.8034 -0.5954
vn 0.2839 0.5965 -0.7507
vn 0.6388 0.4911 -0.5923
vn -0.3284 -0.7094 0.6236
vn 0.0000 -0.7071 0.7071
vn -0.0000 -0.0000 1.0000
vn -0.5827 -0.4270 0.6914
vn 0.0000 -0.0000 1.0000
vn 0.3357 -0.7073 0.6221
vn 0.5884 -0.4177 0.6923
vn -0.6969 -0.2665 0.6658
vn 0.6926 -0.2694 0.6691
vn -0.7225 -0.0612 0.6886
vn 0.7240 -0.0695 0.6863
vn -0.7071 -0.0000 0.7071
vn 0.7071 -0.0000 0.7071
vn -0.2957 0.5947 0.7476
vn -0.6449 0.4807 0.5941
vn -0.0019 0.8034 0.5954
vn 0.2839 0.5965 0.7507
vn 0.6388 0.4911 0.5923
# 36 vertex normals

vt 1.0000 0.0000 0.0000
vt 1.0000 0.2000 0.0000
vt 0.7500 0.2000 0.0000
vt 0.7500 0.0000 0.0000
vt 0.5000 0.2000 0.0000
vt 0.5000 0.0000 0.0000
vt 0.2500 0.2000 0.0000
vt 0.2500 0.0000 0.0000
vt 0.0000 0.2000 0.0000
vt 0.0000 0.0000 0.0000
vt 1.0000 0.4000 0.0000
vt 0.7500 0.4000 0.0000
vt 0.5000 0.4000 0.0000
vt 0.2500 0.4000 0.0000
vt 0.0000 0.4000 0.0000
vt 1.0000 0.6000 0.0000
vt 0.7500 0.6000 0.0000
vt 0.5000 0.6000 0.0000
vt 0.2500 0.6000 0.0000
vt 0.0000 0.6000 0.0000
vt 1.0000 0.8000 0.0000
vt 0.7500 0.8000 0.0000
vt 0.5000 0.8000 0.0000
vt 0.2500 0.8000 0.0000
vt 0.0000 0.8000 0.0000
vt 1.0000 1.0000 0.0000
vt 0.7500 1.0000 0.0000
vt 0.5000 1.0000 0.0000
vt 0.2500 1.0000 0.0000
vt 0.0000 1.0000 0.0000
vt 0.2000 0.0000 0.0000
vt 0.2000 1.0000 0.0000
vt 0.4000 0.0000 0.0000
vt 0.4000 1.0000 0.0000
vt 0.6000 0.0000 0.0000
vt 0.6000 1.0000 0.0000
vt 0.8000 0.0000 0.0000
vt 0.8000 1.0000 0.0000
# 38 texture coords

o ESCUDO
g ESCUDO
usemtl wire_135006006
s 2
f 9/5/9 10/6/10 11/7/11 12/8/12 
f 12/8/12 11/7/11 13/9/11 14/10/13 
f 14/10/13 13/9/11 15/11/11 16/12/13 
f 16/12/13 15/11/11 17/13/14 18/14/15 
f 10/6/10 19/15/16 20/16/11 11/7/11 
f 11/7/11 20/16/11 21/17/11 13/9/11 
f 13/9/11 21/17/11 22/18/11 15/11/11 
f 15/11/11 22/18/11 23/19/17 17/13/14 
f 19/15/16 24/20/18 25/21/11 20/16/11 
f 20/16/11 25/21/11 26/22/11 21/17/11 
f 21/17/11 26/22/11 27/23/11 22/18/11 
f 22/18/11 27/23/11 28/24/19 23/19/17 
f 24/20/18 29/25/20 30/26/11 25/21/11 
f 25/21/11 30/26/11 31/27/11 26/22/11 
f 26/22/11 31/27/11 32/28/11 27/23/11 
f 27/23/11 32/28/11 33/29/21 28/24/19 
f 29/25/20 34/30/22 35/31/23 30/26/11 
f 30/26/11 35/31/23 36/32/24 31/27/11 
f 31/27/11 36/32/24 37/33/25 32/28/11 
f 32/28/11 37/33/25 38/34/26 33/29/21 
s 4
f 39/14/27 40/12/28 41/11/29 42/13/30 
f 40/12/28 43/10/28 44/9/29 41/11/29 
f 43/10/28 45/8/28 46/7/31 44/9/29 
f 45/8/28 47/5/32 48/6/33 46/7/31 
f 42/13/30 41/11/29 49/18/29 50/19/34 
f 41/11/29 44/9/29 51/17/31 49/18/29 
f 44/9/29 46/7/31 52/16/31 51/17/31 
f 46/7/31 48/6/33 53/15/35 52/16/31 
f 50/19/34 49/18/29 54/23/31 55/24/36 
f 49/18/29 51/17/31 56/22/31 54/23/31 
f 51/17/31 52/16/31 57/21/31 56/22/31 
f 52/16/31 53/15/35 58/20/37 57/21/31 
f 55/24/36 54/23/31 59/28/31 60/29/38 
f 54/23/31 56/22/31 61/27/31 59/28/31 
f 56/22/31 57/21/31 62/26/31 61/27/31 
f 57/21/31 58/20/37 63/25/39 62/26/31 
f 60/29/38 59/28/31 64/33/40 65/34/41 
f 59/28/31 61/27/31 66/32/42 64/33/40 
f 61/27/31 62/26/31 67/31/43 66/32/42 
f 62/26/31 63/25/39 68/30/44 67/31/43 
s 8
f 9/14/9 12/12/12 40/33/28 39/34/27 
f 12/12/12 14/10/13 43/32/28 40/33/28 
f 14/10/13 16/8/13 45/31/28 43/32/28 
f 16/8/13 18/5/15 47/30/32 45/31/28 
s 16
f 18/14/15 17/35/14 48/36/33 47/34/32 
f 17/35/14 23/37/17 53/38/35 48/36/33 
f 23/37/17 28/39/19 58/40/37 53/38/35 
f 28/39/19 33/41/21 63/42/39 58/40/37 
f 33/41/21 38/5/26 68/30/44 63/42/39 
s 32
f 38/14/26 37/12/25 67/33/43 68/34/44 
f 37/12/25 36/10/24 66/32/42 67/33/43 
f 36/10/24 35/8/23 64/31/40 66/32/42 
f 35/8/23 34/5/22 65/30/41 64/31/40 
s 64
f 34/14/22 29/35/20 60/36/38 65/34/41 
f 29/35/20 24/37/18 55/38/36 60/36/38 
f 24/37/18 19/39/16 50/40/34 55/38/36 
f 19/39/16 10/41/10 42/42/30 50/40/34 
f 10/41/10 9/5/9 39/30/27 42/42/30 
# 58 polygons

