# 3ds Max Wavefront OBJ Exporter v0.97b - (c)2007 guruware
# File Created: 15.02.2020 20:52:48

mtllib Mesa.mtl

#
# object Mesa
#

v  13.8022 4.7658 6.8105
v  13.8022 4.7658 6.6647
v  13.9394 4.7658 6.6647
v  13.9394 4.7658 6.8105
v  13.8022 5.0383 6.8105
v  13.8467 5.0383 6.8105
v  13.8467 5.0383 6.6647
v  13.8022 5.0383 6.6647
v  16.7285 4.7658 6.6647
v  16.7285 4.7658 6.8105
v  16.5912 4.7658 6.8105
v  16.5912 4.7658 6.6647
v  16.7285 5.0383 6.6647
v  16.6839 5.0383 6.6647
v  16.6839 5.0383 6.8105
v  16.7285 5.0383 6.8105
v  13.5083 4.6055 6.6570
v  13.5083 4.7826 6.6570
v  17.0507 4.7826 6.6570
v  17.0507 4.6055 6.6570
v  13.5083 4.6055 6.8205
v  17.0507 4.6055 6.8205
v  17.0507 4.7826 6.8205
v  13.5083 4.7826 6.8205
v  13.2276 5.5916 7.6875
v  13.2276 5.5916 5.7800
v  17.3302 5.5916 5.7800
v  17.3302 5.5916 7.6875
v  13.2276 5.7551 7.6875
v  17.3302 5.7551 7.6875
v  17.3302 5.7551 5.7800
v  13.2276 5.7551 5.7800
v  16.7354 3.9687 6.4376
v  16.7354 5.6037 6.4376
v  16.9261 5.6037 6.4376
v  16.9261 3.9687 6.4376
v  16.7354 3.9687 7.0213
v  16.9261 3.9687 7.0213
v  16.9261 5.6037 7.0213
v  16.7354 5.6037 7.0213
v  13.6152 3.9687 6.4376
v  13.6152 5.6037 6.4376
v  13.8060 5.6037 6.4376
v  13.8060 3.9687 6.4376
v  13.6152 3.9687 7.0213
v  13.8060 3.9687 7.0213
v  13.8060 5.6037 7.0213
v  13.6152 5.6037 7.0213
v  16.6925 3.6067 5.7706
v  16.6925 3.6836 5.7706
v  16.9650 3.6836 5.7706
v  16.9650 3.6067 5.7706
v  16.6925 3.6067 7.6898
v  16.9650 3.6067 7.6898
v  16.9650 3.6775 7.6898
v  16.6925 3.6775 7.6898
v  16.9650 3.6067 5.9839
v  16.6925 3.6067 5.9839
v  16.9650 3.6067 6.1971
v  16.6925 3.6067 6.1971
v  16.9650 3.6067 6.4103
v  16.6925 3.6067 6.4103
v  16.9650 3.6067 6.6236
v  16.6925 3.6067 6.6236
v  16.9650 3.6067 6.8368
v  16.6925 3.6067 6.8368
v  16.9650 3.6067 7.0501
v  16.6925 3.6067 7.0501
v  16.9650 3.6067 7.2633
v  16.6925 3.6067 7.2633
v  16.9650 3.6067 7.4765
v  16.6925 3.6067 7.4765
v  16.9650 3.8127 5.9839
v  16.9650 3.8134 6.1971
v  16.9650 3.9718 6.4103
v  16.9650 3.9718 6.6236
v  16.9650 3.9718 6.8368
v  16.9650 3.9718 7.0501
v  16.9650 3.8158 7.2633
v  16.9650 3.8115 7.4765
v  16.6925 3.8127 5.9839
v  16.6925 3.8134 6.1971
v  16.6925 3.9718 6.4103
v  16.6925 3.9718 6.6236
v  16.6925 3.9718 6.8368
v  16.6925 3.9718 7.0501
v  16.6925 3.8158 7.2633
v  16.6925 3.8115 7.4765
v  13.5724 3.6067 5.7706
v  13.5724 3.6836 5.7706
v  13.8449 3.6836 5.7706
v  13.8449 3.6067 5.7706
v  13.5724 3.6067 7.6898
v  13.8449 3.6067 7.6898
v  13.8449 3.6775 7.6898
v  13.5724 3.6775 7.6898
v  13.8449 3.6067 5.9839
v  13.5724 3.6067 5.9839
v  13.8449 3.6067 6.1971
v  13.5724 3.6067 6.1971
v  13.8449 3.6067 6.4103
v  13.5724 3.6067 6.4103
v  13.8449 3.6067 6.6236
v  13.5724 3.6067 6.6236
v  13.8449 3.6067 6.8368
v  13.5724 3.6067 6.8368
v  13.8449 3.6067 7.0501
v  13.5724 3.6067 7.0501
v  13.8449 3.6067 7.2633
v  13.5724 3.6067 7.2633
v  13.8449 3.6067 7.4765
v  13.5724 3.6067 7.4765
v  13.8449 3.8127 5.9839
v  13.8449 3.8134 6.1971
v  13.8449 3.9718 6.4103
v  13.8449 3.9718 6.6236
v  13.8449 3.9718 6.8368
v  13.8449 3.9718 7.0501
v  13.8449 3.8158 7.2633
v  13.8449 3.8115 7.4765
v  13.5724 3.8127 5.9839
v  13.5724 3.8134 6.1971
v  13.5724 3.9718 6.4103
v  13.5724 3.9718 6.6236
v  13.5724 3.9718 6.8368
v  13.5724 3.9718 7.0501
v  13.5724 3.8158 7.2633
v  13.5724 3.8115 7.4765
# 128 vertices

vn -0.5774 -0.5774 0.5774
vn -0.5774 -0.5774 -0.5774
vn 0.6725 -0.4815 -0.5620
vn 0.6725 -0.4815 0.5620
vn -0.5774 0.5774 0.5774
vn 0.4672 0.6525 0.5966
vn 0.4672 0.6525 -0.5966
vn -0.5774 0.5774 -0.5774
vn 0.5774 -0.5774 -0.5774
vn 0.5774 -0.5774 0.5774
vn -0.6725 -0.4815 0.5620
vn -0.6724 -0.4816 -0.5621
vn 0.5774 0.5774 -0.5774
vn -0.4671 0.6525 -0.5966
vn -0.4672 0.6525 0.5966
vn 0.5774 0.5774 0.5774
vn -0.6115 0.3884 -0.6893
vn 0.6115 0.3884 -0.6893
vn 0.6127 0.3823 0.6917
vn -0.6127 0.3823 0.6917
vn 0.7071 -0.7071 -0.0000
vn -0.7071 -0.7071 -0.0000
vn 0.6516 0.7303 -0.2052
vn 0.7847 0.5882 -0.1956
vn 0.6428 0.7273 -0.2406
vn 0.7071 0.7071 -0.0000
vn 0.6434 0.7276 0.2379
vn 0.7816 0.5910 0.1998
vn 0.6516 0.7267 0.2173
vn -0.6516 0.7303 -0.2052
vn -0.7847 0.5882 -0.1956
vn -0.6428 0.7273 -0.2406
vn -0.7071 0.7071 -0.0000
vn -0.6434 0.7276 0.2379
vn -0.7816 0.5910 0.1998
vn -0.6516 0.7267 0.2173
# 36 vertex normals

vt 0.8232 0.9349 0.0000
vt 0.8238 0.9559 0.0000
vt 0.8040 0.9565 0.0000
vt 0.8035 0.9355 0.0000
vt 0.7556 0.9368 0.0000
vt 0.7620 0.9367 0.0000
vt 0.7626 0.9577 0.0000
vt 0.7562 0.9578 0.0000
vt 0.7966 0.9170 0.0000
vt 0.7598 0.9307 0.0000
vt 0.7982 0.9754 0.0000
vt 0.7607 0.9638 0.0000
vt 0.7920 0.9955 0.0000
vt 0.7545 0.9839 0.0000
vt 0.6777 0.9286 0.0000
vt 0.6986 0.9220 0.0000
vt 0.7048 0.9417 0.0000
vt 0.6839 0.9482 0.0000
vt 0.6988 0.9959 0.0000
vt 0.6968 0.9895 0.0000
vt 0.7177 0.9829 0.0000
vt 0.7197 0.9893 0.0000
vt 0.6673 0.9604 0.0000
vt 0.6914 0.9934 0.0000
vt 0.7254 0.9422 0.0000
vt 0.7244 0.9831 0.0000
vt 0.7473 0.9427 0.0000
vt 0.7463 0.9836 0.0000
vt 0.7413 0.8831 0.0000
vt 0.7248 0.8830 0.0000
vt 0.7273 0.5523 0.0000
vt 0.7439 0.5524 0.0000
vt 0.6930 0.8827 0.0000
vt 0.6955 0.5520 0.0000
vt 0.7121 0.5521 0.0000
vt 0.7095 0.8829 0.0000
vt 0.6777 0.8826 0.0000
vt 0.6803 0.5519 0.0000
vt 0.6804 0.5353 0.0000
vt 0.6957 0.5355 0.0000
vt 0.6776 0.8992 0.0000
vt 0.6928 0.8993 0.0000
vt 0.3164 0.9609 0.0000
vt 0.0157 0.9609 0.0000
vt 0.0157 0.3143 0.0000
vt 0.3164 0.3143 0.0000
vt 0.3422 0.9609 0.0000
vt 0.3422 0.3143 0.0000
vt 0.6428 0.3143 0.0000
vt 0.6428 0.9609 0.0000
vt 0.0157 0.2885 0.0000
vt 0.3164 0.2885 0.0000
vt 0.6686 0.3143 0.0000
vt 0.6686 0.9609 0.0000
vt 0.3164 0.9867 0.0000
vt 0.0157 0.9867 0.0000
vt 0.9620 0.9017 0.0000
vt 0.9638 0.6528 0.0000
vt 0.9928 0.6530 0.0000
vt 0.9910 0.9019 0.0000
vt 0.8731 0.9010 0.0000
vt 0.8441 0.9008 0.0000
vt 0.8459 0.6520 0.0000
vt 0.8749 0.6522 0.0000
vt 0.9904 0.9907 0.0000
vt 0.9613 0.9905 0.0000
vt 0.7552 0.9002 0.0000
vt 0.7571 0.6513 0.0000
vt 0.9644 0.5640 0.0000
vt 0.9935 0.5642 0.0000
vt 0.9638 0.6529 0.0000
vt 0.9929 0.6531 0.0000
vt 0.9911 0.9019 0.0000
vt 0.8732 0.9011 0.0000
vt 0.8441 0.9009 0.0000
vt 0.8750 0.6522 0.0000
vt 0.9904 0.9908 0.0000
vt 0.9614 0.9906 0.0000
vt 0.7553 0.9002 0.0000
vt 0.9645 0.5640 0.0000
vt 0.1804 0.0836 0.0000
vt 0.1966 0.0766 0.0000
vt 0.2207 0.1355 0.0000
vt 0.2041 0.1418 0.0000
vt 0.7001 0.0764 0.0000
vt 0.6779 0.1352 0.0000
vt 0.6625 0.1298 0.0000
vt 0.6850 0.0703 0.0000
vt 0.2206 0.2184 0.0000
vt 0.2207 0.1550 0.0000
vt 0.2703 0.1565 0.0000
vt 0.2699 0.2189 0.0000
vt 0.3194 0.1553 0.0000
vt 0.3192 0.2192 0.0000
vt 0.3683 0.1577 0.0000
vt 0.3685 0.2202 0.0000
vt 0.4176 0.1581 0.0000
vt 0.4180 0.2205 0.0000
vt 0.4662 0.1574 0.0000
vt 0.4676 0.2198 0.0000
vt 0.5154 0.1557 0.0000
vt 0.5172 0.2180 0.0000
vt 0.5642 0.1519 0.0000
vt 0.5665 0.2157 0.0000
vt 0.6134 0.1514 0.0000
vt 0.6158 0.2138 0.0000
vt 0.6629 0.1482 0.0000
vt 0.6651 0.2117 0.0000
vt 0.2714 0.1116 0.0000
vt 0.3191 0.1034 0.0000
vt 0.3724 0.0766 0.0000
vt 0.4176 0.0737 0.0000
vt 0.4639 0.0730 0.0000
vt 0.5091 0.0746 0.0000
vt 0.5629 0.0997 0.0000
vt 0.6107 0.1069 0.0000
vt 0.2512 0.0544 0.0000
vt 0.2989 0.0402 0.0000
vt 0.3589 0.0184 0.0000
vt 0.4130 0.0106 0.0000
vt 0.4667 0.0098 0.0000
vt 0.5211 0.0160 0.0000
vt 0.5815 0.0361 0.0000
vt 0.6294 0.0493 0.0000
vt 0.2206 0.2362 0.0000
vt 0.2696 0.2664 0.0000
vt 0.3189 0.2671 0.0000
vt 0.3684 0.3043 0.0000
vt 0.4188 0.3045 0.0000
vt 0.4694 0.3038 0.0000
vt 0.5197 0.3022 0.0000
vt 0.5682 0.2640 0.0000
vt 0.6176 0.2609 0.0000
vt 0.6656 0.2281 0.0000
vt 0.9126 0.0337 0.0000
vt 0.9196 0.0501 0.0000
vt 0.8603 0.0739 0.0000
vt 0.8540 0.0572 0.0000
vt 0.9143 0.5570 0.0000
vt 0.8557 0.5335 0.0000
vt 0.8615 0.5181 0.0000
vt 0.9208 0.5420 0.0000
vt 0.7763 0.0735 0.0000
vt 0.8404 0.0738 0.0000
vt 0.8389 0.1236 0.0000
vt 0.7761 0.1230 0.0000
vt 0.8401 0.1729 0.0000
vt 0.7759 0.1724 0.0000
vt 0.8376 0.2221 0.0000
vt 0.7751 0.2218 0.0000
vt 0.8369 0.2717 0.0000
vt 0.7746 0.2715 0.0000
vt 0.8371 0.3207 0.0000
vt 0.7748 0.3214 0.0000
vt 0.8383 0.3702 0.0000
vt 0.7758 0.3711 0.0000
vt 0.8412 0.4193 0.0000
vt 0.7771 0.4206 0.0000
vt 0.8406 0.4686 0.0000
vt 0.7779 0.4700 0.0000
vt 0.8429 0.5184 0.0000
vt 0.7787 0.5194 0.0000
vt 0.8841 0.1249 0.0000
vt 0.8922 0.1730 0.0000
vt 0.9190 0.2269 0.0000
vt 0.9215 0.2725 0.0000
vt 0.9218 0.3191 0.0000
vt 0.9197 0.3648 0.0000
vt 0.8938 0.4187 0.0000
vt 0.8856 0.4666 0.0000
vt 0.9416 0.1050 0.0000
vt 0.9558 0.1531 0.0000
vt 0.9775 0.2137 0.0000
vt 0.9850 0.2684 0.0000
vt 0.9852 0.3226 0.0000
vt 0.9783 0.3774 0.0000
vt 0.9573 0.4381 0.0000
vt 0.9431 0.4865 0.0000
vt 0.7582 0.0736 0.0000
vt 0.7283 0.1232 0.0000
vt 0.7278 0.1726 0.0000
vt 0.6907 0.2223 0.0000
vt 0.6903 0.2720 0.0000
vt 0.6906 0.3218 0.0000
vt 0.6914 0.3714 0.0000
vt 0.7285 0.4208 0.0000
vt 0.7304 0.4702 0.0000
vt 0.7619 0.5195 0.0000
# 188 texture coords

o Mesa
g Mesa
usemtl wire_225143087
s 2
f 1/1/1 2/2/2 3/3/3 4/4/4 
s 4
f 5/5/5 6/6/6 7/7/7 8/8/8 
s 8
f 1/9/1 4/4/4 6/6/6 5/10/5 
s 16
f 4/4/4 3/3/3 7/7/7 6/6/6 
s 32
f 3/3/3 2/11/2 8/12/8 7/7/7 
s 64
f 2/11/2 1/13/1 5/14/5 8/12/8 
s 2
f 9/15/9 10/16/10 11/17/11 12/18/12 
s 4
f 13/19/13 14/20/14 15/21/15 16/22/16 
s 8
f 9/23/9 12/18/12 14/20/14 13/24/13 
s 16
f 12/18/12 11/17/11 15/21/15 14/20/14 
s 32
f 11/17/11 10/25/10 16/26/16 15/21/15 
s 64
f 10/25/10 9/27/9 13/28/13 16/26/16 
s 2
f 17/29/2 18/30/8 19/31/13 20/32/9 
s 4
f 21/33/1 22/34/10 23/35/16 24/36/5 
s 8
f 17/37/2 20/38/9 22/34/10 21/33/1 
s 16
f 20/38/9 19/39/13 23/40/16 22/34/10 
s 32
f 19/31/13 18/30/8 24/36/5 23/35/16 
s 64
f 18/41/8 17/37/2 21/33/1 24/42/5 
s 2
f 25/43/1 26/44/2 27/45/9 28/46/10 
s 4
f 29/47/5 30/48/16 31/49/13 32/50/8 
s 8
f 25/43/1 28/46/10 30/48/16 29/47/5 
s 16
f 28/46/10 27/45/9 31/51/13 30/52/16 
s 32
f 27/53/9 26/54/2 32/50/8 31/49/13 
s 64
f 26/44/2 25/43/1 29/55/5 32/56/8 
s 2
f 33/57/2 34/58/8 35/59/13 36/60/9 
s 4
f 37/61/1 38/62/10 39/63/16 40/64/5 
s 8
f 33/57/2 36/60/9 38/65/10 37/66/1 
s 16
f 36/67/9 35/68/13 39/63/16 38/62/10 
s 32
f 35/59/13 34/58/8 40/69/5 39/70/16 
s 64
f 34/58/8 33/57/2 37/61/1 40/64/5 
s 2
f 41/57/2 42/71/8 43/72/13 44/73/9 
s 4
f 45/74/1 46/75/10 47/63/16 48/76/5 
s 8
f 41/57/2 44/73/9 46/77/10 45/78/1 
s 16
f 44/79/9 43/68/13 47/63/16 46/75/10 
s 32
f 43/72/13 42/71/8 48/80/5 47/70/16 
s 64
f 42/71/8 41/57/2 45/74/1 48/76/5 
s 2
f 49/81/2 50/82/17 51/83/18 52/84/9 
s 4
f 53/85/1 54/86/10 55/87/19 56/88/20 
s 8
f 49/89/2 52/90/9 57/91/21 58/92/22 
f 58/92/22 57/91/21 59/93/21 60/94/22 
f 60/94/22 59/93/21 61/95/21 62/96/22 
f 62/96/22 61/95/21 63/97/21 64/98/22 
f 64/98/22 63/97/21 65/99/21 66/100/22 
f 66/100/22 65/99/21 67/101/21 68/102/22 
f 68/102/22 67/101/21 69/103/21 70/104/22 
f 70/104/22 69/103/21 71/105/21 72/106/22 
f 72/106/22 71/105/21 54/107/10 53/108/1 
s 16
f 52/90/9 51/83/18 73/109/23 57/91/21 
f 57/91/21 73/109/23 74/110/24 59/93/21 
f 59/93/21 74/110/24 75/111/25 61/95/21 
f 61/95/21 75/111/25 76/112/26 63/97/21 
f 63/97/21 76/112/26 77/113/26 65/99/21 
f 65/99/21 77/113/26 78/114/27 67/101/21 
f 67/101/21 78/114/27 79/115/28 69/103/21 
f 69/103/21 79/115/28 80/116/29 71/105/21 
f 71/105/21 80/116/29 55/87/19 54/107/10 
s 32
f 51/83/18 50/82/17 81/117/30 73/109/23 
f 73/109/23 81/117/30 82/118/31 74/110/24 
f 74/110/24 82/118/31 83/119/32 75/111/25 
f 75/111/25 83/119/32 84/120/33 76/112/26 
f 76/112/26 84/120/33 85/121/33 77/113/26 
f 77/113/26 85/121/33 86/122/34 78/114/27 
f 78/114/27 86/122/34 87/123/35 79/115/28 
f 79/115/28 87/123/35 88/124/36 80/116/29 
f 80/116/29 88/124/36 56/88/20 55/87/19 
s 64
f 50/125/17 49/89/2 58/92/22 81/126/30 
f 81/126/30 58/92/22 60/94/22 82/127/31 
f 82/127/31 60/94/22 62/96/22 83/128/32 
f 83/128/32 62/96/22 64/98/22 84/129/33 
f 84/129/33 64/98/22 66/100/22 85/130/33 
f 85/130/33 66/100/22 68/102/22 86/131/34 
f 86/131/34 68/102/22 70/104/22 87/132/35 
f 87/132/35 70/104/22 72/106/22 88/133/36 
f 88/133/36 72/106/22 53/108/1 56/134/20 
s 2
f 89/135/2 90/136/17 91/137/18 92/138/9 
s 4
f 93/139/1 94/140/10 95/141/19 96/142/20 
s 8
f 89/143/2 92/144/9 97/145/21 98/146/22 
f 98/146/22 97/145/21 99/147/21 100/148/22 
f 100/148/22 99/147/21 101/149/21 102/150/22 
f 102/150/22 101/149/21 103/151/21 104/152/22 
f 104/152/22 103/151/21 105/153/21 106/154/22 
f 106/154/22 105/153/21 107/155/21 108/156/22 
f 108/156/22 107/155/21 109/157/21 110/158/22 
f 110/158/22 109/157/21 111/159/21 112/160/22 
f 112/160/22 111/159/21 94/161/10 93/162/1 
s 16
f 92/144/9 91/137/18 113/163/23 97/145/21 
f 97/145/21 113/163/23 114/164/24 99/147/21 
f 99/147/21 114/164/24 115/165/25 101/149/21 
f 101/149/21 115/165/25 116/166/26 103/151/21 
f 103/151/21 116/166/26 117/167/26 105/153/21 
f 105/153/21 117/167/26 118/168/27 107/155/21 
f 107/155/21 118/168/27 119/169/28 109/157/21 
f 109/157/21 119/169/28 120/170/29 111/159/21 
f 111/159/21 120/170/29 95/141/19 94/161/10 
s 32
f 91/137/18 90/136/17 121/171/30 113/163/23 
f 113/163/23 121/171/30 122/172/31 114/164/24 
f 114/164/24 122/172/31 123/173/32 115/165/25 
f 115/165/25 123/173/32 124/174/33 116/166/26 
f 116/166/26 124/174/33 125/175/33 117/167/26 
f 117/167/26 125/175/33 126/176/34 118/168/27 
f 118/168/27 126/176/34 127/177/35 119/169/28 
f 119/169/28 127/177/35 128/178/36 120/170/29 
f 120/170/29 128/178/36 96/142/20 95/141/19 
s 64
f 90/179/17 89/143/2 98/146/22 121/180/30 
f 121/180/30 98/146/22 100/148/22 122/181/31 
f 122/181/31 100/148/22 102/150/22 123/182/32 
f 123/182/32 102/150/22 104/152/22 124/183/33 
f 124/183/33 104/152/22 106/154/22 125/184/33 
f 125/184/33 106/154/22 108/156/22 126/185/34 
f 126/185/34 108/156/22 110/158/22 127/186/35 
f 127/186/35 110/158/22 112/160/22 128/187/36 
f 128/187/36 112/160/22 93/162/1 96/188/20 
# 112 polygons

