# 3ds Max Wavefront OBJ Exporter v0.97b - (c)2007 guruware
# File Created: 15.03.2020 18:13:12

mtllib Pala.mtl

#
# object Pala
#

v  -0.0909 0.1870 -45.0863
v  -0.0909 0.3949 -44.9582
v  -0.0909 0.4655 -45.1499
v  -0.0909 0.1164 -44.8945
v  -0.0909 0.3533 -44.8450
v  -0.0909 0.2827 -44.6533
v  -0.0909 0.6836 -44.9034
v  -0.0909 0.7542 -45.0951
v  -0.0909 0.6130 -44.7117
v  -0.0909 0.5424 -44.5200
v  -0.0909 0.9556 -44.8032
v  -0.0909 1.0118 -44.9560
v  -0.0909 0.8850 -44.6115
v  -0.0909 0.8324 -44.4688
v  0.1942 0.4655 -45.1499
v  0.1942 0.3949 -44.9582
v  0.1942 0.1397 -45.1037
v  0.1942 0.3533 -44.8450
v  0.1942 0.0691 -44.9120
v  0.1942 0.2827 -44.6533
v  0.1942 0.7542 -45.0951
v  0.1942 0.6836 -44.9034
v  0.1942 0.6130 -44.7117
v  0.1942 0.5424 -44.5200
v  0.1942 1.0118 -44.9560
v  0.1942 0.9556 -44.8032
v  0.1942 0.8850 -44.6115
v  0.1942 0.8324 -44.4688
# 28 vertices

vn -0.6704 -0.4748 -0.5702
vn -1.0000 -0.0000 -0.0000
vn -0.6638 -0.0139 -0.7478
vn -0.6738 -0.7306 0.1108
vn -0.6561 -0.4981 0.5669
vn -0.6742 0.2473 -0.6959
vn -0.6750 -0.2352 0.6993
vn -0.7071 0.6635 0.2443
vn -0.5852 0.7585 -0.2867
vn -0.5873 0.4034 0.7017
vn 0.6721 0.0173 -0.7403
vn 1.0000 0.0000 0.0000
vn 0.5498 -0.5424 -0.6353
vn 0.5517 -0.8255 0.1188
vn 0.6644 -0.4684 0.5823
vn 0.6742 0.2473 -0.6959
vn 0.6750 -0.2352 0.6993
vn 0.5852 0.7585 -0.2867
vn 0.7071 0.6635 0.2443
vn 0.5873 0.4034 0.7017
# 20 vertex normals

vt 1.0000 0.0000 0.0000
vt 0.6667 0.3333 0.0000
vt 1.0000 0.3333 0.0000
vt 0.3333 0.0000 0.0000
vt 0.3333 0.3333 0.0000
vt -0.0000 0.3333 0.0000
vt 0.6667 0.6667 0.0000
vt 1.0000 0.6667 0.0000
vt 0.3333 0.6667 0.0000
vt -0.0000 0.6667 0.0000
vt 0.6667 1.0000 0.0000
vt 1.0000 1.0000 0.0000
vt 0.3333 1.0000 0.0000
vt -0.0000 1.0000 0.0000
vt 0.0000 0.3333 0.0000
vt 0.0000 0.6667 0.0000
vt 0.0000 1.0000 0.0000
vt 0.0000 0.0000 0.0000
vt 0.6667 0.0000 0.0000
# 19 texture coords

o Pala
g Pala
usemtl wire_086086086
s 2
f 1/1/1 2/2/2 3/3/3 
f 1/1/1 4/4/4 5/5/2 2/2/2 
f 4/4/4 6/6/5 5/5/2 
f 3/3/3 2/2/2 7/7/2 8/8/6 
f 2/2/2 5/5/2 9/9/2 7/7/2 
f 5/5/2 6/6/5 10/10/7 9/9/2 
f 8/8/6 7/7/2 11/11/8 12/12/9 
f 7/7/2 9/9/2 13/13/8 11/11/8 
f 9/9/2 10/10/7 14/14/10 13/13/8 
s 4
f 15/15/11 16/5/12 17/4/13 
f 17/4/13 16/5/12 18/2/12 19/1/14 
f 18/2/12 20/3/15 19/1/14 
f 15/15/11 21/16/16 22/9/12 16/5/12 
f 16/5/12 22/9/12 23/7/12 18/2/12 
f 18/2/12 23/7/12 24/8/17 20/3/15 
f 21/16/16 25/17/18 26/13/19 22/9/12 
f 22/9/12 26/13/19 27/11/19 23/7/12 
f 23/7/12 27/11/19 28/12/20 24/8/17 
s 8
f 1/18/1 17/13/13 19/12/14 4/19/4 
s 16
f 4/18/4 19/17/14 20/13/15 6/4/5 
f 6/4/5 20/13/15 24/11/17 10/19/7 
f 10/19/7 24/11/17 28/12/20 14/1/10 
s 32
f 14/18/10 28/17/20 27/13/19 13/4/8 
f 13/4/8 27/13/19 26/11/19 11/19/8 
f 11/19/8 26/11/19 25/12/18 12/1/9 
s 64
f 12/18/9 25/17/18 21/13/16 8/4/6 
f 8/4/6 21/13/16 15/11/11 3/19/3 
f 3/19/3 15/11/11 17/12/13 1/1/1 
# 24 polygons - 4 triangles

#
# object Palo_Pala
#

v  0.1342 0.6026 -44.7910
v  0.1181 0.5930 -44.7649
v  0.0935 0.5859 -44.7455
v  0.0633 0.5821 -44.7352
v  0.0312 0.5821 -44.7352
v  0.0010 0.5859 -44.7455
v  -0.0237 0.5930 -44.7649
v  -0.0397 0.6026 -44.7910
v  -0.0453 0.6136 -44.8207
v  -0.0397 0.6245 -44.8504
v  -0.0237 0.6341 -44.8765
v  0.0010 0.6412 -44.8959
v  0.0312 0.6450 -44.9062
v  0.0633 0.6450 -44.9062
v  0.0935 0.6412 -44.8959
v  0.1181 0.6341 -44.8765
v  0.1342 0.6245 -44.8504
v  0.1397 0.6136 -44.8207
v  0.1342 2.6505 -44.1044
v  0.1397 2.6395 -44.0747
v  0.1181 2.6601 -44.1305
v  0.0935 2.6672 -44.1499
v  0.0633 2.6710 -44.1602
v  0.0312 2.6710 -44.1602
v  0.0010 2.6672 -44.1499
v  -0.0237 2.6601 -44.1305
v  -0.0397 2.6505 -44.1044
v  -0.0453 2.6395 -44.0747
v  -0.0397 2.6286 -44.0450
v  -0.0237 2.6190 -44.0189
v  0.0010 2.6118 -43.9995
v  0.0312 2.6080 -43.9892
v  0.0633 2.6080 -43.9892
v  0.0935 2.6118 -43.9995
v  0.1181 2.6190 -44.0189
v  0.1342 2.6286 -44.0450
v  0.0989 2.4781 -44.3964
v  0.0881 2.4607 -44.4028
v  0.0717 2.4478 -44.4076
v  0.0516 2.4409 -44.4101
v  0.0302 2.4409 -44.4101
v  0.0100 2.4478 -44.4076
v  -0.0064 2.4607 -44.4028
v  -0.0171 2.4781 -44.3964
v  -0.0208 2.4979 -44.3891
v  -0.0171 2.5177 -44.3818
v  -0.0064 2.5351 -44.3754
v  0.0100 2.5480 -44.3706
v  0.0302 2.5549 -44.3680
v  0.0516 2.5549 -44.3680
v  0.0717 2.5480 -44.3706
v  0.0881 2.5351 -44.3754
v  0.0989 2.5177 -44.3818
v  0.1026 2.4979 -44.3891
v  0.0989 2.3573 -43.9478
v  0.1026 2.3375 -43.9551
v  0.0881 2.3747 -43.9414
v  0.0717 2.3877 -43.9366
v  0.0516 2.3945 -43.9341
v  0.0302 2.3945 -43.9341
v  0.0100 2.3877 -43.9366
v  -0.0064 2.3747 -43.9414
v  -0.0171 2.3573 -43.9478
v  -0.0208 2.3375 -43.9551
v  -0.0171 2.3178 -43.9624
v  -0.0064 2.3004 -43.9689
v  0.0100 2.2874 -43.9736
v  0.0302 2.2806 -43.9762
v  0.0516 2.2806 -43.9762
v  0.0717 2.2874 -43.9736
v  0.0881 2.3004 -43.9689
v  0.0989 2.3178 -43.9624
# 72 vertices

vn 0.6975 -0.7165 0.0067
vn 0.5687 -0.7936 0.2162
vn 0.3712 -0.8509 0.3718
vn 0.1289 -0.8814 0.4545
vn -0.1289 -0.8814 0.4545
vn -0.3711 -0.8509 0.3717
vn -0.5686 -0.7937 0.2162
vn -0.6976 -0.7165 0.0067
vn -0.7423 -0.6288 -0.2315
vn -0.6975 -0.5411 -0.4698
vn -0.5687 -0.4639 -0.6793
vn -0.3712 -0.4067 -0.8348
vn -0.1289 -0.3762 -0.9175
vn 0.1289 -0.3761 -0.9176
vn 0.3712 -0.4066 -0.8348
vn 0.5687 -0.4639 -0.6793
vn 0.6976 -0.5410 -0.4698
vn 0.7423 -0.6288 -0.2316
vn 0.6976 0.7165 -0.0067
vn 0.7423 0.6288 0.2315
vn 0.5687 0.7936 -0.2162
vn 0.3712 0.8509 -0.3718
vn 0.1289 0.8814 -0.4545
vn -0.1289 0.8814 -0.4545
vn -0.3712 0.8509 -0.3717
vn -0.5687 0.7936 -0.2162
vn -0.6975 0.7165 -0.0067
vn -0.7423 0.6288 0.2316
vn -0.6976 0.5410 0.4698
vn -0.5686 0.4639 0.6793
vn -0.3711 0.4067 0.8348
vn -0.1289 0.3761 0.9176
vn 0.1289 0.3761 0.9176
vn 0.3712 0.4066 0.8348
vn 0.5687 0.4639 0.6793
vn 0.6975 0.5411 0.4698
vn 0.6976 -0.0059 -0.7165
vn 0.5687 -0.2154 -0.7939
vn 0.3712 -0.3708 -0.8513
vn 0.1289 -0.4535 -0.8819
vn -0.1289 -0.4535 -0.8819
vn -0.3711 -0.3708 -0.8513
vn -0.5687 -0.2154 -0.7939
vn -0.6976 -0.0059 -0.7165
vn -0.7423 0.2322 -0.6285
vn -0.6976 0.4704 -0.5405
vn -0.5687 0.6798 -0.4631
vn -0.3712 0.8353 -0.4057
vn -0.1289 0.9180 -0.3751
vn 0.1289 0.9180 -0.3751
vn 0.3712 0.8353 -0.4057
vn 0.5686 0.6798 -0.4632
vn 0.6976 0.4704 -0.5405
vn 0.7423 0.2322 -0.6285
vn 0.6975 0.0059 0.7165
vn 0.7423 -0.2322 0.6285
vn 0.5687 0.2154 0.7938
vn 0.3712 0.3708 0.8513
vn 0.1289 0.4535 0.8819
vn -0.1289 0.4535 0.8819
vn -0.3712 0.3708 0.8513
vn -0.5687 0.2154 0.7939
vn -0.6976 0.0059 0.7165
vn -0.7423 -0.2322 0.6285
vn -0.6976 -0.4704 0.5405
vn -0.5686 -0.6798 0.4632
vn -0.3712 -0.8353 0.4056
vn -0.1289 -0.9180 0.3751
vn 0.1289 -0.9180 0.3751
vn 0.3712 -0.8353 0.4057
vn 0.5687 -0.6798 0.4631
vn 0.6976 -0.4704 0.5405
# 72 vertex normals

vt 0.9444 0.2650 -0.0000
vt 0.9328 0.2602 -0.3473
vt 0.9236 0.2516 -0.6527
vt 0.9178 0.2405 -0.8794
vt 0.9161 0.2280 -1.0000
vt 0.9189 0.2157 -1.0000
vt 0.9257 0.2051 -0.8794
vt 0.9357 0.1974 -0.6527
vt 0.9477 0.1937 -0.3473
vt 0.9603 0.1942 0.0000
vt 0.9719 0.1991 0.3473
vt 0.9812 0.2076 0.6527
vt 0.9870 0.2188 0.8794
vt 0.9886 0.2313 1.0000
vt 0.9858 0.2436 1.0000
vt 0.9790 0.2542 1.0000
vt 0.9690 0.2618 1.0000
vt 0.9570 0.2656 1.0000
vt 0.2429 0.9816 0.0000
vt 0.2285 0.9817 0.0000
vt 0.2235 0.0114 0.0000
vt 0.2380 0.0114 0.0000
vt 0.2140 0.9817 0.0000
vt 0.2091 0.0115 0.0000
vt 0.1996 0.9818 0.0000
vt 0.1946 0.0116 0.0000
vt 0.1852 0.9819 0.0000
vt 0.1802 0.0116 0.0000
vt 0.1707 0.9819 0.0000
vt 0.1657 0.0117 0.0000
vt 0.1563 0.9820 0.0000
vt 0.1513 0.0118 0.0000
vt 0.1418 0.9821 0.0000
vt 0.1368 0.0118 0.0000
vt 0.1274 0.9821 0.0000
vt 0.1224 0.0119 0.0000
vt 0.1129 0.9822 0.0000
vt 0.1079 0.0120 0.0000
vt 0.0985 0.9823 0.0000
vt 0.0935 0.0120 0.0000
vt 0.0840 0.9823 0.0000
vt 0.0791 0.0121 0.0000
vt 0.0696 0.9824 0.0000
vt 0.0646 0.0122 0.0000
vt 0.0552 0.9825 0.0000
vt 0.0502 0.0122 0.0000
vt 0.0407 0.9825 0.0000
vt 0.0357 0.0123 0.0000
vt 0.3007 0.9813 0.0000
vt 0.2863 0.9814 0.0000
vt 0.2813 0.0111 0.0000
vt 0.2957 0.0111 0.0000
vt 0.2718 0.9815 0.0000
vt 0.2668 0.0112 0.0000
vt 0.2574 0.9815 0.0000
vt 0.2524 0.0113 0.0000
vt 0.8687 0.1044 0.0000
vt 0.8760 0.1456 0.0000
vt 0.8687 0.1869 0.0000
vt 0.8478 0.2231 0.0000
vt 0.8157 0.2500 0.0000
vt 0.7763 0.2644 0.0000
vt 0.7345 0.2644 0.0000
vt 0.6951 0.2500 0.0000
vt 0.6630 0.2231 0.0000
vt 0.6421 0.1869 0.0000
vt 0.6348 0.1456 0.0000
vt 0.6421 0.1044 0.0000
vt 0.6630 0.0681 0.0000
vt 0.6951 0.0412 0.0000
vt 0.7345 0.0269 0.0000
vt 0.7763 0.0269 0.0000
vt 0.8157 0.0412 0.0000
vt 0.8478 0.0681 0.0000
vt 0.5609 0.1812 0.0000
vt 0.5393 0.2186 0.0000
vt 0.5062 0.2463 0.0000
vt 0.4657 0.2611 0.0000
vt 0.4225 0.2611 0.0000
vt 0.3819 0.2463 0.0000
vt 0.3489 0.2186 0.0000
vt 0.3273 0.1812 0.0000
vt 0.3198 0.1386 0.0000
vt 0.3273 0.0961 0.0000
vt 0.3489 0.0587 0.0000
vt 0.3819 0.0310 0.0000
vt 0.4225 0.0162 0.0000
vt 0.4657 0.0162 0.0000
vt 0.5062 0.0310 0.0000
vt 0.5393 0.0587 0.0000
vt 0.5609 0.0961 0.0000
vt 0.5684 0.1386 0.0000
vt 0.7541 0.9899 0.0000
vt 0.7213 0.9899 0.0000
vt 0.7218 0.2828 0.0000
vt 0.7546 0.2828 0.0000
vt 0.6886 0.9899 0.0000
vt 0.6891 0.2828 0.0000
vt 0.6559 0.9898 0.0000
vt 0.6563 0.2827 0.0000
vt 0.6233 0.9898 0.0000
vt 0.6234 0.2827 0.0000
vt 0.5907 0.9898 0.0000
vt 0.5905 0.2827 0.0000
vt 0.5581 0.9898 0.0000
vt 0.5577 0.2827 0.0000
vt 0.5254 0.9898 0.0000
vt 0.5249 0.2827 0.0000
vt 0.4926 0.9898 0.0000
vt 0.4921 0.2827 0.0000
vt 0.4599 0.9899 0.0000
vt 0.4594 0.2828 0.0000
vt 0.4271 0.9899 0.0000
vt 0.4266 0.2828 0.0000
vt 0.3944 0.9899 0.0000
vt 0.3939 0.2828 0.0000
vt 0.3616 0.9899 0.0000
vt 0.3612 0.2828 0.0000
vt 0.3288 0.9899 0.0000
vt 0.3285 0.2828 0.0000
vt 0.9181 0.9900 0.0000
vt 0.8853 0.9900 0.0000
vt 0.8854 0.2829 0.0000
vt 0.9181 0.2829 0.0000
vt 0.8524 0.9900 0.0000
vt 0.8528 0.2829 0.0000
vt 0.8196 0.9900 0.0000
vt 0.8201 0.2829 0.0000
vt 0.7868 0.9900 0.0000
vt 0.7873 0.2828 0.0000
vt 0.5609 0.0956 0.0000
vt 0.5684 0.1382 0.0000
vt 0.5609 0.1807 0.0000
vt 0.5393 0.2181 0.0000
vt 0.5062 0.2458 0.0000
vt 0.4657 0.2606 0.0000
vt 0.4225 0.2606 0.0000
vt 0.3819 0.2458 0.0000
vt 0.3489 0.2181 0.0000
vt 0.3273 0.1807 0.0000
vt 0.3198 0.1382 0.0000
vt 0.3273 0.0956 0.0000
vt 0.3489 0.0583 0.0000
vt 0.3819 0.0305 0.0000
vt 0.4225 0.0157 0.0000
vt 0.4657 0.0157 0.0000
vt 0.5062 0.0305 0.0000
vt 0.5393 0.0583 0.0000
# 148 texture coords

o Palo_Pala
g Palo_Pala
usemtl wire_135059008
s 1
f 29/20/21 30/21/22 31/22/23 32/23/24 33/24/25 34/25/26 35/26/27 36/27/28 37/28/29 38/29/30 39/30/31 40/31/32 41/32/33 42/33/34 43/34/35 44/35/36 45/36/37 46/37/38 
s 8
f 46/38/38 45/39/37 47/40/39 48/41/40 
f 45/39/37 44/42/36 49/43/41 47/40/39 
f 44/42/36 43/44/35 50/45/42 49/43/41 
f 43/44/35 42/46/34 51/47/43 50/45/42 
f 42/46/34 41/48/33 52/49/44 51/47/43 
f 41/48/33 40/50/32 53/51/45 52/49/44 
f 40/50/32 39/52/31 54/53/46 53/51/45 
f 39/52/31 38/54/30 55/55/47 54/53/46 
f 38/54/30 37/56/29 56/57/48 55/55/47 
f 37/56/29 36/58/28 57/59/49 56/57/48 
f 36/58/28 35/60/27 58/61/50 57/59/49 
f 35/60/27 34/62/26 59/63/51 58/61/50 
f 34/62/26 33/64/25 60/65/52 59/63/51 
f 33/64/25 32/66/24 61/67/53 60/65/52 
f 32/68/24 31/69/23 62/70/54 61/71/53 
f 31/69/23 30/72/22 63/73/55 62/70/54 
f 30/72/22 29/74/21 64/75/56 63/73/55 
f 29/74/21 46/38/38 48/41/40 64/75/56 
s 1
f 64/76/56 48/77/40 47/78/39 49/79/41 50/80/42 51/81/43 52/82/44 53/83/45 54/84/46 55/85/47 56/86/48 57/87/49 58/88/50 59/89/51 60/90/52 61/91/53 62/92/54 63/93/55 
f 65/94/57 66/95/58 67/96/59 68/97/60 69/98/61 70/99/62 71/100/63 72/101/64 73/102/65 74/103/66 75/104/67 76/105/68 77/106/69 78/107/70 79/108/71 80/109/72 81/110/73 82/111/74 
s 8
f 82/112/74 81/113/73 83/114/75 84/115/76 
f 81/113/73 80/116/72 85/117/77 83/114/75 
f 80/116/72 79/118/71 86/119/78 85/117/77 
f 79/118/71 78/120/70 87/121/79 86/119/78 
f 78/120/70 77/122/69 88/123/80 87/121/79 
f 77/122/69 76/124/68 89/125/81 88/123/80 
f 76/124/68 75/126/67 90/127/82 89/125/81 
f 75/126/67 74/128/66 91/129/83 90/127/82 
f 74/128/66 73/130/65 92/131/84 91/129/83 
f 73/130/65 72/132/64 93/133/85 92/131/84 
f 72/132/64 71/134/63 94/135/86 93/133/85 
f 71/134/63 70/136/62 95/137/87 94/135/86 
f 70/136/62 69/138/61 96/139/88 95/137/87 
f 69/140/61 68/141/60 97/142/89 96/143/88 
f 68/141/60 67/144/59 98/145/90 97/142/89 
f 67/144/59 66/146/58 99/147/91 98/145/90 
f 66/146/58 65/148/57 100/149/92 99/147/91 
f 65/148/57 82/112/74 84/115/76 100/149/92 
s 1
f 100/150/92 84/151/76 83/152/75 85/153/77 86/154/78 87/155/79 88/156/80 89/157/81 90/158/82 91/159/83 92/160/84 93/161/85 94/162/86 95/163/87 96/164/88 97/165/89 98/166/90 99/167/91 
# 40 polygons

#
# object Tierra_Pala
#

v  0.4694 0.0861 -44.7235
v  0.3891 0.1271 -44.5844
v  0.2660 0.0747 -44.4811
v  0.1150 0.0652 -44.4261
v  -0.0457 -0.0141 -44.4261
v  -0.1966 0.0911 -44.4811
v  -0.3197 0.0119 -44.5844
v  -0.4001 -0.0113 -44.7235
v  -0.4280 0.0738 -44.8818
v  -0.4001 0.1039 -45.0400
v  -0.3197 0.1110 -45.1791
v  -0.1966 0.1564 -45.2824
v  -0.0457 0.0484 -45.3374
v  0.1150 0.0504 -45.3374
v  0.2660 0.0956 -45.2824
v  0.3891 -0.0031 -45.1791
v  0.4694 0.0258 -45.0400
v  0.4973 0.0640 -44.8818
v  0.4694 0.1491 -45.0400
v  0.4973 0.1874 -44.8818
v  0.3891 0.1203 -45.1791
v  0.2660 0.2190 -45.2824
v  0.1150 0.1738 -45.3374
v  -0.0457 0.1718 -45.3374
v  -0.1966 0.2798 -45.2824
v  -0.3197 0.2344 -45.1791
v  -0.4001 0.2273 -45.0400
v  -0.4280 0.1972 -44.8818
v  -0.4001 0.1121 -44.7235
v  -0.3197 0.1353 -44.5844
v  -0.1966 0.2145 -44.4811
v  -0.0457 0.1093 -44.4261
v  0.1150 0.1886 -44.4261
v  0.2660 0.1980 -44.4811
v  0.3891 0.2504 -44.5844
v  0.4694 0.2094 -44.7235
# 36 vertices

vn 0.5417 -0.7692 0.3390
vn 0.7519 -0.2148 0.6233
vn 0.3669 -0.8612 0.3516
vn 0.2283 -0.2801 0.9324
vn -0.0759 -0.9828 0.1684
vn -0.5016 -0.0973 0.8596
vn -0.1860 -0.8689 0.4588
vn -0.3082 -0.9508 -0.0313
vn -0.9374 -0.3335 -0.1005
vn -0.7891 -0.5100 -0.3424
vn -0.3141 -0.8514 -0.4202
vn -0.5095 -0.1243 -0.8514
vn -0.2726 -0.9316 -0.2405
vn 0.1917 -0.8678 -0.4585
vn 0.4827 -0.1341 -0.8655
vn 0.0961 -0.9581 -0.2699
vn 0.6894 -0.7160 -0.1096
vn 0.8291 -0.5515 0.0916
vn 0.7100 0.5955 -0.3760
vn 0.6420 0.7564 -0.1256
vn 0.7716 0.1552 -0.6168
vn 0.2033 0.9691 -0.1394
vn 0.1112 0.3909 -0.9137
vn -0.1264 0.1842 -0.9747
vn -0.0011 0.9697 -0.2443
vn -0.7327 0.4165 -0.5382
vn -0.5894 0.7977 -0.1281
vn -0.4449 0.8575 0.2583
vn -0.9141 0.1855 0.3607
vn -0.7766 0.3302 0.5366
vn -0.0499 0.9827 0.1781
vn -0.1684 0.0972 0.9809
vn -0.1331 0.9016 0.4117
vn 0.4032 0.3913 0.8273
vn 0.2177 0.9517 0.2164
vn 0.8221 0.5327 0.2010
# 36 vertex normals

vt 0.2840 0.2559 0.0000
vt 0.3476 0.1471 0.0000
vt 0.4445 0.0644 0.0000
vt 0.5637 0.0208 0.0000
vt 0.6902 0.0190 0.0000
vt 0.8097 0.0647 0.0000
vt 0.9066 0.1444 0.0000
vt 0.9699 0.2536 0.0000
vt 0.9922 0.3804 0.0000
vt 0.9702 0.5059 0.0000
vt 0.9069 0.6158 0.0000
vt 0.8099 0.6983 0.0000
vt 0.6904 0.7392 0.0000
vt 0.5636 0.7393 0.0000
vt 0.4446 0.6969 0.0000
vt 0.3472 0.6132 0.0000
vt 0.2839 0.5041 0.0000
vt 0.2620 0.3802 0.0000
vt 0.5834 0.8319 0.0000
vt 0.5008 0.8326 0.0000
vt 0.5179 0.7751 0.0000
vt 0.5964 0.7732 0.0000
vt 0.4185 0.8167 0.0000
vt 0.4436 0.7622 0.0000
vt 0.3696 0.7348 0.0000
vt 0.4019 0.6842 0.0000
vt 0.2902 0.7040 0.0000
vt 0.3288 0.6580 0.0000
vt 0.2301 0.6476 0.0000
vt 0.2745 0.6072 0.0000
vt 0.2203 0.5506 0.0000
vt 0.2694 0.5160 0.0000
vt 0.1583 0.4926 0.0000
vt 0.2112 0.4641 0.0000
vt 0.1207 0.4197 0.0000
vt 0.1766 0.3978 0.0000
vt 0.0815 0.3461 0.0000
vt 0.1397 0.3313 0.0000
vt 0.0255 0.2729 0.0000
vt 0.0851 0.2659 0.0000
vt 0.0329 0.1899 0.0000
vt 0.0930 0.1913 0.0000
vt 0.0789 0.1115 0.0000
vt 0.1382 0.1208 0.0000
vt 0.0460 0.0221 0.0000
vt 0.1048 0.0350 0.0000
vt 0.9578 0.9536 0.0000
vt 0.8896 0.8989 0.0000
vt 0.9026 0.8402 0.0000
vt 0.9708 0.8948 0.0000
vt 0.8141 0.8776 0.0000
vt 0.8271 0.8188 0.0000
vt 0.7431 0.8357 0.0000
vt 0.7561 0.7770 0.0000
vt 0.6623 0.8383 0.0000
vt 0.6752 0.7796 0.0000
vt 0.9701 0.2559 0.0000
vt 0.9921 0.3802 0.0000
vt 0.9702 0.5041 0.0000
vt 0.9069 0.6132 0.0000
vt 0.8095 0.6969 0.0000
vt 0.6905 0.7393 0.0000
vt 0.5637 0.7392 0.0000
vt 0.4442 0.6983 0.0000
vt 0.3472 0.6158 0.0000
vt 0.2839 0.5059 0.0000
vt 0.2619 0.3804 0.0000
vt 0.2842 0.2536 0.0000
vt 0.3475 0.1444 0.0000
vt 0.4444 0.0647 0.0000
vt 0.5639 0.0190 0.0000
vt 0.6904 0.0208 0.0000
vt 0.8096 0.0644 0.0000
vt 0.9065 0.1471 0.0000
# 74 texture coords

o Tierra_Pala
g Tierra_Pala
usemtl wire_027017005
s 1
f 101/168/93 102/169/94 103/170/95 104/171/96 105/172/97 106/173/98 107/174/99 108/175/100 109/176/101 110/177/102 111/178/103 112/179/104 113/180/105 114/181/106 115/182/107 116/183/108 117/184/109 118/185/110 
s 8
f 118/186/110 117/187/109 119/188/111 120/189/112 
f 117/187/109 116/190/108 121/191/113 119/188/111 
f 116/190/108 115/192/107 122/193/114 121/191/113 
f 115/192/107 114/194/106 123/195/115 122/193/114 
f 114/194/106 113/196/105 124/197/116 123/195/115 
f 113/196/105 112/198/104 125/199/117 124/197/116 
f 112/198/104 111/200/103 126/201/118 125/199/117 
f 111/200/103 110/202/102 127/203/119 126/201/118 
f 110/202/102 109/204/101 128/205/120 127/203/119 
f 109/204/101 108/206/100 129/207/121 128/205/120 
f 108/206/100 107/208/99 130/209/122 129/207/121 
f 107/208/99 106/210/98 131/211/123 130/209/122 
f 106/210/98 105/212/97 132/213/124 131/211/123 
f 105/214/97 104/215/96 133/216/125 132/217/124 
f 104/215/96 103/218/95 134/219/126 133/216/125 
f 103/218/95 102/220/94 135/221/127 134/219/126 
f 102/220/94 101/222/93 136/223/128 135/221/127 
f 101/222/93 118/186/110 120/189/112 136/223/128 
s 1
f 136/224/128 120/225/112 119/226/111 121/227/113 122/228/114 123/229/115 124/230/116 125/231/117 126/232/118 127/233/119 128/234/120 129/235/121 130/236/122 131/237/123 132/238/124 133/239/125 134/240/126 135/241/127 
# 20 polygons

