# 3ds Max Wavefront OBJ Exporter v0.97b - (c)2007 guruware
# File Created: 15.03.2020 13:39:53

mtllib Regadera.mtl

#
# object Regadera
#

v  0.4662 -0.0778 -43.4114
v  0.3860 -0.0778 -43.2724
v  0.2630 -0.0778 -43.1692
v  0.1122 -0.0778 -43.1143
v  -0.0484 -0.0778 -43.1143
v  -0.1992 -0.0778 -43.1692
v  -0.3222 -0.0778 -43.2724
v  -0.4024 -0.0778 -43.4114
v  -0.4303 -0.0778 -43.5695
v  -0.4024 -0.0778 -43.7276
v  -0.3222 -0.0778 -43.8666
v  -0.1992 -0.0778 -43.9698
v  -0.0484 -0.0778 -44.0247
v  0.1122 -0.0778 -44.0247
v  0.2630 -0.0778 -43.9698
v  0.3860 -0.0778 -43.8666
v  0.4662 -0.0778 -43.7276
v  0.4941 -0.0778 -43.5695
v  0.4662 0.5586 -43.7276
v  0.4941 0.5586 -43.5695
v  0.3860 0.5586 -43.8666
v  0.2630 0.5586 -43.9698
v  0.1122 0.5586 -44.0247
v  -0.0484 0.5586 -44.0247
v  -0.1992 0.5586 -43.9698
v  -0.3222 0.5586 -43.8666
v  -0.4024 0.5586 -43.7276
v  -0.4303 0.5586 -43.5695
v  -0.4024 0.5586 -43.4114
v  -0.3222 0.5586 -43.2724
v  -0.1992 0.5586 -43.1692
v  -0.0484 0.5586 -43.1143
v  0.1122 0.5586 -43.1143
v  0.2630 0.5586 -43.1692
v  0.3860 0.5586 -43.2724
v  0.4662 0.5586 -43.4114
v  0.2548 0.8129 -43.6506
v  0.2691 0.8129 -43.5695
v  0.2136 0.8129 -43.7220
v  0.1505 0.8129 -43.7750
v  0.0731 0.8129 -43.8031
v  -0.0093 0.8129 -43.8031
v  -0.0867 0.8129 -43.7750
v  -0.1498 0.8129 -43.7220
v  -0.1910 0.8129 -43.6506
v  -0.2053 0.8129 -43.5695
v  -0.1910 0.8129 -43.4884
v  -0.1498 0.8129 -43.4170
v  -0.0867 0.8129 -43.3640
v  -0.0093 0.8129 -43.3359
v  0.0731 0.8129 -43.3359
v  0.1505 0.8129 -43.3640
v  0.2136 0.8129 -43.4170
v  0.2548 0.8129 -43.4884
v  -0.7057 0.5871 -43.4828
v  -0.7101 0.5591 -43.4992
v  -0.7133 0.5383 -43.5243
v  -0.7150 0.5272 -43.5551
v  -0.7150 0.5272 -43.5878
v  -0.7133 0.5383 -43.6186
v  -0.7101 0.5591 -43.6436
v  -0.7057 0.5871 -43.6600
v  -0.7008 0.6190 -43.6657
v  -0.6959 0.6508 -43.6600
v  -0.6915 0.6789 -43.6436
v  -0.6883 0.6996 -43.6186
v  -0.6866 0.7107 -43.5878
v  -0.6866 0.7107 -43.5551
v  -0.6883 0.6996 -43.5243
v  -0.6915 0.6789 -43.4992
v  -0.6959 0.6508 -43.4828
v  -0.7008 0.6190 -43.4772
v  -0.8193 0.6885 -43.4323
v  -0.8270 0.6385 -43.4234
v  -0.8125 0.7326 -43.4580
v  -0.8074 0.7652 -43.4974
v  -0.8047 0.7826 -43.5457
v  -0.8047 0.7826 -43.5971
v  -0.8074 0.7652 -43.6455
v  -0.8125 0.7326 -43.6848
v  -0.8193 0.6885 -43.7106
v  -0.8270 0.6385 -43.7195
v  -0.8347 0.5885 -43.7106
v  -0.8416 0.5444 -43.6848
v  -0.8466 0.5118 -43.6455
v  -0.8493 0.4944 -43.5971
v  -0.8493 0.4944 -43.5457
v  -0.8466 0.5118 -43.4974
v  -0.8416 0.5444 -43.4580
v  -0.8347 0.5885 -43.4323
v  -0.0330 0.4820 -43.4791
v  -0.0374 0.4536 -43.4957
v  -0.0407 0.4324 -43.5212
v  -0.0424 0.4212 -43.5524
v  -0.0424 0.4212 -43.5857
v  -0.0407 0.4324 -43.6170
v  -0.0374 0.4536 -43.6424
v  -0.0330 0.4820 -43.6591
v  -0.0280 0.5144 -43.6648
v  -0.0230 0.5468 -43.6591
v  -0.0186 0.5752 -43.6424
v  -0.0153 0.5964 -43.6170
v  -0.0136 0.6076 -43.5857
v  -0.0136 0.6076 -43.5524
v  -0.0153 0.5964 -43.5212
v  -0.0186 0.5752 -43.4957
v  -0.0230 0.5468 -43.4791
v  -0.0280 0.5144 -43.4733
v  -0.7344 0.6568 -43.4791
v  -0.7394 0.6245 -43.4733
v  -0.7300 0.6853 -43.4957
v  -0.7267 0.7064 -43.5212
v  -0.7250 0.7177 -43.5524
v  -0.7250 0.7177 -43.5857
v  -0.7267 0.7064 -43.6170
v  -0.7300 0.6853 -43.6424
v  -0.7344 0.6568 -43.6591
v  -0.7394 0.6245 -43.6648
v  -0.7444 0.5921 -43.6591
v  -0.7488 0.5636 -43.6424
v  -0.7521 0.5425 -43.6170
v  -0.7538 0.5312 -43.5857
v  -0.7538 0.5312 -43.5524
v  -0.7521 0.5425 -43.5212
v  -0.7488 0.5636 -43.4957
v  -0.7444 0.5921 -43.4791
v  -0.1442 0.8118 -43.5026
v  -0.1442 0.8118 -43.6413
v  -0.0991 0.8220 -43.6413
v  -0.0991 0.8220 -43.5026
v  0.1484 0.8126 -43.6413
v  0.1925 0.7990 -43.6413
v  0.1925 0.7990 -43.5026
v  0.1484 0.8126 -43.5026
v  -0.1484 0.8434 -43.6413
v  -0.1022 0.8453 -43.6413
v  -0.1468 0.8753 -43.6413
v  -0.1010 0.8687 -43.6413
v  -0.1394 0.9063 -43.6413
v  -0.0956 0.8915 -43.6413
v  -0.1264 0.9355 -43.6413
v  -0.0861 0.9130 -43.6413
v  -0.1084 0.9618 -43.6413
v  -0.0728 0.9323 -43.6413
v  -0.0858 0.9844 -43.6413
v  -0.0562 0.9490 -43.6413
v  -0.0596 1.0026 -43.6413
v  -0.0369 0.9623 -43.6413
v  -0.0304 1.0156 -43.6413
v  -0.0155 0.9718 -43.6413
v  0.0006 1.0231 -43.6413
v  0.0073 0.9774 -43.6413
v  0.0325 1.0248 -43.6413
v  0.0307 0.9786 -43.6413
v  0.0641 1.0207 -43.6413
v  0.0540 0.9756 -43.6413
v  0.0945 1.0109 -43.6413
v  0.0763 0.9684 -43.6413
v  0.1226 0.9957 -43.6413
v  0.0970 0.9572 -43.6413
v  0.1474 0.9756 -43.6413
v  0.1152 0.9425 -43.6413
v  0.1682 0.9514 -43.6413
v  0.1305 0.9246 -43.6413
v  0.1842 0.9237 -43.6413
v  0.1422 0.9043 -43.6413
v  0.1949 0.8937 -43.6413
v  0.1501 0.8822 -43.6413
v  0.1999 0.8621 -43.6413
v  0.1538 0.8591 -43.6413
v  0.1991 0.8302 -43.6413
v  0.1532 0.8356 -43.6413
v  -0.1022 0.8453 -43.5026
v  -0.1010 0.8687 -43.5026
v  -0.0956 0.8915 -43.5026
v  -0.0861 0.9130 -43.5026
v  -0.0728 0.9323 -43.5026
v  -0.0562 0.9490 -43.5026
v  -0.0369 0.9623 -43.5026
v  -0.0155 0.9718 -43.5026
v  0.0073 0.9774 -43.5026
v  0.0307 0.9786 -43.5026
v  0.0540 0.9756 -43.5026
v  0.0763 0.9684 -43.5026
v  0.0970 0.9572 -43.5026
v  0.1152 0.9425 -43.5026
v  0.1305 0.9246 -43.5026
v  0.1422 0.9043 -43.5026
v  0.1501 0.8822 -43.5026
v  0.1538 0.8591 -43.5026
v  0.1532 0.8356 -43.5026
v  -0.1484 0.8434 -43.5026
v  -0.1468 0.8753 -43.5026
v  -0.1394 0.9063 -43.5026
v  -0.1264 0.9355 -43.5026
v  -0.1084 0.9618 -43.5026
v  -0.0858 0.9844 -43.5026
v  -0.0596 1.0026 -43.5026
v  -0.0304 1.0156 -43.5026
v  0.0006 1.0231 -43.5026
v  0.0325 1.0248 -43.5026
v  0.0641 1.0207 -43.5026
v  0.0945 1.0109 -43.5026
v  0.1226 0.9957 -43.5026
v  0.1474 0.9756 -43.5026
v  0.1682 0.9514 -43.5026
v  0.1842 0.9237 -43.5026
v  0.1949 0.8937 -43.5026
v  0.1999 0.8621 -43.5026
v  0.1991 0.8302 -43.5026
# 210 vertices

vn 0.6975 -0.6701 0.2539
vn 0.5686 -0.6701 0.4772
vn 0.3712 -0.6701 0.6428
vn 0.1289 -0.6701 0.7310
vn -0.1289 -0.6700 0.7311
vn -0.3712 -0.6700 0.6429
vn -0.5687 -0.6700 0.4772
vn -0.6976 -0.6700 0.2539
vn -0.7423 -0.6701 0.0000
vn -0.6976 -0.6700 -0.2539
vn -0.5687 -0.6700 -0.4772
vn -0.3712 -0.6700 -0.6429
vn -0.1289 -0.6700 -0.7311
vn 0.1289 -0.6700 -0.7311
vn 0.3712 -0.6700 -0.6429
vn 0.5687 -0.6700 -0.4772
vn 0.6975 -0.6701 -0.2539
vn 0.7424 -0.6699 0.0000
vn 0.8831 0.3419 -0.3214
vn 0.9397 0.3419 0.0000
vn 0.7199 0.3419 -0.6040
vn 0.4699 0.3419 -0.8138
vn 0.1632 0.3419 -0.9255
vn -0.1632 0.3419 -0.9255
vn -0.4699 0.3419 -0.8138
vn -0.7199 0.3419 -0.6041
vn -0.8831 0.3419 -0.3214
vn -0.9397 0.3419 -0.0000
vn -0.8831 0.3419 0.3214
vn -0.7199 0.3419 0.6041
vn -0.4699 0.3419 0.8138
vn -0.1632 0.3419 0.9255
vn 0.1632 0.3419 0.9255
vn 0.4699 0.3419 0.8138
vn 0.7199 0.3419 0.6041
vn 0.8831 0.3419 0.3214
vn 0.4203 0.8944 -0.1530
vn 0.4473 0.8944 0.0000
vn 0.3426 0.8944 -0.2875
vn 0.2236 0.8944 -0.3873
vn 0.0777 0.8944 -0.4405
vn -0.0777 0.8944 -0.4405
vn -0.2236 0.8944 -0.3873
vn -0.3426 0.8944 -0.2875
vn -0.4203 0.8944 -0.1530
vn -0.4473 0.8944 -0.0000
vn -0.4203 0.8944 0.1530
vn -0.3426 0.8944 0.2875
vn -0.2236 0.8944 0.3873
vn -0.0777 0.8944 0.4405
vn 0.0777 0.8944 0.4405
vn 0.2236 0.8944 0.3873
vn 0.3426 0.8944 0.2875
vn 0.4203 0.8944 0.1530
vn 0.7648 -0.3235 0.5571
vn 0.7376 -0.4997 0.4542
vn 0.7173 -0.6305 0.2964
vn 0.7066 -0.7001 0.1030
vn 0.7066 -0.7001 -0.1030
vn 0.7173 -0.6305 -0.2964
vn 0.7376 -0.4997 -0.4542
vn 0.7648 -0.3235 -0.5571
vn 0.7958 -0.1231 -0.5929
vn 0.8268 0.0773 -0.5571
vn 0.8541 0.2535 -0.4542
vn 0.8743 0.3843 -0.2964
vn 0.8851 0.4539 -0.1030
vn 0.8851 0.4539 0.1030
vn 0.8743 0.3843 0.2964
vn 0.8541 0.2535 0.4542
vn 0.8268 0.0773 0.5571
vn 0.7958 -0.1231 0.5929
vn -0.4635 0.3685 0.8059
vn -0.5083 0.0786 0.8576
vn -0.4240 0.6234 0.6569
vn -0.3947 0.8126 0.4288
vn -0.3792 0.9133 0.1489
vn -0.3792 0.9133 -0.1489
vn -0.3947 0.8126 -0.4288
vn -0.4240 0.6234 -0.6569
vn -0.4634 0.3685 -0.8059
vn -0.5083 0.0786 -0.8576
vn -0.5531 -0.2112 -0.8059
vn -0.5926 -0.4661 -0.6569
vn -0.6218 -0.6553 -0.4288
vn -0.6374 -0.7560 -0.1489
vn -0.6374 -0.7560 0.1489
vn -0.6218 -0.6553 0.4288
vn -0.5926 -0.4661 0.6569
vn -0.5531 -0.2112 0.8059
vn 0.6233 -0.3533 0.6976
vn 0.5891 -0.5740 0.5687
vn 0.5639 -0.7377 0.3711
vn 0.5504 -0.8249 0.1289
vn 0.5503 -0.8249 -0.1289
vn 0.5640 -0.7377 -0.3711
vn 0.5892 -0.5740 -0.5687
vn 0.6233 -0.3533 -0.6976
vn 0.6622 -0.1025 -0.7423
vn 0.7009 0.1485 -0.6976
vn 0.7351 0.3691 -0.5686
vn 0.7605 0.5328 -0.3712
vn 0.7739 0.6200 -0.1289
vn 0.7739 0.6201 0.1289
vn 0.7605 0.5329 0.3711
vn 0.7351 0.3691 0.5686
vn 0.7010 0.1485 0.6976
vn 0.6621 -0.1025 0.7423
vn -0.6233 0.3533 0.6976
vn -0.6621 0.1024 0.7424
vn -0.5892 0.5740 0.5687
vn -0.5639 0.7378 0.3712
vn -0.5504 0.8249 0.1289
vn -0.5504 0.8249 -0.1289
vn -0.5639 0.7377 -0.3712
vn -0.5892 0.5740 -0.5687
vn -0.6233 0.3533 -0.6976
vn -0.6622 0.1024 -0.7423
vn -0.7010 -0.1485 -0.6976
vn -0.7351 -0.3691 -0.5687
vn -0.7604 -0.5329 -0.3712
vn -0.7739 -0.6200 -0.1289
vn -0.7739 -0.6200 0.1289
vn -0.7604 -0.5329 0.3711
vn -0.7351 -0.3691 0.5687
vn -0.7010 -0.1485 0.6976
vn -0.4678 -0.6732 0.5727
vn -0.4678 -0.6732 -0.5727
vn 0.6676 -0.4639 -0.5823
vn 0.6676 -0.4639 0.5823
vn -0.7008 -0.4121 -0.5823
vn 0.4154 -0.7067 -0.5727
vn 0.4155 -0.7067 0.5727
vn -0.7008 -0.4121 0.5823
vn -0.7260 -0.0296 -0.6871
vn 0.6847 0.0279 -0.7283
vn -0.7192 0.1032 -0.6871
vn 0.6784 -0.0974 -0.7283
vn -0.6883 0.2326 -0.6871
vn 0.6492 -0.2194 -0.7283
vn -0.6344 0.3541 -0.6871
vn 0.5983 -0.3340 -0.7283
vn -0.5593 0.4638 -0.6871
vn 0.5275 -0.4374 -0.7283
vn -0.4654 0.5580 -0.6870
vn 0.4389 -0.5262 -0.7283
vn -0.3559 0.6334 -0.6871
vn 0.3357 -0.5974 -0.7283
vn -0.2345 0.6877 -0.6871
vn 0.2212 -0.6486 -0.7283
vn -0.1053 0.7189 -0.6871
vn 0.0993 -0.6780 -0.7283
vn 0.0275 0.7261 -0.6871
vn -0.0259 -0.6848 -0.7283
vn 0.1594 0.7089 -0.6871
vn -0.1503 -0.6686 -0.7283
vn 0.2859 0.6680 -0.6871
vn -0.2696 -0.6300 -0.7283
vn 0.4028 0.6047 -0.6871
vn -0.3799 -0.5703 -0.7283
vn 0.5063 0.5212 -0.6870
vn -0.4775 -0.4915 -0.7283
vn 0.5928 0.4202 -0.6871
vn -0.5591 -0.3963 -0.7283
vn 0.6594 0.3051 -0.6871
vn -0.6219 -0.2878 -0.7283
vn 0.7040 0.1798 -0.6871
vn -0.6639 -0.1696 -0.7283
vn 0.7250 0.0485 -0.6871
vn -0.6837 -0.0458 -0.7283
vn 0.7216 -0.0844 -0.6871
vn -0.6806 0.0796 -0.7283
vn 0.6847 0.0279 0.7283
vn 0.6783 -0.0974 0.7283
vn 0.6492 -0.2194 0.7283
vn 0.5984 -0.3340 0.7283
vn 0.5275 -0.4374 0.7283
vn 0.4389 -0.5262 0.7283
vn 0.3357 -0.5974 0.7283
vn 0.2212 -0.6486 0.7283
vn 0.0993 -0.6780 0.7283
vn -0.0259 -0.6848 0.7283
vn -0.1503 -0.6685 0.7283
vn -0.2696 -0.6300 0.7283
vn -0.3799 -0.5703 0.7283
vn -0.4775 -0.4916 0.7283
vn -0.5591 -0.3963 0.7283
vn -0.6219 -0.2878 0.7283
vn -0.6640 -0.1696 0.7283
vn -0.6838 -0.0458 0.7283
vn -0.6806 0.0796 0.7283
vn -0.7259 -0.0296 0.6871
vn -0.7192 0.1033 0.6871
vn -0.6884 0.2326 0.6871
vn -0.6345 0.3541 0.6870
vn -0.5593 0.4638 0.6870
vn -0.4654 0.5580 0.6871
vn -0.3559 0.6335 0.6870
vn -0.2345 0.6877 0.6870
vn -0.1053 0.7190 0.6870
vn 0.0275 0.7261 0.6871
vn 0.1594 0.7089 0.6871
vn 0.2859 0.6680 0.6871
vn 0.4028 0.6047 0.6870
vn 0.5062 0.5211 0.6871
vn 0.5928 0.4202 0.6871
vn 0.6594 0.3051 0.6871
vn 0.7040 0.1798 0.6871
vn 0.7250 0.0485 0.6871
vn 0.7217 -0.0844 0.6871
# 210 vertex normals

vt 0.3400 0.0000 -0.0000
vt 0.1953 0.0000 -0.3473
vt 0.0874 0.0000 -0.6527
vt 0.0292 0.0000 -0.8794
vt 0.0278 0.0000 -1.0000
vt 0.0833 0.0000 -1.0000
vt 0.1891 0.0000 -0.8794
vt 0.3325 0.0000 -0.6527
vt 0.4960 0.0000 -0.3473
vt 0.6600 0.0000 -0.0000
vt 0.8047 0.0000 0.3473
vt 0.9126 0.0000 0.6527
vt 0.9708 0.0000 0.8794
vt 0.9722 0.0000 1.0000
vt 0.9167 0.0000 1.0000
vt 0.8611 0.0000 1.0000
vt 0.8056 0.0000 1.0000
vt 0.7500 0.0000 1.0000
vt 0.8056 0.5000 1.0000
vt 0.7500 0.5000 1.0000
vt 0.8611 0.5000 1.0000
vt 0.9167 0.5000 1.0000
vt 0.9722 0.5000 1.0000
vt -0.0278 0.0000 1.0000
vt 0.0278 0.0000 1.0000
vt 0.0278 0.5000 1.0000
vt -0.0278 0.5000 1.0000
vt 0.0833 0.0000 1.0000
vt 0.0833 0.5000 1.0000
vt 0.1389 0.0000 1.0000
vt 0.1389 0.5000 1.0000
vt 0.1944 0.0000 1.0000
vt 0.1944 0.5000 1.0000
vt 0.2500 0.0000 1.0000
vt 0.2500 0.5000 1.0000
vt 0.3056 0.0000 1.0000
vt 0.3056 0.5000 1.0000
vt 0.3611 0.0000 1.0000
vt 0.3611 0.5000 1.0000
vt 0.4167 0.0000 1.0000
vt 0.4167 0.5000 1.0000
vt 0.4722 0.0000 1.0000
vt 0.4722 0.5000 1.0000
vt 0.5278 0.0000 1.0000
vt 0.5278 0.5000 1.0000
vt 0.5833 0.0000 1.0000
vt 0.5833 0.5000 1.0000
vt 0.6389 0.0000 1.0000
vt 0.6389 0.5000 1.0000
vt 0.6944 0.0000 1.0000
vt 0.6944 0.5000 1.0000
vt 0.8056 1.0000 1.0000
vt 0.7500 1.0000 1.0000
vt 0.8611 1.0000 1.0000
vt 0.9167 1.0000 1.0000
vt 0.9722 1.0000 1.0000
vt 0.0278 1.0000 1.0000
vt -0.0278 1.0000 1.0000
vt 0.0833 1.0000 1.0000
vt 0.1389 1.0000 1.0000
vt 0.1944 1.0000 1.0000
vt 0.2500 1.0000 1.0000
vt 0.3056 1.0000 1.0000
vt 0.3611 1.0000 1.0000
vt 0.4167 1.0000 1.0000
vt 0.4722 1.0000 1.0000
vt 0.5278 1.0000 1.0000
vt 0.5833 1.0000 1.0000
vt 0.6389 1.0000 1.0000
vt 0.6944 1.0000 1.0000
vt 0.9708 1.0000 0.8794
vt 0.9126 1.0000 0.6527
vt 0.8047 1.0000 0.3473
vt 0.6600 1.0000 0.0000
vt 0.4960 1.0000 -0.3473
vt 0.3325 1.0000 -0.6527
vt 0.1891 1.0000 -0.8794
vt 0.0833 1.0000 -1.0000
vt 0.0278 1.0000 -1.0000
vt 0.0292 1.0000 -0.8794
vt 0.0874 1.0000 -0.6527
vt 0.1953 1.0000 -0.3473
vt 0.6600 0.0000 0.0000
vt 0.6600 1.0000 -0.0000
vt 0.0000 1.0000 0.0000
vt 0.0000 0.0000 0.0000
vt 1.0000 0.0000 0.0000
vt 1.0000 1.0000 0.0000
vt 0.0000 0.0500 0.0000
vt 1.0000 0.0500 0.0000
vt 0.0000 0.1000 0.0000
vt 1.0000 0.1000 0.0000
vt 0.0000 0.1500 0.0000
vt 1.0000 0.1500 0.0000
vt 0.0000 0.2000 0.0000
vt 1.0000 0.2000 0.0000
vt 0.0000 0.2500 0.0000
vt 1.0000 0.2500 0.0000
vt 0.0000 0.3000 0.0000
vt 1.0000 0.3000 0.0000
vt 0.0000 0.3500 0.0000
vt 1.0000 0.3500 0.0000
vt 0.0000 0.4000 0.0000
vt 1.0000 0.4000 0.0000
vt 0.0000 0.4500 0.0000
vt 1.0000 0.4500 0.0000
vt 0.0000 0.5000 0.0000
vt 1.0000 0.5000 0.0000
vt 0.0000 0.5500 0.0000
vt 1.0000 0.5500 0.0000
vt 0.0000 0.6000 0.0000
vt 1.0000 0.6000 0.0000
vt 0.0000 0.6500 0.0000
vt 1.0000 0.6500 0.0000
vt 0.0000 0.7000 0.0000
vt 1.0000 0.7000 0.0000
vt 0.0000 0.7500 0.0000
vt 1.0000 0.7500 0.0000
vt 0.0000 0.8000 0.0000
vt 1.0000 0.8000 0.0000
vt 0.0000 0.8500 0.0000
vt 1.0000 0.8500 0.0000
vt 0.0000 0.9000 0.0000
vt 1.0000 0.9000 0.0000
vt 0.0000 0.9500 0.0000
vt 1.0000 0.9500 0.0000
# 126 texture coords

o Regadera
g Regadera
usemtl wire_086086086
s 1
f 1/1/1 2/2/2 3/3/3 4/4/4 5/5/5 6/6/6 7/7/7 8/8/8 9/9/9 10/10/10 11/11/11 12/12/12 13/13/13 14/14/14 15/15/15 16/16/16 17/17/17 18/18/18 
s 8
f 18/18/18 17/17/17 19/19/19 20/20/20 
f 17/17/17 16/16/16 21/21/21 19/19/19 
f 16/16/16 15/15/15 22/22/22 21/21/21 
f 15/15/15 14/14/14 23/23/23 22/22/22 
f 14/24/14 13/25/13 24/26/24 23/27/23 
f 13/25/13 12/28/12 25/29/25 24/26/24 
f 12/28/12 11/30/11 26/31/26 25/29/25 
f 11/30/11 10/32/10 27/33/27 26/31/26 
f 10/32/10 9/34/9 28/35/28 27/33/27 
f 9/34/9 8/36/8 29/37/29 28/35/28 
f 8/36/8 7/38/7 30/39/30 29/37/29 
f 7/38/7 6/40/6 31/41/31 30/39/30 
f 6/40/6 5/42/5 32/43/32 31/41/31 
f 5/42/5 4/44/4 33/45/33 32/43/32 
f 4/44/4 3/46/3 34/47/34 33/45/33 
f 3/46/3 2/48/2 35/49/35 34/47/34 
f 2/48/2 1/50/1 36/51/36 35/49/35 
f 1/50/1 18/18/18 20/20/20 36/51/36 
f 20/20/20 19/19/19 37/52/37 38/53/38 
f 19/19/19 21/21/21 39/54/39 37/52/37 
f 21/21/21 22/22/22 40/55/40 39/54/39 
f 22/22/22 23/23/23 41/56/41 40/55/40 
f 23/27/23 24/26/24 42/57/42 41/58/41 
f 24/26/24 25/29/25 43/59/43 42/57/42 
f 25/29/25 26/31/26 44/60/44 43/59/43 
f 26/31/26 27/33/27 45/61/45 44/60/44 
f 27/33/27 28/35/28 46/62/46 45/61/45 
f 28/35/28 29/37/29 47/63/47 46/62/46 
f 29/37/29 30/39/30 48/64/48 47/63/47 
f 30/39/30 31/41/31 49/65/49 48/64/48 
f 31/41/31 32/43/32 50/66/50 49/65/49 
f 32/43/32 33/45/33 51/67/51 50/66/50 
f 33/45/33 34/47/34 52/68/52 51/67/51 
f 34/47/34 35/49/35 53/69/53 52/68/52 
f 35/49/35 36/51/36 54/70/54 53/69/53 
f 36/51/36 20/20/20 38/53/38 54/70/54 
s 1
f 54/70/54 38/53/38 37/52/37 39/54/39 40/55/40 41/56/41 42/71/42 43/72/43 44/73/44 45/74/45 46/75/46 47/76/47 48/77/48 49/78/49 50/79/50 51/80/51 52/81/52 53/82/53 
f 55/1/55 56/2/56 57/3/57 58/4/58 59/5/59 60/6/60 61/7/61 62/8/62 63/9/63 64/83/64 65/11/65 66/12/66 67/13/67 68/14/68 69/15/69 70/16/70 71/17/71 72/18/72 
s 8
f 72/18/72 71/17/71 73/52/73 74/53/74 
f 71/17/71 70/16/70 75/54/75 73/52/73 
f 70/16/70 69/15/69 76/55/76 75/54/75 
f 69/15/69 68/14/68 77/56/77 76/55/76 
f 68/24/68 67/25/67 78/57/78 77/58/77 
f 67/25/67 66/28/66 79/59/79 78/57/78 
f 66/28/66 65/30/65 80/60/80 79/59/79 
f 65/30/65 64/32/64 81/61/81 80/60/80 
f 64/32/64 63/34/63 82/62/82 81/61/81 
f 63/34/63 62/36/62 83/63/83 82/62/82 
f 62/36/62 61/38/61 84/64/84 83/63/83 
f 61/38/61 60/40/60 85/65/85 84/64/84 
f 60/40/60 59/42/59 86/66/86 85/65/85 
f 59/42/59 58/44/58 87/67/87 86/66/86 
f 58/44/58 57/46/57 88/68/88 87/67/87 
f 57/46/57 56/48/56 89/69/89 88/68/88 
f 56/48/56 55/50/55 90/70/90 89/69/89 
f 55/50/55 72/18/72 74/53/74 90/70/90 
s 1
f 90/70/90 74/53/74 73/52/73 75/54/75 76/55/76 77/56/77 78/71/78 79/72/79 80/73/80 81/84/81 82/75/82 83/76/83 84/77/84 85/78/85 86/79/86 87/80/87 88/81/88 89/82/89 
f 91/1/91 92/2/92 93/3/93 94/4/94 95/5/95 96/6/96 97/7/97 98/8/98 99/9/99 100/83/100 101/11/101 102/12/102 103/13/103 104/14/104 105/15/105 106/16/106 107/17/107 108/18/108 
s 8
f 108/18/108 107/17/107 109/52/109 110/53/110 
f 107/17/107 106/16/106 111/54/111 109/52/109 
f 106/16/106 105/15/105 112/55/112 111/54/111 
f 105/15/105 104/14/104 113/56/113 112/55/112 
f 104/24/104 103/25/103 114/57/114 113/58/113 
f 103/25/103 102/28/102 115/59/115 114/57/114 
f 102/28/102 101/30/101 116/60/116 115/59/115 
f 101/30/101 100/32/100 117/61/117 116/60/116 
f 100/32/100 99/34/99 118/62/118 117/61/117 
f 99/34/99 98/36/98 119/63/119 118/62/118 
f 98/36/98 97/38/97 120/64/120 119/63/119 
f 97/38/97 96/40/96 121/65/121 120/64/120 
f 96/40/96 95/42/95 122/66/122 121/65/121 
f 95/42/95 94/44/94 123/67/123 122/66/122 
f 94/44/94 93/46/93 124/68/124 123/67/123 
f 93/46/93 92/48/92 125/69/125 124/68/124 
f 92/48/92 91/50/91 126/70/126 125/69/125 
f 91/50/91 108/18/108 110/53/110 126/70/126 
s 1
f 126/70/126 110/53/110 109/52/109 111/54/111 112/55/112 113/56/113 114/71/114 115/72/115 116/73/116 117/74/117 118/75/118 119/76/119 120/77/120 121/78/121 122/79/122 123/80/123 124/81/124 125/82/125 
s 2
f 127/85/127 128/86/128 129/87/129 130/88/130 
s 4
f 131/86/131 132/87/132 133/88/133 134/85/134 
s 8
f 129/87/129 128/86/128 135/89/135 136/90/136 
f 136/90/136 135/89/135 137/91/137 138/92/138 
f 138/92/138 137/91/137 139/93/139 140/94/140 
f 140/94/140 139/93/139 141/95/141 142/96/142 
f 142/96/142 141/95/141 143/97/143 144/98/144 
f 144/98/144 143/97/143 145/99/145 146/100/146 
f 146/100/146 145/99/145 147/101/147 148/102/148 
f 148/102/148 147/101/147 149/103/149 150/104/150 
f 150/104/150 149/103/149 151/105/151 152/106/152 
f 152/106/152 151/105/151 153/107/153 154/108/154 
f 154/108/154 153/107/153 155/109/155 156/110/156 
f 156/110/156 155/109/155 157/111/157 158/112/158 
f 158/112/158 157/111/157 159/113/159 160/114/160 
f 160/114/160 159/113/159 161/115/161 162/116/162 
f 162/116/162 161/115/161 163/117/163 164/118/164 
f 164/118/164 163/117/163 165/119/165 166/120/166 
f 166/120/166 165/119/165 167/121/167 168/122/168 
f 168/122/168 167/121/167 169/123/169 170/124/170 
f 170/124/170 169/123/169 171/125/171 172/126/172 
f 172/126/172 171/125/171 132/85/132 131/88/131 
s 16
f 130/87/130 129/86/129 136/89/136 173/90/173 
f 173/90/173 136/89/136 138/91/138 174/92/174 
f 174/92/174 138/91/138 140/93/140 175/94/175 
f 175/94/175 140/93/140 142/95/142 176/96/176 
f 176/96/176 142/95/142 144/97/144 177/98/177 
f 177/98/177 144/97/144 146/99/146 178/100/178 
f 178/100/178 146/99/146 148/101/148 179/102/179 
f 179/102/179 148/101/148 150/103/150 180/104/180 
f 180/104/180 150/103/150 152/105/152 181/106/181 
f 181/106/181 152/105/152 154/107/154 182/108/182 
f 182/108/182 154/107/154 156/109/156 183/110/183 
f 183/110/183 156/109/156 158/111/158 184/112/184 
f 184/112/184 158/111/158 160/113/160 185/114/185 
f 185/114/185 160/113/160 162/115/162 186/116/186 
f 186/116/186 162/115/162 164/117/164 187/118/187 
f 187/118/187 164/117/164 166/119/166 188/120/188 
f 188/120/188 166/119/166 168/121/168 189/122/189 
f 189/122/189 168/121/168 170/123/170 190/124/190 
f 190/124/190 170/123/170 172/125/172 191/126/191 
f 191/126/191 172/125/172 131/85/131 134/88/134 
s 32
f 127/87/127 130/86/130 173/89/173 192/90/192 
f 192/90/192 173/89/173 174/91/174 193/92/193 
f 193/92/193 174/91/174 175/93/175 194/94/194 
f 194/94/194 175/93/175 176/95/176 195/96/195 
f 195/96/195 176/95/176 177/97/177 196/98/196 
f 196/98/196 177/97/177 178/99/178 197/100/197 
f 197/100/197 178/99/178 179/101/179 198/102/198 
f 198/102/198 179/101/179 180/103/180 199/104/199 
f 199/104/199 180/103/180 181/105/181 200/106/200 
f 200/106/200 181/105/181 182/107/182 201/108/201 
f 201/108/201 182/107/182 183/109/183 202/110/202 
f 202/110/202 183/109/183 184/111/184 203/112/203 
f 203/112/203 184/111/184 185/113/185 204/114/204 
f 204/114/204 185/113/185 186/115/186 205/116/205 
f 205/116/205 186/115/186 187/117/187 206/118/206 
f 206/118/206 187/117/187 188/119/188 207/120/207 
f 207/120/207 188/119/188 189/121/189 208/122/208 
f 208/122/208 189/121/189 190/123/190 209/124/209 
f 209/124/209 190/123/190 191/125/191 210/126/210 
f 210/126/210 191/125/191 134/85/134 133/88/133 
s 64
f 128/87/128 127/86/127 192/89/192 135/90/135 
f 135/90/135 192/89/192 193/91/193 137/92/137 
f 137/92/137 193/91/193 194/93/194 139/94/139 
f 139/94/139 194/93/194 195/95/195 141/96/141 
f 141/96/141 195/95/195 196/97/196 143/98/143 
f 143/98/143 196/97/196 197/99/197 145/100/145 
f 145/100/145 197/99/197 198/101/198 147/102/147 
f 147/102/147 198/101/198 199/103/199 149/104/149 
f 149/104/149 199/103/199 200/105/200 151/106/151 
f 151/106/151 200/105/200 201/107/201 153/108/153 
f 153/108/153 201/107/201 202/109/202 155/110/155 
f 155/110/155 202/109/202 203/111/203 157/112/157 
f 157/112/157 203/111/203 204/113/204 159/114/159 
f 159/114/159 204/113/204 205/115/205 161/116/161 
f 161/116/161 205/115/205 206/117/206 163/118/163 
f 163/118/163 206/117/206 207/119/207 165/120/165 
f 165/120/165 207/119/207 208/121/208 167/122/167 
f 167/122/167 208/121/208 209/123/209 169/124/169 
f 169/124/169 209/123/209 210/125/210 171/126/171 
f 171/126/171 210/125/210 133/85/133 132/88/132 
# 160 polygons

