# 3ds Max Wavefront OBJ Exporter v0.97b - (c)2007 guruware
# File Created: 15.03.2020 17:42:22

mtllib Seto.mtl

#
# object Base_seto
#

v  -2.3168 -0.0431 -54.7040
v  3.1008 -0.0431 -54.7040
v  3.1008 -0.0431 -49.2865
v  -2.3168 -0.0431 -49.2865
v  3.1008 1.3113 -49.2865
v  -2.3168 1.3113 -49.2865
v  -2.3168 1.3113 -54.7040
v  3.1008 1.3113 -54.7040
v  2.6784 1.3113 -49.7324
v  -1.8362 1.3113 -49.7324
v  2.6784 1.3113 -54.2470
v  -1.8362 1.3113 -54.2470
v  2.6784 0.4548 -49.7324
v  2.6784 0.4548 -54.2470
v  -1.8362 0.4548 -54.2470
v  -1.8362 0.4548 -49.7324
# 16 vertices

vn -0.5774 -0.5774 -0.5774
vn 0.5774 -0.5774 -0.5774
vn 0.5774 -0.5774 0.5774
vn -0.5774 -0.5774 0.5774
vn 0.5774 0.5774 0.5774
vn -0.5774 0.5774 0.5774
vn -0.5774 0.5774 -0.5774
vn 0.5774 0.5774 -0.5774
vn -0.3015 0.9045 -0.3015
vn 0.3015 0.9045 -0.3015
vn -0.3015 0.9045 0.3015
vn 0.3015 0.9045 0.3015
# 12 vertex normals

vt 1.0000 1.0000 0.0000
vt 0.0000 1.0000 0.0000
vt 0.0000 0.0000 0.0000
vt 1.0000 0.0000 0.0000
vt 0.9220 0.0823 0.0000
vt 0.0887 0.0823 0.0000
vt 0.9220 0.9156 0.0000
vt 0.0887 0.9156 0.0000
vt 1.0000 0.9486 0.0000
vt 0.0000 0.9486 0.0000
# 10 texture coords

o Base_seto
g Base_seto
usemtl wire_176026026
s 2
f 1/1/1 2/2/2 3/3/3 4/4/4 
s 8
f 3/4/3 5/1/5 6/2/6 4/3/4 
s 64
f 4/4/4 6/1/6 7/2/7 1/3/1 
s 32
f 1/4/1 7/1/7 8/2/8 2/3/2 
s 16
f 2/4/2 8/1/8 5/2/5 3/3/3 
s 4
f 9/5/9 10/6/10 6/3/6 5/4/5 
f 11/7/11 9/5/9 5/4/5 8/1/8 
f 12/8/12 11/7/11 8/1/8 7/2/7 
f 10/6/10 12/8/12 7/2/7 6/3/6 
s 1
f 13/3/7 14/2/6 15/1/5 16/4/8 
s 256
f 9/9/9 13/4/7 16/3/8 10/10/10 
s 2048
f 10/9/10 16/4/8 15/3/5 12/10/12 
s 1024
f 12/9/12 15/4/5 14/3/6 11/10/11 
s 512
f 11/9/11 14/4/6 13/3/7 9/10/9 
# 14 polygons

#
# object Seto
#

v  -1.4352 0.4922 -50.1024
v  -1.2072 0.4508 -50.6271
v  0.1675 0.5141 -49.8260
v  -0.0605 0.5555 -49.3013
v  1.5421 0.4341 -50.8386
v  1.3141 0.4755 -50.3139
v  2.9167 0.4904 -50.1259
v  2.6887 0.5318 -49.6012
v  -1.3716 0.4093 -51.1519
v  0.0030 0.4726 -50.3508
v  1.3777 0.3926 -51.3633
v  2.7523 0.4489 -50.6507
v  -1.7359 0.3679 -51.6766
v  -0.3613 0.4312 -50.8755
v  1.0134 0.3511 -51.8880
v  2.3880 0.4075 -51.1754
v  -1.6146 0.3264 -52.2013
v  -0.2400 0.3897 -51.4002
v  1.1347 0.3097 -52.4127
v  2.5093 0.3660 -51.7001
v  -1.3603 0.2849 -52.7260
v  0.0144 0.3482 -51.9249
v  1.3890 0.2682 -52.9374
v  2.7636 0.3245 -52.2248
v  -1.6342 0.2435 -53.2507
v  -0.2595 0.3068 -52.4496
v  1.1151 0.2268 -53.4621
v  2.4898 0.2831 -52.7495
v  -1.7376 0.2020 -53.7754
v  -0.3629 0.2653 -52.9743
v  1.0117 0.1853 -53.9868
v  2.3864 0.2416 -53.2742
v  -1.7347 0.1606 -54.3001
v  -0.3600 0.2239 -53.4990
v  1.0146 0.1439 -54.5115
v  2.3892 0.2002 -53.7989
v  -2.1080 5.0308 -49.4265
v  -0.7334 5.0177 -49.5921
v  -0.7952 4.9762 -50.1168
v  -2.1699 4.9893 -49.9512
v  0.6413 5.0468 -49.2239
v  0.5794 5.0053 -49.7486
v  2.0159 5.0103 -49.6857
v  1.9540 4.9688 -50.2104
v  -0.4052 4.9348 -50.6415
v  -1.7798 4.9479 -50.4759
v  0.9695 4.9639 -50.2733
v  2.3441 4.9274 -50.7351
v  -0.8690 4.8933 -51.1662
v  -2.2437 4.9064 -51.0007
v  0.5056 4.9224 -50.7980
v  1.8803 4.8859 -51.2598
v  -0.2910 4.8519 -51.6909
v  -1.6656 4.8649 -51.5254
v  1.0837 4.8809 -51.3227
v  2.4583 4.8445 -51.7845
v  -0.9162 4.8104 -52.2156
v  -2.2909 4.8235 -52.0501
v  0.4584 4.8395 -51.8474
v  1.8330 4.8030 -52.3092
v  -0.8908 4.7689 -52.7403
v  -2.2654 4.7820 -52.5748
v  0.4839 4.7980 -52.3721
v  1.8585 4.7615 -52.8340
v  -0.2912 4.7275 -53.2651
v  -1.6659 4.7406 -53.0995
v  1.0834 4.7566 -52.8968
v  2.4581 4.7201 -53.3587
v  -0.6026 4.6860 -53.7898
v  -1.9772 4.6991 -53.6242
v  0.7720 4.7151 -53.4215
v  2.1467 4.6786 -53.8834
v  0.0707 1.6668 -49.4278
v  -1.3039 1.5915 -50.3815
v  1.4454 1.6001 -50.2721
v  2.8200 1.6309 -49.8823
v  -0.4340 2.8022 -49.2492
v  -1.8086 2.7650 -49.7196
v  0.9406 2.7420 -50.0109
v  2.3153 2.7472 -49.9460
v  -0.3876 3.9169 -49.3333
v  -1.7622 3.8691 -49.9375
v  0.9871 3.9430 -49.0022
v  2.3617 3.8849 -49.7374
v  2.5370 1.5894 -50.4070
v  2.6007 1.5480 -50.9318
v  2.4306 1.5065 -51.4565
v  2.4992 1.4651 -51.9812
v  2.7254 1.4236 -52.5059
v  2.5777 1.3822 -53.0306
v  2.8495 1.3407 -53.5553
v  2.5322 1.2992 -54.0800
v  1.9419 2.7057 -50.4707
v  1.9930 2.6642 -50.9954
v  1.9740 2.6228 -51.5201
v  2.4521 2.5813 -52.0448
v  2.5871 2.5399 -52.5695
v  2.2934 2.4984 -53.0942
v  2.4780 2.4570 -53.6189
v  2.4247 2.4155 -54.1436
v  2.3845 3.8435 -50.2621
v  2.0086 3.8020 -50.7868
v  1.9132 3.7605 -51.3115
v  2.2156 3.7191 -51.8363
v  1.7656 3.6776 -52.3610
v  1.8243 3.6362 -52.8857
v  2.2546 3.5947 -53.4104
v  2.2462 3.5533 -53.9351
v  1.1576 1.2684 -54.4697
v  -0.2171 1.3352 -53.6254
v  -1.5917 1.2598 -54.5792
v  1.0501 2.4104 -54.2085
v  -0.3245 2.4706 -53.4468
v  -1.6992 2.4334 -53.9172
v  0.8716 3.6113 -53.1999
v  -0.5031 3.5852 -53.5309
v  -1.8777 3.5374 -54.1352
v  -1.2745 1.3013 -54.0545
v  -1.5462 1.3427 -53.5298
v  -1.3985 1.3842 -53.0051
v  -1.6247 1.4256 -52.4804
v  -1.6933 1.4671 -51.9556
v  -1.5232 1.5085 -51.4309
v  -1.5869 1.5500 -50.9062
v  -1.6459 2.4748 -53.3925
v  -1.8305 2.5163 -52.8678
v  -1.5368 2.5578 -52.3431
v  -1.6718 2.5992 -51.8184
v  -2.1499 2.6407 -51.2937
v  -2.1310 2.6821 -50.7690
v  -2.1820 2.7236 -50.2443
v  -1.8693 3.5789 -53.6105
v  -2.2997 3.6204 -53.0858
v  -2.3583 3.6618 -52.5611
v  -1.9084 3.7033 -52.0364
v  -2.2107 3.7447 -51.5117
v  -2.1154 3.7862 -50.9869
v  -1.7395 3.8277 -50.4622
# 138 vertices

vn -0.7979 -0.4949 0.3441
vn -0.4758 -0.8790 0.0303
vn 0.0000 -0.9969 0.0788
vn 0.0103 -0.5237 0.8518
vn 0.0542 -0.8345 0.5484
vn 0.8600 -0.4982 0.1104
vn 0.2275 -0.4569 0.8599
vn -0.5904 -0.7354 0.3326
vn 0.6848 -0.6790 -0.2646
vn -0.7808 -0.5813 0.2288
vn 0.5426 -0.8377 -0.0612
vn -0.6710 -0.7214 -0.1713
vn 0.6660 -0.6910 0.2811
vn -0.5527 -0.8320 0.0474
vn 0.7970 -0.5994 0.0742
vn -0.7321 -0.6041 0.3148
vn 0.5847 -0.7972 -0.1504
vn -0.8454 -0.5187 0.1275
vn 0.5221 -0.8528 0.0139
vn -0.4823 -0.6265 -0.6123
vn -0.0047 -0.8985 -0.4389
vn -0.0958 -0.6193 -0.7793
vn 0.6401 -0.7046 -0.3063
vn -0.5552 0.4297 0.7121
vn -0.0211 0.8413 0.5401
vn 0.0000 0.9969 -0.0788
vn -0.8470 0.5062 -0.1626
vn -0.0180 0.7432 0.6689
vn 0.5923 0.6831 0.4272
vn 0.4607 0.8870 0.0318
vn -0.3593 0.9257 -0.1180
vn 0.8776 0.4781 -0.0352
vn -0.8368 0.5400 0.0908
vn 0.4212 0.9041 -0.0716
vn -0.3042 0.9437 -0.1301
vn 0.8712 0.4907 -0.0098
vn -0.7271 0.5666 0.3877
vn 0.5130 0.7997 -0.3120
vn -0.6727 0.6816 -0.2878
vn 0.5664 0.8012 0.1931
vn -0.3463 0.9195 -0.1859
vn 0.8428 0.5240 0.1229
vn 0.0471 0.5472 -0.8357
vn -0.8169 0.5417 -0.1980
vn -0.0102 0.6847 -0.7288
vn 0.2541 0.5848 -0.7703
vn 0.0731 0.0036 0.9973
vn -0.7343 -0.1941 0.6505
vn 0.0732 -0.1260 0.9893
vn 0.8399 0.1981 0.5054
vn 0.0329 -0.0419 0.9986
vn -0.5737 -0.1973 0.7950
vn 0.2449 -0.3579 0.9011
vn 0.8586 0.1532 0.4892
vn -0.3104 0.1058 0.9447
vn -0.8672 -0.1725 0.4672
vn 0.1533 -0.1952 0.9687
vn 0.8512 0.0535 0.5222
vn 0.9070 0.3753 -0.1910
vn 0.9503 0.2844 -0.1264
vn 0.9816 0.1668 -0.0928
vn 0.9611 0.0670 0.2680
vn 0.9958 0.0829 0.0381
vn 0.9868 0.1092 0.1192
vn 0.9979 -0.0408 -0.0500
vn 0.6115 -0.1275 -0.7809
vn 0.9743 0.0547 -0.2185
vn 0.9706 0.2405 0.0056
vn 0.9227 0.1737 0.3441
vn 0.8890 0.0868 0.4497
vn 0.9241 0.3484 -0.1569
vn 0.9438 0.3219 -0.0747
vn 0.9641 0.2530 0.0813
vn 0.6600 0.1212 -0.7414
vn 0.9668 0.0119 -0.2554
vn 0.9183 -0.0949 -0.3844
vn 0.9877 0.0262 0.1542
vn 0.9973 0.0020 -0.0733
vn 0.9195 0.2687 -0.2869
vn 0.9243 0.1353 0.3569
vn 0.9330 -0.0390 0.3577
vn 0.4940 0.1674 -0.8532
vn -0.1051 0.1278 -0.9862
vn -0.0115 0.0272 -0.9996
vn -0.5514 0.1162 -0.8261
vn -0.2026 0.4041 -0.8920
vn -0.0958 0.0243 -0.9951
vn -0.7273 0.0078 -0.6863
vn -0.1171 0.2117 -0.9703
vn 0.3208 -0.1050 -0.9413
vn -0.5115 0.0349 -0.8586
vn -0.9920 0.0004 0.1261
vn -0.9808 -0.0298 -0.1928
vn -0.9951 -0.0971 0.0194
vn -0.9540 0.0322 -0.2980
vn -0.9833 -0.1738 0.0540
vn -0.9365 -0.3149 0.1540
vn -0.9043 -0.4039 0.1381
vn -0.9665 -0.2090 -0.1487
vn -0.9162 -0.3560 0.1838
vn -0.9391 -0.3388 0.0567
vn -0.8611 -0.0013 -0.5085
vn -0.9499 -0.1897 -0.2483
vn -0.9723 -0.2324 -0.0248
vn -0.9512 -0.0837 0.2972
vn -0.9600 0.0165 -0.2794
vn -0.9057 -0.0999 -0.4119
vn -0.9371 -0.2759 0.2136
vn -0.9742 -0.0529 0.2193
vn -0.9725 0.0022 -0.2329
vn -0.9341 0.1113 0.3391
vn -0.9484 -0.0254 0.3159
# 112 vertex normals

vt 1.0000 0.0000 0.0000
vt 1.0000 0.1250 0.0000
vt 0.6667 0.1250 0.0000
vt 0.6667 0.0000 0.0000
vt 0.3333 0.1250 0.0000
vt 0.3333 0.0000 0.0000
vt 0.0000 0.1250 0.0000
vt 0.0000 0.0000 0.0000
vt 1.0000 0.2500 0.0000
vt 0.6667 0.2500 0.0000
vt 0.3333 0.2500 0.0000
vt 0.0000 0.2500 0.0000
vt 1.0000 0.3750 0.0000
vt 0.6667 0.3750 0.0000
vt 0.3333 0.3750 0.0000
vt 0.0000 0.3750 0.0000
vt 1.0000 0.5000 0.0000
vt 0.6667 0.5000 0.0000
vt 0.3333 0.5000 0.0000
vt 0.0000 0.5000 0.0000
vt 1.0000 0.6250 0.0000
vt 0.6667 0.6250 0.0000
vt 0.3333 0.6250 0.0000
vt 0.0000 0.6250 0.0000
vt 1.0000 0.7500 0.0000
vt 0.6667 0.7500 0.0000
vt 0.3333 0.7500 0.0000
vt 0.0000 0.7500 0.0000
vt 1.0000 0.8750 0.0000
vt 0.6667 0.8750 0.0000
vt 0.3333 0.8750 0.0000
vt 0.0000 0.8750 0.0000
vt 1.0000 1.0000 0.0000
vt 0.6667 1.0000 0.0000
vt 0.3333 1.0000 0.0000
vt 0.0000 1.0000 0.0000
vt 0.1250 0.0000 0.0000
vt 0.1250 0.2500 0.0000
vt 0.2500 0.0000 0.0000
vt 0.2500 0.2500 0.0000
vt 0.3750 0.0000 0.0000
vt 0.3750 0.2500 0.0000
vt 0.5000 0.0000 0.0000
vt 0.5000 0.2500 0.0000
vt 0.6250 0.0000 0.0000
vt 0.6250 0.2500 0.0000
vt 0.7500 0.0000 0.0000
vt 0.7500 0.2500 0.0000
vt 0.8750 0.0000 0.0000
vt 0.8750 0.2500 0.0000
vt 0.1250 0.5000 0.0000
vt 0.2500 0.5000 0.0000
vt 0.3750 0.5000 0.0000
vt 0.5000 0.5000 0.0000
vt 0.6250 0.5000 0.0000
vt 0.7500 0.5000 0.0000
vt 0.8750 0.5000 0.0000
vt 0.1250 0.7500 0.0000
vt 0.2500 0.7500 0.0000
vt 0.3750 0.7500 0.0000
vt 0.5000 0.7500 0.0000
vt 0.6250 0.7500 0.0000
vt 0.7500 0.7500 0.0000
vt 0.8750 0.7500 0.0000
vt 0.1250 1.0000 0.0000
vt 0.2500 1.0000 0.0000
vt 0.3750 1.0000 0.0000
vt 0.5000 1.0000 0.0000
vt 0.6250 1.0000 0.0000
vt 0.7500 1.0000 0.0000
vt 0.8750 1.0000 0.0000
# 71 texture coords

o Seto
g Seto
usemtl wire_006135006
s 2
f 17/11/13 18/12/14 19/13/15 20/14/16 
f 20/14/16 19/13/15 21/15/15 22/16/17 
f 22/16/17 21/15/15 23/17/18 24/18/19 
f 18/12/14 25/19/20 26/20/15 19/13/15 
f 19/13/15 26/20/15 27/21/15 21/15/15 
f 21/15/15 27/21/15 28/22/21 23/17/18 
f 25/19/20 29/23/22 30/24/15 26/20/15 
f 26/20/15 30/24/15 31/25/15 27/21/15 
f 27/21/15 31/25/15 32/26/23 28/22/21 
f 29/23/22 33/27/24 34/28/15 30/24/15 
f 30/24/15 34/28/15 35/29/15 31/25/15 
f 31/25/15 35/29/15 36/30/25 32/26/23 
f 33/27/24 37/31/26 38/32/15 34/28/15 
f 34/28/15 38/32/15 39/33/15 35/29/15 
f 35/29/15 39/33/15 40/34/27 36/30/25 
f 37/31/26 41/35/28 42/36/15 38/32/15 
f 38/32/15 42/36/15 43/37/15 39/33/15 
f 39/33/15 43/37/15 44/38/29 40/34/27 
f 41/35/28 45/39/30 46/40/15 42/36/15 
f 42/36/15 46/40/15 47/41/15 43/37/15 
f 43/37/15 47/41/15 48/42/31 44/38/29 
f 45/39/30 49/43/32 50/44/33 46/40/15 
f 46/40/15 50/44/33 51/45/34 47/41/15 
f 47/41/15 51/45/34 52/46/35 48/42/31 
s 4
f 53/18/36 54/16/37 55/15/38 56/17/39 
f 54/16/37 57/14/40 58/13/38 55/15/38 
f 57/14/40 59/11/41 60/12/42 58/13/38 
f 56/17/39 55/15/38 61/21/38 62/22/43 
f 55/15/38 58/13/38 63/20/38 61/21/38 
f 58/13/38 60/12/42 64/19/44 63/20/38 
f 62/22/43 61/21/38 65/25/38 66/26/45 
f 61/21/38 63/20/38 67/24/38 65/25/38 
f 63/20/38 64/19/44 68/23/46 67/24/38 
f 66/26/45 65/25/38 69/29/38 70/30/47 
f 65/25/38 67/24/38 71/28/38 69/29/38 
f 67/24/38 68/23/46 72/27/48 71/28/38 
f 70/30/47 69/29/38 73/33/38 74/34/49 
f 69/29/38 71/28/38 75/32/38 73/33/38 
f 71/28/38 72/27/48 76/31/50 75/32/38 
f 74/34/49 73/33/38 77/37/38 78/38/51 
f 73/33/38 75/32/38 79/36/38 77/37/38 
f 75/32/38 76/31/50 80/35/52 79/36/38 
f 78/38/51 77/37/38 81/41/38 82/42/53 
f 77/37/38 79/36/38 83/40/38 81/41/38 
f 79/36/38 80/35/52 84/39/54 83/40/38 
f 82/42/53 81/41/38 85/45/55 86/46/56 
f 81/41/38 83/40/38 87/44/57 85/45/55 
f 83/40/38 84/39/54 88/43/58 87/44/57 
s 8
f 17/18/13 20/16/16 89/21/59 90/22/60 
f 20/16/16 22/14/17 91/20/61 89/21/59 
f 22/14/17 24/11/19 92/19/62 91/20/61 
f 90/22/60 89/21/59 93/29/63 94/30/64 
f 89/21/59 91/20/61 95/28/65 93/29/63 
f 91/20/61 92/19/62 96/27/66 95/28/65 
f 94/30/64 93/29/63 97/37/67 98/38/68 
f 93/29/63 95/28/65 99/36/69 97/37/67 
f 95/28/65 96/27/66 100/35/70 99/36/69 
f 98/38/68 97/37/67 54/45/37 53/46/36 
f 97/37/67 99/36/69 57/44/40 54/45/37 
f 99/36/69 100/35/70 59/43/41 57/44/40 
s 16
f 24/18/19 23/47/18 101/48/71 92/22/62 
f 23/47/18 28/49/21 102/50/72 101/48/71 
f 28/49/21 32/51/23 103/52/73 102/50/72 
f 32/51/23 36/53/25 104/54/74 103/52/73 
f 36/53/25 40/55/27 105/56/75 104/54/74 
f 40/55/27 44/57/29 106/58/76 105/56/75 
f 44/57/29 48/59/31 107/60/77 106/58/76 
f 48/59/31 52/11/35 108/19/78 107/60/77 
f 92/22/62 101/48/71 109/61/79 96/30/66 
f 101/48/71 102/50/72 110/62/80 109/61/79 
f 102/50/72 103/52/73 111/63/81 110/62/80 
f 103/52/73 104/54/74 112/64/82 111/63/81 
f 104/54/74 105/56/75 113/65/83 112/64/82 
f 105/56/75 106/58/76 114/66/84 113/65/83 
f 106/58/76 107/60/77 115/67/85 114/66/84 
f 107/60/77 108/19/78 116/27/86 115/67/85 
f 96/30/66 109/61/79 117/68/87 100/38/70 
f 109/61/79 110/62/80 118/69/88 117/68/87 
f 110/62/80 111/63/81 119/70/89 118/69/88 
f 111/63/81 112/64/82 120/71/90 119/70/89 
f 112/64/82 113/65/83 121/72/91 120/71/90 
f 113/65/83 114/66/84 122/73/92 121/72/91 
f 114/66/84 115/67/85 123/74/93 122/73/92 
f 115/67/85 116/27/86 124/35/94 123/74/93 
f 100/38/70 117/68/87 60/75/42 59/46/41 
f 117/68/87 118/69/88 64/76/44 60/75/42 
f 118/69/88 119/70/89 68/77/46 64/76/44 
f 119/70/89 120/71/90 72/78/48 68/77/46 
f 120/71/90 121/72/91 76/79/50 72/78/48 
f 121/72/91 122/73/92 80/80/52 76/79/50 
f 122/73/92 123/74/93 84/81/54 80/80/52 
f 123/74/93 124/35/94 88/43/58 84/81/54 
s 32
f 52/18/35 51/16/34 125/21/95 108/22/78 
f 51/16/34 50/14/33 126/20/96 125/21/95 
f 50/14/33 49/11/32 127/19/97 126/20/96 
f 108/22/78 125/21/95 128/29/98 116/30/86 
f 125/21/95 126/20/96 129/28/99 128/29/98 
f 126/20/96 127/19/97 130/27/100 129/28/99 
f 116/30/86 128/29/98 131/37/101 124/38/94 
f 128/29/98 129/28/99 132/36/102 131/37/101 
f 129/28/99 130/27/100 133/35/103 132/36/102 
f 124/38/94 131/37/101 87/45/57 88/46/58 
f 131/37/101 132/36/102 85/44/55 87/45/57 
f 132/36/102 133/35/103 86/43/56 85/44/55 
s 64
f 49/18/32 45/47/30 134/48/104 127/22/97 
f 45/47/30 41/49/28 135/50/105 134/48/104 
f 41/49/28 37/51/26 136/52/106 135/50/105 
f 37/51/26 33/53/24 137/54/107 136/52/106 
f 33/53/24 29/55/22 138/56/108 137/54/107 
f 29/55/22 25/57/20 139/58/109 138/56/108 
f 25/57/20 18/59/14 140/60/110 139/58/109 
f 18/59/14 17/11/13 90/19/60 140/60/110 
f 127/22/97 134/48/104 141/61/111 130/30/100 
f 134/48/104 135/50/105 142/62/112 141/61/111 
f 135/50/105 136/52/106 143/63/113 142/62/112 
f 136/52/106 137/54/107 144/64/114 143/63/113 
f 137/54/107 138/56/108 145/65/115 144/64/114 
f 138/56/108 139/58/109 146/66/116 145/65/115 
f 139/58/109 140/60/110 147/67/117 146/66/116 
f 140/60/110 90/19/60 94/27/64 147/67/117 
f 130/30/100 141/61/111 148/68/118 133/38/103 
f 141/61/111 142/62/112 149/69/119 148/68/118 
f 142/62/112 143/63/113 150/70/120 149/69/119 
f 143/63/113 144/64/114 151/71/121 150/70/120 
f 144/64/114 145/65/115 152/72/122 151/71/121 
f 145/65/115 146/66/116 153/73/123 152/72/122 
f 146/66/116 147/67/117 154/74/124 153/73/123 
f 147/67/117 94/27/64 98/35/68 154/74/124 
f 133/38/103 148/68/118 82/75/53 86/46/56 
f 148/68/118 149/69/119 78/76/51 82/75/53 
f 149/69/119 150/70/120 74/77/49 78/76/51 
f 150/70/120 151/71/121 70/78/47 74/77/49 
f 151/71/121 152/72/122 66/79/45 70/78/47 
f 152/72/122 153/73/123 62/80/43 66/79/45 
f 153/73/123 154/74/124 56/81/39 62/80/43 
f 154/74/124 98/35/68 53/43/36 56/81/39 
# 136 polygons

